<svg xmlns="http://www.w3.org/2000/svg" xmlns:xlink="http://www.w3.org/1999/xlink" width="237.556" height="144.314" viewBox="0 0 237.556 144.314">
  <defs>
    <linearGradient id="linear-gradient" x1="0.5" y1="1" x2="0.5" gradientUnits="objectBoundingBox">
      <stop offset="0" stop-color="gray" stop-opacity="0.251"/>
      <stop offset="0.54" stop-color="gray" stop-opacity="0.122"/>
      <stop offset="1" stop-color="gray" stop-opacity="0.102"/>
    </linearGradient>
  </defs>
  <g id="Group_32" data-name="Group 32" transform="translate(-69 -198.013)">
    <g id="Group_30" data-name="Group 30" transform="translate(165.123 269.575)" opacity="0.5">
      <path id="Path_147" data-name="Path 147" d="M471.008,402.58l-7.888.163-1.29,1.771v6.118l1.61,1.127h7.568l1.61-1.771v-5.8Z" transform="translate(-461.83 -402.573)" fill="#6ec6ff"/>
      <path id="Path_148" data-name="Path 148" d="M498.428,467.974s-7.245,1.127-7.889,0l.163-.8,7.726-.17Z" transform="translate(-489.415 -467)" fill="#6ec6ff" opacity="0.2"/>
      <path id="Path_149" data-name="Path 149" d="M497.678,542.089l1.287,1.29v6.13l-1.287,1.268s-4.668,1.61-7.728.321l-1.45-1.447v-6.13l1.29-1.45Z" transform="translate(-487.856 -524.372)" fill="#6ec6ff"/>
      <path id="Path_150" data-name="Path 150" d="M501.536,543.6s-5.635,1.287-7.565,0v-1.45h7.888Z" transform="translate(-492.037 -524.433)" fill="#6ec6ff" opacity="0.2"/>
      <path id="Path_151" data-name="Path 151" d="M505.585,501.771v8.709a1.306,1.306,0,0,1-1.367,1.235h0a1.306,1.306,0,0,1-1.367-1.235v-8.709a1.322,1.322,0,0,1,1.528-1.228h0A1.287,1.287,0,0,1,505.585,501.771Z" transform="translate(-498.823 -492.629)" fill="#6ec6ff"/>
      <path id="Path_152" data-name="Path 152" d="M524.6,403.64l-7.888.16-1.29,1.771v6.118l1.61,1.127H524.6l1.61-1.771v-5.8Z" transform="translate(-502.786 -403.383)" fill="#6ec6ff"/>
      <path id="Path_153" data-name="Path 153" d="M552.028,469.054s-7.245,1.127-7.888,0l.16-.8,7.728-.16Z" transform="translate(-530.379 -467.833)" fill="#6ec6ff" opacity="0.2"/>
      <path id="Path_154" data-name="Path 154" d="M551.248,543.2l1.287,1.29v6.13l-1.287,1.275s-4.67,1.61-7.728.321l-1.45-1.448V544.65l1.29-1.45Z" transform="translate(-528.797 -525.235)" fill="#6ec6ff"/>
      <path id="Path_155" data-name="Path 155" d="M555.125,544.65s-5.635,1.287-7.565,0V543.2h7.884Z" transform="translate(-532.993 -525.235)" fill="#6ec6ff" opacity="0.2"/>
      <path id="Path_156" data-name="Path 156" d="M559.127,502.821v8.709a1.309,1.309,0,0,1-1.367,1.235h0a1.309,1.309,0,0,1-1.37-1.235v-8.709a1.323,1.323,0,0,1,1.53-1.228h0a1.287,1.287,0,0,1,1.207,1.228Z" transform="translate(-539.741 -493.431)" fill="#6ec6ff"/>
      <path id="Path_157" data-name="Path 157" d="M598.076,423.39l-6.5.134-1.061,1.457v5.036l1.325.929h6.231l1.325-1.459v-4.772Z" transform="translate(-560.18 -418.477)" fill="#6ec6ff"/>
      <path id="Path_158" data-name="Path 158" d="M624.893,488.637s-5.962.927-6.493,0l.132-.663,6.365-.134Z" transform="translate(-587.132 -482.927)" fill="#6ec6ff" opacity="0.2"/>
      <path id="Path_159" data-name="Path 159" d="M624.248,549.68l1.061,1.061v5.036l-1.061,1.061s-3.843,1.325-6.365.264l-1.193-1.193v-5.036l1.061-1.193Z" transform="translate(-585.825 -530.188)" fill="#6ec6ff"/>
      <path id="Path_160" data-name="Path 160" d="M627.439,550.873s-4.64,1.061-6.229,0V549.68H627.7Z" transform="translate(-589.279 -530.188)" fill="#6ec6ff" opacity="0.2"/>
      <path id="Path_161" data-name="Path 161" d="M630.771,516.418v7.169a1.075,1.075,0,0,1-1.127,1.016h0a1.073,1.073,0,0,1-1.125-1.016v-7.169a1.089,1.089,0,0,1,1.257-1.011h0A1.061,1.061,0,0,1,630.771,516.418Z" transform="translate(-594.866 -503.985)" fill="#6ec6ff"/>
      <path id="Path_162" data-name="Path 162" d="M642.194,424.26l-6.495.132-1.059,1.457v5.038l1.325.927h6.229l1.325-1.457v-4.772Z" transform="translate(-593.899 -419.142)" fill="#6ec6ff"/>
      <path id="Path_163" data-name="Path 163" d="M669.005,489.5s-5.965.929-6.5,0l.132-.662,6.365-.132Z" transform="translate(-620.842 -483.592)" fill="#6ec6ff" opacity="0.2"/>
      <path id="Path_164" data-name="Path 164" d="M668.376,550.55l1.059,1.059v5.036l-1.059,1.061s-3.845,1.325-6.365.266l-1.191-1.186v-5.043l1.061-1.193Z" transform="translate(-619.551 -530.853)" fill="#6ec6ff"/>
      <path id="Path_165" data-name="Path 165" d="M671.549,551.743s-4.637,1.059-6.229,0V550.55h6.5Z" transform="translate(-622.99 -530.853)" fill="#6ec6ff" opacity="0.2"/>
      <path id="Path_166" data-name="Path 166" d="M674.884,517.306v7.167a1.075,1.075,0,0,1-1.127,1.016h0a1.075,1.075,0,0,1-1.127-1.016v-7.167a1.091,1.091,0,0,1,1.259-1.009h0A1.059,1.059,0,0,1,674.884,517.306Z" transform="translate(-628.576 -504.67)" fill="#6ec6ff"/>
    </g>
    <path id="Path_333" data-name="Path 333" d="M312.618,266.156a3.979,3.979,0,0,0-2.452-1.8,8.958,8.958,0,0,0-3.084-.193,27.117,27.117,0,0,0-4.934.813,5.142,5.142,0,0,0-2.718,1.415c-.019.024-.04.052-.061.075-1.035.271-2.063.688-3.065,1.028a28.771,28.771,0,0,1-3.065.832,18.153,18.153,0,0,0,3.793-2.676,10.721,10.721,0,0,0,1.415-1.688,5.614,5.614,0,0,0,2.358.158,8.514,8.514,0,0,0,4.086-2.527l3.859-3.55a7.825,7.825,0,0,0,1.65-1.886,7.38,7.38,0,0,0,.618-3.433c.019-1.617,0-3.235-.047-4.85l1.221.943a10.813,10.813,0,0,1,1.07-5.79,6.46,6.46,0,0,0,.993-2.666c.019-1.481-1.254-2.645-2.558-3.3a15.166,15.166,0,0,1-3.838-2.082c-1.589-1.5-1.886-3.885-2.671-5.936a23.584,23.584,0,0,0-1.65-3.246l-1.528-2.664a37.757,37.757,0,0,0-2.565-4.053,37.174,37.174,0,0,0-5.578-5.533l-10.336-8.9a97.113,97.113,0,0,0-7.754-6.231c-5.514-3.845-11.736-6.486-17.917-9.1A11.346,11.346,0,0,0,253,188.062a5.556,5.556,0,0,0-3.4,1.457,20.332,20.332,0,0,1-2.593-.985l-.066-.031c.019-.139.04-.276.054-.415.021-.184.033-.368.047-.554a4.326,4.326,0,0,0,1.334-.436,1.6,1.6,0,0,0,.549-.427,1.955,1.955,0,0,0,.281-1.044,46.821,46.821,0,0,0,.174-7.4,15.662,15.662,0,0,0-2.122-7.018,3.644,3.644,0,0,0-1.608-1.556c-.943-.377-2.035-.026-3.041-.2-1.742-.295-2.829-2-4.09-3.256a9.921,9.921,0,0,0-12.328-1.084,36.037,36.037,0,0,0-3.758,3.475,8.338,8.338,0,0,1-4.385,2.457,2.136,2.136,0,0,0-.889.236,1.831,1.831,0,0,0-.632,1.021,18.054,18.054,0,0,0-1.068,4.1c-.016-.085-.031-.17-.045-.255a8,8,0,0,0-.04,1.558,4.548,4.548,0,0,0,.561,1.886,2.558,2.558,0,0,0,1.29,1.231,3.513,3.513,0,0,0,1.242.2h.186c-.068.181-.134.363-.2.547a15.088,15.088,0,0,0-.79,4.835,14.824,14.824,0,0,0,14.714,14.938,14.663,14.663,0,0,0,2.912-.306c.318.1.637.205.943.316a17.682,17.682,0,0,1,1.844.726c.255.12,1.285.721,2.53,1.5h0l-.085.177a9.369,9.369,0,0,0-2.709,9.06c.9,3.506,3.855,6.512,3.558,10.121a6.178,6.178,0,0,0-.064,1.544,3.742,3.742,0,0,0,1.077,1.806c.415.457.846.9,1.285,1.334-.035,2.3-.236,4.6-.453,6.9-.019.2-.024.4-.026.608a4.244,4.244,0,0,0,1.018,2.7,4.386,4.386,0,0,1,.828,3.192,22.024,22.024,0,0,1-1.5,4.55c-2.372,6.8.542,14.461-1.1,21.48a30.5,30.5,0,0,0-1.179,5.187,9.741,9.741,0,0,1-.306,3.3,6.191,6.191,0,0,1-1.87,2.16q-1.544,1.323-3.008,2.735a41.643,41.643,0,0,0-4.56-2.145,8.188,8.188,0,0,0-.778-.269,33.609,33.609,0,0,0-6.351-4.1c-1.811-1.049-3.536-2.228-5.272-3.407a29.482,29.482,0,0,1-4.732-3.727c-.707-.736-1.337-1.547-2.1-2.218a17.846,17.846,0,0,0-2.122-1.518,85.255,85.255,0,0,1-9.543-7.179c-2.294-1.99-4.171-4.552-6.622-6.337-1.5-1.094-3.249-2.091-5.088-1.886a4.854,4.854,0,0,0-1.676.516,4.383,4.383,0,0,0-1.537-.344,7.849,7.849,0,0,0-4.149,1.544q-11.316,6.877-22.986,13.141c-1.57.844-3.15,1.681-4.649,2.648a31.574,31.574,0,0,0-7.672,6.995c-.4.5-.9,1.073-1.525,1a1.362,1.362,0,0,1-.488-.174,6.136,6.136,0,0,1-2.122-2.506,7.972,7.972,0,0,0-1.438-1.983h0a4.187,4.187,0,0,0-.5-.943c.837-2.065,1.558-4.18,2.228-6.309.349-1.117.686-2.242,1.132-3.327,1.1-2.683,2.85-5.114,3.47-7.952.149-.686.236-1.391.351-2.084a14.762,14.762,0,1,0-10.67-2.03v.082a10.436,10.436,0,0,1-.139,1.415,17.905,17.905,0,0,1-1.62,4.505c-.448.964-.9,1.933-1.36,2.9a2.684,2.684,0,0,1-.644-.217,1.948,1.948,0,0,1-.724-1.136,40.663,40.663,0,0,0-2.445-5.719,9.9,9.9,0,0,0-1.415-2.171,11.924,11.924,0,0,0-3.675-2.388c-.236-.113-.455-.236-.681-.344a5.829,5.829,0,0,0-.613-.4,15.491,15.491,0,0,1-3.227-1.933c-.686-.651-1.158-1.5-1.8-2.188a11.481,11.481,0,0,0-3.973-2.428,5.27,5.27,0,0,0-2.341-.613,2.8,2.8,0,0,0-.342.038,5.418,5.418,0,0,0-.58.132,3.155,3.155,0,0,1-.523-.349,5.17,5.17,0,0,1-1.5-2.909,13.6,13.6,0,0,1-.677-5.51,8.343,8.343,0,0,1,.207-.943c.073-.12.144-.236.207-.365a12.3,12.3,0,0,0,6.439-18.969c-.12-.165-.236-.325-.37-.486l.141-.078a3.369,3.369,0,0,0,1-4.121,7.434,7.434,0,0,0-3.185-3.209c-.189-.115-.38-.224-.573-.332l-.165-.09c-.146-.08-.29-.158-.436-.236l-.172-.087c-.172-.087-.344-.17-.516-.25l-.078-.038c-.215-.1-.429-.191-.646-.281h0c-.21-.087-.42-.167-.632-.236l-.087-.033c-.2-.073-.4-.141-.606-.207l-.045-.014a15.848,15.848,0,0,0-4.588-.773,26.527,26.527,0,0,0-8.782,1.721,15.131,15.131,0,0,0-5.816,4.362,5.6,5.6,0,0,0-.971.16,9.762,9.762,0,0,0-3.473,1.841,11.08,11.08,0,0,0-2.31,2.292,9.888,9.888,0,0,0-1.558,3.718c-.894,4.18.205,8.487,1.014,12.688s1.275,8.78-.707,12.549c-.747,1.415-1.808,2.643-2.593,4.031a6.119,6.119,0,0,0-.877,4.6c.549,1.87,2.358,3.046,3.3,4.743a5.813,5.813,0,0,1-.644,6.365c-.064.075-.127.151-.2.236a2.36,2.36,0,0,1-.255.255,5.337,5.337,0,0,0,4.479-.879A7.953,7.953,0,0,0,87.546,252c1.686-2.768.929-6.347,1.523-9.546.78-4.189,3.93-7.926,3.5-12.167-.292-2.846-2.15-5.224-3.609-7.672a30.347,30.347,0,0,1-2.428-5.168l-.08-.236h0a7.594,7.594,0,0,1-.535-3.772,5.276,5.276,0,0,1,.368-1.2v.137a9.254,9.254,0,0,0,.8,3.562c1.473,3.065,5.019,4.479,7.271,6.964.094.1.184.21.273.318.026.028.049.059.073.09l.191.236.08.111c.059.082.118.165.172.25l.073.106c.075.12.151.236.222.365a5.614,5.614,0,0,0,1.4-2.122c.021-.071.035-.144.049-.217.019.019.035.04.054.061.045.252.08.5.113.759h0a5.123,5.123,0,0,0,.116,1.082,47.61,47.61,0,0,1-.116,6.858c-.08,1.214.236,3.018-.538,3.923l-.024.026a1.245,1.245,0,0,1-.149.146h0c-.132.137-.266.271-.391.413a16.411,16.411,0,0,0-3.711,11.048c.061,4.524,1.506,8.907,3.145,13.115a36.822,36.822,0,0,0,2.018,4.479,7.823,7.823,0,0,0,1.558,2.1,9.392,9.392,0,0,0,2.263,1.351c.2.094.4.186.6.283l.507.236,3.859,1.834c.707,1.04,1.391,2.108,2.082,3.178.1.151.2.306.3.457.754,1.179,1.514,2.358,2.287,3.5l6.5,9.633a8.116,8.116,0,0,0,1.627,1.938,3.322,3.322,0,0,0,.608.38,3.177,3.177,0,0,0,.337.139,1.075,1.075,0,0,0-.172.728,1.233,1.233,0,0,0,.472.615c1.471,1.216,3.1,2.5,3.567,4.369.328,1.332,0,2.758.295,4.1.54,2.414,2.928,3.878,5.187,4.807a29.057,29.057,0,0,0,16.062,1.912,23.464,23.464,0,0,0,13.969-8.016c1.07-1.316,1.983-2.751,3-4.109a34.42,34.42,0,0,1,2.289-2.749,18.89,18.89,0,0,0,2.5-1.382,48.29,48.29,0,0,0,4.715-3.923c1.158-1.009,2.369-1.961,3.433-3.065a35.931,35.931,0,0,0,2.671-3.3q2.829-3.749,5.844-7.349a11.645,11.645,0,0,1,3.716-3.3l.068-.028a8.507,8.507,0,0,0,1.6,2.864c2.428,3.772,4.97,7.655,8.723,10.06a27.883,27.883,0,0,0,6.7,2.857c5.894,1.862,11.882,3.324,17.875,4.788.2-.377.391-.726.608-1.066a3.239,3.239,0,0,1,.259.311c.026.038.047.078.073.116a.856.856,0,0,0-.127.035,1.676,1.676,0,0,0-.846.891,9.9,9.9,0,0,0-.738,4.244c-.021,1.415,0,2.829,0,4.244a3.661,3.661,0,0,0,.236,1.551,3.209,3.209,0,0,0,2.659,1.415,22.229,22.229,0,0,0,5.422-.212,4.177,4.177,0,0,0,.5,1.2,8.566,8.566,0,0,0,4.564,3.378,40.538,40.538,0,0,0,5.618,1.268c3.345.665,6.769,1.728,10.1.978,1.327-.3,2.593-.879,3.921-1.134,3.039-.575,6.189.589,9.249.123a14.535,14.535,0,0,0,4.215-1.5,5.781,5.781,0,0,0,1.8-1.245,2.259,2.259,0,0,0,.582-2.049,8.282,8.282,0,0,0-.556-1.146,6.091,6.091,0,0,1-.4-1.933,53.081,53.081,0,0,0-1.268-7.431c-.017-.068-.035-.139-.054-.21a32.138,32.138,0,0,0,6.431-3.791l4.4-3.079a26.144,26.144,0,0,1,4.453-2.7,19.281,19.281,0,0,1,7.794-1.374c1.087,0,2.176.054,3.258.153a1.414,1.414,0,0,0-.3.523,1.941,1.941,0,0,0,.639,1.907,8.4,8.4,0,0,0,1.78,1.113,10.769,10.769,0,0,1,4.008,3.939,4.3,4.3,0,0,1,.66,3.43c-.472,1.429-2.152,2.414-2.056,3.918a2.412,2.412,0,0,0,1.584,1.947,6.4,6.4,0,0,0,2.593.3,9.856,9.856,0,0,0,4.2-.809,10.876,10.876,0,0,0,2.317-1.763,6.729,6.729,0,0,0,1.7-2.037,6.2,6.2,0,0,0,.42-2.468c.071-3.951-.611-7.957.174-11.828.236-1.179.613-2.332.813-3.52a24.79,24.79,0,0,0,.075-5.686A6.215,6.215,0,0,0,312.618,266.156Z" transform="translate(-9.052 34.555)" fill="url(#linear-gradient)"/>
    <path id="Path_334" data-name="Path 334" d="M746.914,325.41a3.916,3.916,0,0,0-1.367,2.945c-.5,4.732,1.45,9.416,1.32,14.171-.1,3.784-1.514,7.393-2.9,10.913a64.953,64.953,0,0,0-4.086,18.964c-.479,6.438-1.179,13.143-4.635,18.589-.785,1.233-1.7,2.379-2.469,3.619-.806,1.3-1.445,2.688-2.157,4.036a43.433,43.433,0,0,1-8.016,10.767,11.063,11.063,0,0,1-3.145,2.341,6.332,6.332,0,0,1-4.918.052,4.7,4.7,0,0,1-3.037-3.916,6.973,6.973,0,0,1,1.806-4.218,69.229,69.229,0,0,1,10.845-11.5,6.242,6.242,0,0,0,1.886-2.138,9.558,9.558,0,0,0,.306-3.27,28.753,28.753,0,0,1,1.179-5.135c1.65-6.952-1.282-14.544,1.1-21.279a21.449,21.449,0,0,0,1.5-4.505,4.282,4.282,0,0,0-.832-3.164,4.159,4.159,0,0,1-1.021-2.678,5.114,5.114,0,0,1,.023-.6,64.99,64.99,0,0,0,.417-9.282,21.764,21.764,0,0,0-2.2-8.959,25.439,25.439,0,0,1-2.155-4.3c-.736-2.492-.057-5.187,1.04-7.544a13.161,13.161,0,0,1,3.59-4.864,9.618,9.618,0,0,1,10.635-.677,15.706,15.706,0,0,1,5.354,6.281C745.936,321.853,746.928,323.369,746.914,325.41Z" transform="translate(-493.159 -79.345)" opacity="0.06"/>
    <path id="Path_335" data-name="Path 335" d="M757.379,259.662q-.679,1.832-1.351,3.664c-.3.8-.592,1.61-.9,2.412a37.431,37.431,0,0,1-5.472,10.387c.37-.457-3.112-2.758-5.679-4.328-1.252-.771-2.289-1.365-2.544-1.483a18.588,18.588,0,0,0-1.855-.721c-.979-.33-1.969-.615-2.947-.971-2.263-.818-.681-2.046.288-3.367,3.171-4.324,3.772-10.232,7.372-14.2a13.275,13.275,0,0,0,5.96,5.764c.05.026.1.05.153.071,2.138,1,4.5,1.431,6.712,2.268.12.045.259.108.3.236A.469.469,0,0,1,757.379,259.662Z" transform="translate(-511.481 -32.387)" fill="#a1616a"/>
    <path id="Path_336" data-name="Path 336" d="M796.074,615.259a10.635,10.635,0,0,0-1.1,10.177,3.451,3.451,0,0,0,.795,1.228,3.719,3.719,0,0,0,1.516.707c4.682,1.332,9.68,1.07,14.475.236a25.471,25.471,0,0,0,4.767-1.214,31.857,31.857,0,0,0,6.587-3.805l4.428-3.051a26.832,26.832,0,0,1,4.479-2.674,19.691,19.691,0,0,1,7.839-1.36,36.579,36.579,0,0,1,6.837.653c1.5.29,3.3.589,4.357-.507a4.125,4.125,0,0,0,.9-2.383,35.518,35.518,0,0,0-.026-10.036,1.305,1.305,0,0,0-.29-.766,1.182,1.182,0,0,0-.585-.266c-2.087-.472-4.18.507-6.208,1.179-4.213,1.4-8.737,1.568-13.023,2.721-4.5,1.209-8.723,3.5-13.372,3.963-2.216.222-4.442.028-6.662.078-2.061.045-3.982.757-6,.842C801.9,611.152,798.519,611.831,796.074,615.259Z" transform="translate(-556.332 -300.655)" fill="#a1616a"/>
    <path id="Path_337" data-name="Path 337" d="M796.074,615.259a10.635,10.635,0,0,0-1.1,10.177,3.451,3.451,0,0,0,.795,1.228,3.719,3.719,0,0,0,1.516.707c4.682,1.332,9.68,1.07,14.475.236a25.471,25.471,0,0,0,4.767-1.214,31.857,31.857,0,0,0,6.587-3.805l4.428-3.051a26.832,26.832,0,0,1,4.479-2.674,19.691,19.691,0,0,1,7.839-1.36,36.579,36.579,0,0,1,6.837.653c1.5.29,3.3.589,4.357-.507a4.125,4.125,0,0,0,.9-2.383,35.518,35.518,0,0,0-.026-10.036,1.305,1.305,0,0,0-.29-.766,1.182,1.182,0,0,0-.585-.266c-2.087-.472-4.18.507-6.208,1.179-4.213,1.4-8.737,1.568-13.023,2.721-4.5,1.209-8.723,3.5-13.372,3.963-2.216.222-4.442.028-6.662.078-2.061.045-3.982.757-6,.842C801.9,611.152,798.519,611.831,796.074,615.259Z" transform="translate(-556.332 -300.655)" opacity="0.06"/>
    <path id="Path_338" data-name="Path 338" d="M817.983,530.475a3.2,3.2,0,0,0-.054,1.582,2.947,2.947,0,0,0,.943,1.268c4.008,3.588,9.734,4.331,15.089,4.913a11.423,11.423,0,0,0,8.1-1.33,35.831,35.831,0,0,0,7.424-4.277c2.181-1.768,3.93-4.031,6.189-5.7,2.567-1.886,5.724-2.966,8.016-5.187a10.775,10.775,0,0,0,3.143-5.955,16.992,16.992,0,0,0,0-4.691,13.955,13.955,0,0,0-1.339-5.208,12.592,12.592,0,0,0-4.4-4.369,22.838,22.838,0,0,0-12.5-3.866c-6.13.054-11.788,3.621-16.187,7.627a47.643,47.643,0,0,0-11.08,15.072A46.026,46.026,0,0,0,817.983,530.475Z" transform="translate(-574.436 -220.854)" fill="#464353"/>
    <path id="Path_339" data-name="Path 339" d="M817.983,530.475a3.2,3.2,0,0,0-.054,1.582,2.947,2.947,0,0,0,.943,1.268c4.008,3.588,9.734,4.331,15.089,4.913a11.423,11.423,0,0,0,8.1-1.33,35.831,35.831,0,0,0,7.424-4.277c2.181-1.768,3.93-4.031,6.189-5.7,2.567-1.886,5.724-2.966,8.016-5.187a10.775,10.775,0,0,0,3.143-5.955,16.992,16.992,0,0,0,0-4.691,13.955,13.955,0,0,0-1.339-5.208,12.592,12.592,0,0,0-4.4-4.369,22.838,22.838,0,0,0-12.5-3.866c-6.13.054-11.788,3.621-16.187,7.627a47.643,47.643,0,0,0-11.08,15.072A46.026,46.026,0,0,0,817.983,530.475Z" transform="translate(-574.436 -220.854)" opacity="0.06"/>
    <path id="Path_340" data-name="Path 340" d="M746.914,325.41a3.916,3.916,0,0,0-1.367,2.945c-.5,4.732,1.45,9.416,1.32,14.171-.1,3.784-1.514,7.393-2.9,10.913a64.953,64.953,0,0,0-4.086,18.964c-.479,6.438-1.179,13.143-4.635,18.589-.785,1.233-1.7,2.379-2.469,3.619-.806,1.3-1.445,2.688-2.157,4.036a43.433,43.433,0,0,1-8.016,10.767,11.063,11.063,0,0,1-3.145,2.341,6.332,6.332,0,0,1-4.918.052,4.7,4.7,0,0,1-3.037-3.916,6.973,6.973,0,0,1,1.806-4.218,69.229,69.229,0,0,1,10.845-11.5,6.242,6.242,0,0,0,1.886-2.138,9.558,9.558,0,0,0,.306-3.27,28.753,28.753,0,0,1,1.179-5.135c1.65-6.952-1.282-14.544,1.1-21.279a21.449,21.449,0,0,0,1.5-4.505,4.282,4.282,0,0,0-.832-3.164,4.159,4.159,0,0,1-1.021-2.678,5.114,5.114,0,0,1,.023-.6,64.99,64.99,0,0,0,.417-9.282,21.764,21.764,0,0,0-2.2-8.959,25.439,25.439,0,0,1-2.155-4.3c-.736-2.492-.057-5.187,1.04-7.544a13.161,13.161,0,0,1,3.59-4.864,9.618,9.618,0,0,1,10.635-.677,15.706,15.706,0,0,1,5.354,6.281C745.936,321.853,746.928,323.369,746.914,325.41Z" transform="translate(-493.159 -79.345)" fill="#a1616a"/>
    <ellipse id="Ellipse_59" data-name="Ellipse 59" cx="8.923" cy="14.002" rx="8.923" ry="14.002" transform="translate(231.807 233.9)" fill="#a1616a"/>
    <path id="Path_341" data-name="Path 341" d="M703.493,659.413a3.112,3.112,0,0,1,.471,2.593,4.534,4.534,0,0,0,2.9.844,8.958,8.958,0,0,0,2.982-.686,9.849,9.849,0,0,0,2.32-1.216,10.224,10.224,0,0,0,2.829-3.56c.4-.745.738-1.709.236-2.379a2.284,2.284,0,0,0-.707-.547,41.973,41.973,0,0,0-5.658-2.69,4.158,4.158,0,0,0-1.707-.382,3.658,3.658,0,0,0-1.957.88,10.608,10.608,0,0,0-3.046,3.772c-.222.471-.891,1.592-.559,2.077.151.224.707.3.943.443A3.05,3.05,0,0,1,703.493,659.413Z" transform="translate(-485.521 -338.344)" fill="#fbbebe"/>
    <path id="Path_342" data-name="Path 342" d="M703.493,659.413a3.112,3.112,0,0,1,.471,2.593,4.534,4.534,0,0,0,2.9.844,8.958,8.958,0,0,0,2.982-.686,9.849,9.849,0,0,0,2.32-1.216,10.224,10.224,0,0,0,2.829-3.56c.4-.745.738-1.709.236-2.379a2.284,2.284,0,0,0-.707-.547,41.973,41.973,0,0,0-5.658-2.69,4.158,4.158,0,0,0-1.707-.382,3.658,3.658,0,0,0-1.957.88,10.608,10.608,0,0,0-3.046,3.772c-.222.471-.891,1.592-.559,2.077.151.224.707.3.943.443A3.05,3.05,0,0,1,703.493,659.413Z" transform="translate(-485.521 -338.344)" opacity="0.03"/>
    <path id="Path_343" data-name="Path 343" d="M710.984,662.236c3.989.74,7.657,2.669,11.578,3.708a38.483,38.483,0,0,1,4.736,1.325,6.447,6.447,0,0,1,3.6,3.178,9.1,9.1,0,0,1,.544,2.245,4.281,4.281,0,0,1-.337,3.192c-.681.943-1.969,1.151-3.121,1.29-4.145.493-8.289.988-12.448,1.337a21.77,21.77,0,0,0-2.511.3c-.684.137-1.351.344-2.03.5-.88.205-1.773.335-2.664.471a27.491,27.491,0,0,1-6.875.406,3.2,3.2,0,0,1-2.673-1.4,3.56,3.56,0,0,1-.236-1.537c-.012-1.4-.024-2.8,0-4.2a9.519,9.519,0,0,1,.743-4.206,1.671,1.671,0,0,1,.851-.884,1.955,1.955,0,0,1,.731-.066,8.631,8.631,0,0,1,3.591.641c.87.432,1.577,1.151,2.464,1.542,1.678.745,3.7.21,5.4.91a6.765,6.765,0,0,0,.012-3.708,28.824,28.824,0,0,1-.832-3.758,2.4,2.4,0,0,0-.16-.82C711.22,662.451,711.263,662.2,710.984,662.236Z" transform="translate(-483.25 -346.63)" fill="#464353"/>
    <path id="Path_344" data-name="Path 344" d="M710.984,662.236c3.989.74,7.657,2.669,11.578,3.708a38.483,38.483,0,0,1,4.736,1.325,6.447,6.447,0,0,1,3.6,3.178,9.1,9.1,0,0,1,.544,2.245,4.281,4.281,0,0,1-.337,3.192c-.681.943-1.969,1.151-3.121,1.29-4.145.493-8.289.988-12.448,1.337a21.77,21.77,0,0,0-2.511.3c-.684.137-1.351.344-2.03.5-.88.205-1.773.335-2.664.471a27.491,27.491,0,0,1-6.875.406,3.2,3.2,0,0,1-2.673-1.4,3.56,3.56,0,0,1-.236-1.537c-.012-1.4-.024-2.8,0-4.2a9.519,9.519,0,0,1,.743-4.206,1.671,1.671,0,0,1,.851-.884,1.955,1.955,0,0,1,.731-.066,8.631,8.631,0,0,1,3.591.641c.87.432,1.577,1.151,2.464,1.542,1.678.745,3.7.21,5.4.91a6.765,6.765,0,0,0,.012-3.708,28.824,28.824,0,0,1-.832-3.758,2.4,2.4,0,0,0-.16-.82C711.22,662.451,711.263,662.2,710.984,662.236Z" transform="translate(-483.25 -346.63)" opacity="0.06"/>
    <path id="Path_345" data-name="Path 345" d="M175.1,444.467c-.8-.255-1.58.457-2.03,1.179a10.558,10.558,0,0,0-.222,10.02,7.606,7.606,0,0,0,1.452,2.162,13.987,13.987,0,0,0,2.829,1.886,21.285,21.285,0,0,1,6.78,6.365c1.153,1.7,2.061,3.569,3.369,5.151,3.22,3.895,8.513,5.658,11.637,9.619a12.252,12.252,0,0,0,2.376,2.723,4.041,4.041,0,0,0,6.325-3.131,45.423,45.423,0,0,0,3.152-5.7,67.819,67.819,0,0,0,3.536-9.164c.351-1.108.691-2.223,1.139-3.3,1.106-2.659,2.867-5.066,3.489-7.877a33.982,33.982,0,0,1,.674-3.393,6.457,6.457,0,0,1,1.622-2.593c2.452-2.383,3.772-5.856,5.722-8.662a18.7,18.7,0,0,0,2.138-3.548,5.613,5.613,0,0,0,.236-4.048,3.376,3.376,0,0,0-3.145-2.27,4.777,4.777,0,0,0-1.766.542A19.674,19.674,0,0,0,219.248,434a25.035,25.035,0,0,0-1.886,2.028c-2.881,3.442-5.135,7.62-5.333,12.1-.066,1.537.057,3.242-.919,4.432-2.692,3.289-3.558,7.811-5.854,11.389-1.063,1.65-2.282,3.359-4.1,4.112a1.75,1.75,0,0,1-.863.17c-.726-.083-1.143-.846-1.45-1.511a58.5,58.5,0,0,0-4.147-7.485,7.129,7.129,0,0,0-2.287-2.464c-.674-.375-1.457-.542-2.091-.981a6.193,6.193,0,0,1-1.806-2.624,40.767,40.767,0,0,0-5.613-8.751c-1.023-1.219-2.372-2.478-3.951-2.3C177.444,442.294,176.524,443.876,175.1,444.467Z" transform="translate(-80.622 -169.06)" fill="#fbbebe"/>
    <path id="Path_346" data-name="Path 346" d="M175.1,444.467c-.8-.255-1.58.457-2.03,1.179a10.558,10.558,0,0,0-.222,10.02,7.606,7.606,0,0,0,1.452,2.162,13.987,13.987,0,0,0,2.829,1.886,21.285,21.285,0,0,1,6.78,6.365c1.153,1.7,2.061,3.569,3.369,5.151,3.22,3.895,8.513,5.658,11.637,9.619a12.252,12.252,0,0,0,2.376,2.723,4.041,4.041,0,0,0,6.325-3.131,45.423,45.423,0,0,0,3.152-5.7,67.819,67.819,0,0,0,3.536-9.164c.351-1.108.691-2.223,1.139-3.3,1.106-2.659,2.867-5.066,3.489-7.877a33.982,33.982,0,0,1,.674-3.393,6.457,6.457,0,0,1,1.622-2.593c2.452-2.383,3.772-5.856,5.722-8.662a18.7,18.7,0,0,0,2.138-3.548,5.613,5.613,0,0,0,.236-4.048,3.376,3.376,0,0,0-3.145-2.27,4.777,4.777,0,0,0-1.766.542A19.674,19.674,0,0,0,219.248,434a25.035,25.035,0,0,0-1.886,2.028c-2.881,3.442-5.135,7.62-5.333,12.1-.066,1.537.057,3.242-.919,4.432-2.692,3.289-3.558,7.811-5.854,11.389-1.063,1.65-2.282,3.359-4.1,4.112a1.75,1.75,0,0,1-.863.17c-.726-.083-1.143-.846-1.45-1.511a58.5,58.5,0,0,0-4.147-7.485,7.129,7.129,0,0,0-2.287-2.464c-.674-.375-1.457-.542-2.091-.981a6.193,6.193,0,0,1-1.806-2.624,40.767,40.767,0,0,0-5.613-8.751c-1.023-1.219-2.372-2.478-3.951-2.3C177.444,442.294,176.524,443.876,175.1,444.467Z" transform="translate(-80.622 -169.06)" opacity="0.03"/>
    <ellipse id="Ellipse_60" data-name="Ellipse 60" cx="6.215" cy="5.609" rx="6.215" ry="5.609" transform="translate(88.103 252.926)" fill="#fbbebe"/>
    <ellipse id="Ellipse_61" data-name="Ellipse 61" cx="2.237" cy="2.237" rx="2.237" ry="2.237" transform="translate(97.908 255.144)" fill="#fbbebe"/>
    <ellipse id="Ellipse_62" data-name="Ellipse 62" cx="8.56" cy="2.289" rx="8.56" ry="2.289" transform="translate(86.573 253.956)" fill="#fbbebe"/>
    <path id="Path_347" data-name="Path 347" d="M146.875,348.185a15.513,15.513,0,0,1,.49,2.016,12.038,12.038,0,0,1-1.853-2.435,1.812,1.812,0,0,1-.328-.519,13.848,13.848,0,0,1-1.285-5.524,12.108,12.108,0,1,1,15.291,11.682,15.129,15.129,0,0,0,.943-3.6,2.593,2.593,0,0,0-.174-1.214,2.767,2.767,0,0,0-.889-1.023,7.678,7.678,0,0,0-4.781-1.452,13.12,13.12,0,0,0-4.915,1.179c-.488.21-1.073.493-1.65.686A4.292,4.292,0,0,1,146.875,348.185Z" transform="translate(-59.375 -92.428)" fill="#fbbebe"/>
    <path id="Path_348" data-name="Path 348" d="M186.868,441.419a4.13,4.13,0,0,1-3.89,1.511,13.277,13.277,0,0,1-7.285-3.395c-2.1-1.745-3.932-3.772-6.078-5.451a21.571,21.571,0,0,0-13.565-4.458c.993-.823.627-2.775.707-4.057a39.663,39.663,0,0,0,0-7.811c-.035-.276-.075-.547-.123-.818.08.085.165.167.252.252a12.122,12.122,0,0,0,11.573,2.952,9.432,9.432,0,0,0-.3,1.254,13.156,13.156,0,0,0,.681,5.455,5.1,5.1,0,0,0,1.509,2.881,6.642,6.642,0,0,0,1.966.832,10.846,10.846,0,0,1,3.664,2.122,29.642,29.642,0,0,0,2.214,1.983,15.4,15.4,0,0,0,2.393,1.235,29.94,29.94,0,0,1,5.753,3.487,1.886,1.886,0,0,1,.747.887A1.457,1.457,0,0,1,186.868,441.419Z" transform="translate(-68.661 -159.167)" fill="#fbbebe"/>
    <path id="Path_349" data-name="Path 349" d="M187.437,501.15c-.163,1.075-1.148,1.914-1.844,2.749-1.891,2.282-3.807,4.571-5.922,6.66a92.668,92.668,0,0,1-7.231,6.212l-3.22,2.577a4.058,4.058,0,0,1-1.37.825,2.5,2.5,0,0,1-1.763-.21,3.458,3.458,0,0,1-.611-.375,8.275,8.275,0,0,1-1.636-1.922q-3.268-4.77-6.542-9.541c-.778-1.136-1.542-2.3-2.3-3.47-.1-.151-.2-.3-.3-.455-.693-1.061-1.384-2.122-2.094-3.147l-3.881-1.818-.509-.236-.6-.281a9.526,9.526,0,0,1-2.275-1.337,7.7,7.7,0,0,1-1.568-2.077,36.348,36.348,0,0,1-2.032-4.449c-1.65-4.166-3.1-8.508-3.164-12.992a16.053,16.053,0,0,1,3.732-10.942,11.742,11.742,0,0,1,1.153-1.117,2.061,2.061,0,0,1,1.674-.578c.648.092,1.264.186,1.886.292q2.574.443,5.109,1.084a10.579,10.579,0,0,0,4.64.523c.248-.049.493-.12.738-.184.2-.052.4-.1.6-.134a2.8,2.8,0,0,1,.344-.038,5.414,5.414,0,0,1,2.358.608,11.716,11.716,0,0,1,4.008,2.4c.646.684,1.12,1.523,1.808,2.167a15.627,15.627,0,0,0,3.249,1.917,5.836,5.836,0,0,1,.615.394,6.988,6.988,0,0,1,1.179,1.12h0c1.429,1.686,2.277,3.961,3.855,5.637a23.014,23.014,0,0,1,3.268,4.425c.149.266.292.535.434.809q.354.683.658,1.384c.052.12.1.236.151.361a21.626,21.626,0,0,1,.776,2.162c.535,1.78.891,3.7,2.079,5.13a25.73,25.73,0,0,0,2.949,2.506,5.218,5.218,0,0,1,1.433,1.95A2.787,2.787,0,0,1,187.437,501.15Z" transform="translate(-55.304 -196.056)" fill="#fbbebe"/>
    <path id="Path_350" data-name="Path 350" d="M193.008,488.733q-.406.512-.832,1.009c-.047.061-.1.12-.151.179a45.028,45.028,0,0,1-8.454,7.664c-1.938,1.353-3.982,2.553-6.021,3.751l-3.772,2.209a23.356,23.356,0,0,1-4.925,2.393c-.561.167-1.148.3-1.721.46-.1-.151-.2-.3-.3-.455-.693-1.061-1.384-2.122-2.094-3.147l-3.881-1.818a22.729,22.729,0,0,0,5.625-5.04,61.13,61.13,0,0,0,5.958-9.515,7.152,7.152,0,0,0,.733-1.7,5.837,5.837,0,0,0-.252-3,15.8,15.8,0,0,0-6.318-8.518,29.86,29.86,0,0,0-6.936-3.1,11.674,11.674,0,0,0-5.217-.9,11.46,11.46,0,0,1,1.153-1.115,2.055,2.055,0,0,1,1.674-.58c.648.092,1.264.186,1.886.295,1.261.387,2.5.849,3.734,1.325a17.515,17.515,0,0,1,2.358,1.068,21.115,21.115,0,0,1,2.171,1.521,54.243,54.243,0,0,0,6.441,4.222c2.593,1.431,5.316,2.593,8.037,3.772a2.139,2.139,0,0,0,.931.236.731.731,0,0,0,.707-.552.889.889,0,0,0-.113-.493,4.915,4.915,0,0,0-2.511-1.919,60.793,60.793,0,0,1-11.057-7.532,1.112,1.112,0,0,1-.222-.236l.6-.134a89.945,89.945,0,0,0,12.365,7.455q.342.174.686.34c.165.083.328.163.5.236h0a10.553,10.553,0,0,1,3.2,2.122,9.773,9.773,0,0,1,1.415,2.148,40.365,40.365,0,0,1,2.461,5.658,1.285,1.285,0,0,0,.045.123,2.178,2.178,0,0,0,.434.809.917.917,0,0,0,.248.2C192.034,488.427,192.643,488.4,193.008,488.733Z" transform="translate(-67.438 -197.799)" opacity="0.06"/>
    <path id="Path_351" data-name="Path 351" d="M170.253,466.81a89.7,89.7,0,0,0,12.365,7.452l.686.342a12.213,12.213,0,0,1,3.7,2.358,9.839,9.839,0,0,1,1.415,2.15,39.969,39.969,0,0,1,2.459,5.658,1.914,1.914,0,0,0,.729,1.127c.4.222,1.037.205,1.393.54-.321.4-.646.8-.983,1.179a44.964,44.964,0,0,1-8.454,7.667c-1.938,1.353-3.982,2.553-6.021,3.751l-3.772,2.209a23.464,23.464,0,0,1-4.925,2.391c-.658.2-1.353.351-2.02.545-.693-1.061-1.384-2.122-2.094-3.147l-4.39-2.056a22.093,22.093,0,0,0,6.13-5.342,60.993,60.993,0,0,0,5.958-9.513,7.2,7.2,0,0,0,.733-1.7,5.846,5.846,0,0,0-.252-3,15.8,15.8,0,0,0-6.3-8.494,29.957,29.957,0,0,0-6.936-3.1,11.67,11.67,0,0,0-5.217-.9,11.745,11.745,0,0,1,1.153-1.117,2.062,2.062,0,0,1,1.674-.578c.648.092,1.264.186,1.886.292,1.261.389,2.5.851,3.734,1.327a17.209,17.209,0,0,1,2.358,1.068,21.092,21.092,0,0,1,2.171,1.521,54.224,54.224,0,0,0,6.45,4.211c2.593,1.433,5.316,2.605,8.037,3.772a2.133,2.133,0,0,0,.931.236.726.726,0,0,0,.707-.552.884.884,0,0,0-.113-.49,4.9,4.9,0,0,0-2.511-1.919,60.38,60.38,0,0,1-11.057-7.544,1.043,1.043,0,0,1-.222-.236Z" transform="translate(-67.438 -196.056)" fill="#6ec6ff"/>
    <ellipse id="Ellipse_63" data-name="Ellipse 63" cx="14.798" cy="14.798" rx="14.798" ry="14.798" transform="translate(121.048 253.956)" fill="#6ec6ff"/>
    <path id="Path_352" data-name="Path 352" d="M396.487,568.731a31.766,31.766,0,0,0,8.016-3.348,47.361,47.361,0,0,0,4.734-3.885c1.167-1,2.383-1.943,3.454-3.046a35.99,35.99,0,0,0,2.688-3.258q2.838-3.716,5.863-7.29a11.771,11.771,0,0,1,3.737-3.272c2.685-1.261,5.837-.41,8.671.455a80.649,80.649,0,0,1,12.436,4.645c2.259,1.125,4.446,2.379,6.726,3.456a95.133,95.133,0,0,0,13,4.663,1.648,1.648,0,0,0,1.037.085,1.524,1.524,0,0,0,.615-.514,8.786,8.786,0,0,0,1.365-2.358.453.453,0,0,0-.111-.611c-1.886-1.836-4.333-2.966-6.62-4.274-1.82-1.04-3.562-2.207-5.3-3.374a29.015,29.015,0,0,1-4.76-3.692c-.707-.729-1.344-1.532-2.11-2.2a17.658,17.658,0,0,0-2.145-1.5,86.21,86.21,0,0,1-9.6-7.113c-2.306-1.971-4.194-4.51-6.658-6.278-1.511-1.084-3.27-2.072-5.118-1.874-2.249.236-3.909,2.122-5.477,3.749-5.269,5.472-11.917,9.388-17.8,14.2-4.8,3.923-9.286,8.584-15.133,10.654.262.868.354,1.735.618,2.593a27.091,27.091,0,0,0,1.228,3.5,27.512,27.512,0,0,0,1.634,2.923l2.343,3.826a9.673,9.673,0,0,0,1.639,2.185C395.815,568.116,396.487,568.239,396.487,568.731Z" transform="translate(-245.927 -241.08)" fill="#464353"/>
    <path id="Path_353" data-name="Path 353" d="M396.487,568.731a31.766,31.766,0,0,0,8.016-3.348,47.361,47.361,0,0,0,4.734-3.885c1.167-1,2.383-1.943,3.454-3.046a35.99,35.99,0,0,0,2.688-3.258q2.838-3.716,5.863-7.29a11.771,11.771,0,0,1,3.737-3.272c2.685-1.261,5.837-.41,8.671.455a80.649,80.649,0,0,1,12.436,4.645c2.259,1.125,4.446,2.379,6.726,3.456a95.133,95.133,0,0,0,13,4.663,1.648,1.648,0,0,0,1.037.085,1.524,1.524,0,0,0,.615-.514,8.786,8.786,0,0,0,1.365-2.358.453.453,0,0,0-.111-.611c-1.886-1.836-4.333-2.966-6.62-4.274-1.82-1.04-3.562-2.207-5.3-3.374a29.015,29.015,0,0,1-4.76-3.692c-.707-.729-1.344-1.532-2.11-2.2a17.658,17.658,0,0,0-2.145-1.5,86.21,86.21,0,0,1-9.6-7.113c-2.306-1.971-4.194-4.51-6.658-6.278-1.511-1.084-3.27-2.072-5.118-1.874-2.249.236-3.909,2.122-5.477,3.749-5.269,5.472-11.917,9.388-17.8,14.2-4.8,3.923-9.286,8.584-15.133,10.654.262.868.354,1.735.618,2.593a27.091,27.091,0,0,0,1.228,3.5,27.512,27.512,0,0,0,1.634,2.923l2.343,3.826a9.673,9.673,0,0,0,1.639,2.185C395.815,568.116,396.487,568.239,396.487,568.731Z" transform="translate(-245.927 -241.08)" opacity="0.06"/>
    <path id="Path_354" data-name="Path 354" d="M691.347,668.306a3.119,3.119,0,0,1,.472,2.593,4.525,4.525,0,0,0,2.89.851,9.079,9.079,0,0,0,2.989-.684,9.941,9.941,0,0,0,2.32-1.216,10.354,10.354,0,0,0,2.841-3.562c.4-.743.738-1.707.224-2.376a2.222,2.222,0,0,0-.707-.547,42.122,42.122,0,0,0-5.646-2.69,4.211,4.211,0,0,0-1.707-.384,3.66,3.66,0,0,0-1.959.882,10.611,10.611,0,0,0-3.044,3.772c-.222.472-.891,1.594-.561,2.08.151.224.707.3.943.441A3.049,3.049,0,0,1,691.347,668.306Z" transform="translate(-476.247 -345.146)" fill="#fbbebe"/>
    <path id="Path_355" data-name="Path 355" d="M703.21,670.616c3.989.743,7.657,2.669,11.578,3.708a38.459,38.459,0,0,1,4.736,1.325,6.448,6.448,0,0,1,3.6,3.178,9.123,9.123,0,0,1,.545,2.245,4.283,4.283,0,0,1-.337,3.192c-.681.943-1.969,1.153-3.121,1.29-4.145.495-8.289.988-12.448,1.337a22.28,22.28,0,0,0-2.506.3c-.684.139-1.351.344-2.03.5-.877.208-1.773.335-2.664.471a27.489,27.489,0,0,1-6.875.4,3.205,3.205,0,0,1-2.674-1.4,3.565,3.565,0,0,1-.236-1.537c0-1.4-.024-2.8,0-4.2a9.517,9.517,0,0,1,.743-4.206,1.677,1.677,0,0,1,.851-.884,1.951,1.951,0,0,1,.731-.066,8.635,8.635,0,0,1,3.591.641c.87.432,1.5-.858,2.384-.471,1.681.743.542-1.509,2.24-.809.4-1.221,2.079-.495,1.787-1.747s.757-.707.637-1.995a2.409,2.409,0,0,0-.16-.82C703.446,670.831,703.488,670.576,703.21,670.616Z" transform="translate(-477.314 -353.034)" fill="#464353"/>
    <path id="Path_356" data-name="Path 356" d="M165.773,334.587a5.863,5.863,0,0,1-3.114.41,19.36,19.36,0,0,0-2.789.144,2.633,2.633,0,0,0-.96.255,2.4,2.4,0,0,0-.891,1.04,7.37,7.37,0,0,0-.752,2.315,5.312,5.312,0,0,1-.684,2.619c-.771.978-1.973.827-3.065,1.021a8.251,8.251,0,0,0-2.69,1.028,6.646,6.646,0,0,0-3.117,4.576c-.031.215-.052.427-.061.641-.024.608.038,1.228-.042,1.825a3.178,3.178,0,0,1-.09.441.943.943,0,0,1-.04.125c-.035-.276-.075-.547-.123-.818a12.037,12.037,0,0,1-1.853-2.435,1.812,1.812,0,0,1-.328-.519,13.848,13.848,0,0,1-1.285-5.524,12.106,12.106,0,0,1,21.881-7.143Z" transform="translate(-59.368 -92.436)" opacity="0.06"/>
    <path id="Path_357" data-name="Path 357" d="M116.231,312.406a7.379,7.379,0,0,0-3.2-3.178,17.431,17.431,0,0,0-8.605-2.558,26,26,0,0,0-8.806,1.681,15.177,15.177,0,0,0-5.849,4.319,5.875,5.875,0,0,0-.978.158,9.859,9.859,0,0,0-3.492,1.825,11.114,11.114,0,0,0-2.325,2.27,9.756,9.756,0,0,0-1.568,3.685c-.9,4.14.207,8.412,1.018,12.568s1.285,8.7-.707,12.432c-.752,1.414-1.82,2.617-2.622,3.994a5.935,5.935,0,0,0-.879,4.562c.542,1.858,2.367,3.037,3.319,4.708a5.658,5.658,0,0,1-1.1,6.771,5.458,5.458,0,0,0,4.512-.87,7.973,7.973,0,0,0,2.657-2.52c1.7-2.744.943-6.288,1.532-9.459.785-4.149,3.954-7.851,3.518-12.052-.295-2.829-2.162-5.175-3.631-7.6a29.785,29.785,0,0,1-2.459-5.1,7.7,7.7,0,0,1-.62-3.956,5.326,5.326,0,0,1,.37-1.179v.134a9.033,9.033,0,0,0,.806,3.536c1.754,3.583,6.424,4.9,8.4,8.367a5.583,5.583,0,0,0,1.415-2.11,9.69,9.69,0,0,0,.132-2.268,6.572,6.572,0,0,1,3.178-5.215,8.166,8.166,0,0,1,2.69-1.026c1.089-.2,2.292-.047,3.065-1.026a5.3,5.3,0,0,0,.686-2.617,7.321,7.321,0,0,1,.752-2.318,2.379,2.379,0,0,1,.891-1.037,2.6,2.6,0,0,1,.962-.255,19.337,19.337,0,0,1,2.787-.144,5.785,5.785,0,0,0,3.154-.431A3.33,3.33,0,0,0,116.231,312.406Z" transform="translate(-9.05 -74.894)" fill="#464353"/>
    <path id="Path_358" data-name="Path 358" d="M750.406,256.862v.1c-.427,3.678-3.963,3.508-4.788,9.3-.325,2.27-3.772,2.69-6.038,3.3-.979-.33-1.969-.615-2.947-.971-2.263-.818-.681-2.046.288-3.367,3.171-4.324,3.772-10.232,7.372-14.2a13.276,13.276,0,0,0,5.96,5.764A.853.853,0,0,0,750.406,256.862Z" transform="translate(-511.481 -32.364)" opacity="0.06"/>
    <path id="Path_359" data-name="Path 359" d="M703.216,218.882a14.982,14.982,0,0,1-.094,1.669,14.8,14.8,0,1,1,.094-1.669Z" transform="translate(-464.209 3.506)" fill="#a1616a"/>
    <path id="Path_360" data-name="Path 360" d="M774.026,273.847a11.518,11.518,0,0,1,4.889,1.235c6.208,2.593,12.467,5.208,18.014,9.015a99.243,99.243,0,0,1,7.8,6.174l10.395,8.831a37.616,37.616,0,0,1,5.611,5.481,37.219,37.219,0,0,1,2.577,4.008l1.542,2.629a23.577,23.577,0,0,1,1.65,3.218c.792,2.03,1.087,4.4,2.685,5.88a15.593,15.593,0,0,0,3.862,2.061c1.311.658,2.593,1.813,2.572,3.279a6.191,6.191,0,0,1-1,2.64,10.586,10.586,0,0,0-1.075,5.736l-17-12.99a5.773,5.773,0,0,0-2.216-1.224,6.029,6.029,0,0,0-3.223.54,62.49,62.49,0,0,1-25.629,3.369,26.923,26.923,0,0,1-11.1-2.872,34.44,34.44,0,0,1-5.14-3.772,62.976,62.976,0,0,1-5.894-5.371,3.8,3.8,0,0,1-1.082-1.792,5.933,5.933,0,0,1,.064-1.528c.3-3.576-2.673-6.554-3.579-10.027a9.2,9.2,0,0,1,2.879-9.117c2.025,1.773,1.952,4.887,1.716,7.568-.318,3.609.691,5.4.373,9.011,1.282-.047,1.049.778,1.6-.384a10.759,10.759,0,0,0,.757-3.753q.568-6.945,1.379-13.867c.269-2.308.575-4.611.87-6.917a9.543,9.543,0,0,1,.9-3.958A6.07,6.07,0,0,1,774.026,273.847Z" transform="translate(-529.066 -49.804)" fill="#6ec6ff"/>
    <path id="Path_361" data-name="Path 361" d="M806.319,291.233a5.759,5.759,0,0,1,3.326.295q2.876.854,5.72,1.8a15.5,15.5,0,0,1,4.43,2.044,24.239,24.239,0,0,1,5.231,6.915,16.566,16.566,0,0,1,.943,4.682,6.14,6.14,0,0,1-.026,2.068,5.02,5.02,0,0,1-1.139,1.987,13.59,13.59,0,0,1-2.8,2.506c-2.775,1.867-6.13,2.645-9.4,3.331a61.839,61.839,0,0,1-8.829,1.363c-1.158.073-2.5,0-3.209-.915a3.609,3.609,0,0,1-.472-.929,35.165,35.165,0,0,1-2.209-14.435,10.644,10.644,0,0,1,.413-2.645,18.947,18.947,0,0,1,4.281-6.563,9.04,9.04,0,0,1,5.693-1.476" transform="translate(-559.141 -62.984)" fill="#a1616a"/>
    <path id="Path_362" data-name="Path 362" d="M765.084,324a3.916,3.916,0,0,0-1.367,2.945c-.5,4.732,1.45,9.416,1.32,14.171-.1,3.772-1.513,7.393-2.9,10.913a64.957,64.957,0,0,0-4.086,18.964c-.479,6.439-1.179,13.143-4.635,18.589-.785,1.233-1.7,2.379-2.469,3.619-.806,1.3-1.445,2.688-2.157,4.036A43.425,43.425,0,0,1,740.771,408a11.06,11.06,0,0,1-3.145,2.341,6.333,6.333,0,0,1-4.918.052,4.7,4.7,0,0,1-3.036-3.916,6.972,6.972,0,0,1,1.806-4.218,69.233,69.233,0,0,1,10.845-11.5,6.241,6.241,0,0,0,1.886-2.138,9.557,9.557,0,0,0,.307-3.27,28.753,28.753,0,0,1,1.179-5.135c1.65-6.952-1.282-14.544,1.1-21.279a21.442,21.442,0,0,0,1.5-4.505,4.293,4.293,0,0,0-.832-3.164,4.173,4.173,0,0,1-1.023-2.678,4.636,4.636,0,0,1,.026-.6,64.989,64.989,0,0,0,.417-9.282,21.762,21.762,0,0,0-2.2-8.959,25.452,25.452,0,0,1-2.155-4.3c-.736-2.492-.057-5.187,1.04-7.544a13.161,13.161,0,0,1,3.591-4.864,9.618,9.618,0,0,1,10.635-.677,15.7,15.7,0,0,1,5.354,6.281C764.106,320.443,765.11,321.959,765.084,324Z" transform="translate(-507.045 -78.268)" opacity="0.06"/>
    <path id="Path_363" data-name="Path 363" d="M767.364,324A3.915,3.915,0,0,0,766,326.945c-.5,4.732,1.45,9.416,1.32,14.171-.1,3.772-1.514,7.393-2.9,10.913a65.037,65.037,0,0,0-4.086,18.964c-.481,6.438-1.179,13.143-4.635,18.589-.785,1.233-1.7,2.379-2.468,3.619-.8,1.3-1.445,2.688-2.157,4.036a43.475,43.475,0,0,1-8.016,10.767,11.071,11.071,0,0,1-3.147,2.341,6.333,6.333,0,0,1-4.918.052,4.7,4.7,0,0,1-3.034-3.916,6.944,6.944,0,0,1,1.806-4.218,69.212,69.212,0,0,1,10.845-11.5,6.217,6.217,0,0,0,1.886-2.138,9.506,9.506,0,0,0,.307-3.27,28.749,28.749,0,0,1,1.179-5.135c1.65-6.953-1.283-14.544,1.1-21.279a21.445,21.445,0,0,0,1.506-4.505,4.3,4.3,0,0,0-.832-3.164A4.148,4.148,0,0,1,748.7,348.6a4.635,4.635,0,0,1,.026-.6,65.347,65.347,0,0,0,.415-9.282,21.76,21.76,0,0,0-2.2-8.959,25.457,25.457,0,0,1-2.155-4.3c-.736-2.492-.057-5.187,1.04-7.544a13.19,13.19,0,0,1,3.591-4.864,9.618,9.618,0,0,1,10.635-.677,15.7,15.7,0,0,1,5.354,6.281C766.381,320.443,767.38,321.959,767.364,324Z" transform="translate(-508.787 -78.268)" fill="#a1616a"/>
    <path id="Path_364" data-name="Path 364" d="M982.643,627l-.2.061" transform="translate(-700.224 -319.704)" fill="#464353"/>
    <path id="Path_365" data-name="Path 365" d="M808.15,670.856a1.719,1.719,0,0,1,.042-.236" transform="translate(-567.024 -353.04)" fill="#464353"/>
    <path id="Path_366" data-name="Path 366" d="M1005.566,595.682a5.218,5.218,0,0,1,2.732-1.4,27.445,27.445,0,0,1,4.951-.806,9.251,9.251,0,0,1,3.1.191,4,4,0,0,1,2.466,1.782,6.194,6.194,0,0,1,.58,2.671,24.411,24.411,0,0,1-.075,5.63c-.2,1.179-.575,2.32-.818,3.489-.787,3.833-.1,7.8-.174,11.715a6.055,6.055,0,0,1-.422,2.447,6.807,6.807,0,0,1-1.707,2.018,10.818,10.818,0,0,1-2.332,1.747,10.033,10.033,0,0,1-4.224.8,6.465,6.465,0,0,1-2.594-.295,2.415,2.415,0,0,1-1.6-1.928c-.094-1.492,1.589-2.468,2.07-3.883a4.215,4.215,0,0,0-.665-3.4,10.754,10.754,0,0,0-4.034-3.9,8.562,8.562,0,0,1-1.79-1.1,1.9,1.9,0,0,1-.643-1.886,2.25,2.25,0,0,1,2.039-1.259,7,7,0,0,0,2.487-.394,3.4,3.4,0,0,0,1.466-1.65,6.129,6.129,0,0,0,.266-4.614,5.667,5.667,0,0,0-.877-1.6c-.354-.453-1.08-.835-1.332-1.33C1004,597.841,1004.965,596.389,1005.566,595.682Z" transform="translate(-713.894 -294.044)" fill="#2f2e41"/>
    <path id="Path_367" data-name="Path 367" d="M845.165,431.308c-3.895-3.442-9.324-4.378-14.417-5.422q-3.935-.8-7.832-1.792a29.2,29.2,0,0,0-5.187-1.016,8.788,8.788,0,0,0-5.1,1.028,5.237,5.237,0,0,0-2.664,4.293c0,.707.167,1.4.115,2.1a10.931,10.931,0,0,1-1.134,3.176,8.346,8.346,0,0,0-.285,5.224c.755,2.751,2.928,5.175,2.74,8.016a53.719,53.719,0,0,0,.759,14.381c.976,4.656,2.195,9.334,2.167,14.1s-1.471,9.774-5.029,12.948a19.432,19.432,0,0,0,8.565,4.68c2.742.686,6,.618,7.954-1.426a2.2,2.2,0,0,0,.733-1.749,3.419,3.419,0,0,0-.507-1.143c-1.341-2.4-1.179-5.363-.585-8.046s1.61-5.29,1.867-8.03c.188-1.987-.024-4.008.356-5.969.293-1.5.924-2.916,1.3-4.4,1.12-4.4-.056-9.018-1.226-13.4a15.213,15.213,0,0,0,4.744,5.536c2.9,2.315,6.417,4.359,10.109,3.949,3.286-.368,6.085-2.652,8.016-5.333.017-3.1,1.092-6.031.9-9.124a23.155,23.155,0,0,0-.726-4.02,19.945,19.945,0,0,0-1.414-4.307C848.484,433.765,846.669,432.636,845.165,431.308Z" transform="translate(-567.193 -163.836)" opacity="0.06"/>
    <path id="Path_368" data-name="Path 368" d="M848.6,431.308c-3.895-3.442-9.322-4.378-14.417-5.422q-3.935-.8-7.829-1.792a29.245,29.245,0,0,0-5.187-1.016,8.783,8.783,0,0,0-5.1,1.028A5.232,5.232,0,0,0,813.4,428.4c0,.707.165,1.4.113,2.1a11.215,11.215,0,0,1-1.134,3.176,8.346,8.346,0,0,0-.283,5.224c.752,2.751,2.926,5.175,2.74,8.016a53.608,53.608,0,0,0,.757,14.381c.976,4.656,2.2,9.334,2.167,14.1s-1.48,9.758-5.04,12.927a19.445,19.445,0,0,0,8.565,4.68c2.742.686,6,.618,7.954-1.426a2.2,2.2,0,0,0,.733-1.749,3.422,3.422,0,0,0-.507-1.143c-1.342-2.4-1.179-5.364-.585-8.046s1.61-5.29,1.869-8.03c.186-1.987-.026-4.008.356-5.969.29-1.5.924-2.916,1.3-4.4,1.12-4.4-.054-9.018-1.226-13.4a15.2,15.2,0,0,0,4.746,5.536c2.9,2.315,6.415,4.359,10.107,3.949,3.286-.368,6.085-2.652,8.016-5.333.014-3.1,1.089-6.031.9-9.124a23.144,23.144,0,0,0-.726-4.02,19.84,19.84,0,0,0-1.414-4.307C851.931,433.765,850.1,432.636,848.6,431.308Z" transform="translate(-569.819 -163.836)" fill="#a1616a"/>
    <path id="Path_369" data-name="Path 369" d="M755.935,688.862a14.72,14.72,0,0,1-4.388-4.109,11.564,11.564,0,0,0-1.32-1.731,2.55,2.55,0,0,0-1.957-.8,3.185,3.185,0,0,0-1.992,1.349c-1.391,1.723-2.287,3.831-3.831,5.422a14.012,14.012,0,0,1-6.752,3.461c-2.483.632-5.045.964-7.478,1.763a3.409,3.409,0,0,0-1.98,1.28,2.859,2.859,0,0,0,.316,2.9,8.52,8.52,0,0,0,4.59,3.345A41.53,41.53,0,0,0,736.8,703c3.362.658,6.806,1.712,10.152.969,1.334-.3,2.593-.872,3.942-1.122,3.065-.571,6.226.582,9.3.12a14.556,14.556,0,0,0,4.244-1.488,5.85,5.85,0,0,0,1.815-1.233,2.222,2.222,0,0,0,.587-2.03,8.179,8.179,0,0,0-.559-1.136,5.845,5.845,0,0,1-.4-1.914,52.491,52.491,0,0,0-1.292-7.375,3,3,0,0,0-1.313-2.16.708.708,0,0,0-.526-.059c-.281.106-.373.446-.457.731a4.5,4.5,0,0,1-7.823,1.551" transform="translate(-504.212 -361.897)" fill="#2f2e41"/>
    <path id="Path_370" data-name="Path 370" d="M705.869,218.89a14.953,14.953,0,0,1-.094,1.669,4.774,4.774,0,0,1-4.1-1.365c-.5-.528-.87-1.167-1.363-1.7a2.079,2.079,0,0,0-3.426-.049,5.016,5.016,0,0,0-1.148,2.03,2.767,2.767,0,0,1-.679,1.5,2.147,2.147,0,0,1-1.514.314,4.514,4.514,0,0,1-1.99-.377c-1.132-.611-1.514-2.009-1.933-3.225-.707-2.044-2.3-5.91-4.772-6.323a5.225,5.225,0,0,0-3.536,1.1,6.333,6.333,0,0,1-4.223,1.639h0a14.8,14.8,0,0,1,28.8,4.791Z" transform="translate(-466.862 3.498)" opacity="0.06"/>
    <path id="Path_371" data-name="Path 371" d="M667.052,187.837a3.558,3.558,0,0,1-1.25-.2,3.371,3.371,0,0,1-1.8-2.992,13.4,13.4,0,0,1,1.1-5.46,1.81,1.81,0,0,1,.634-1.011,2.2,2.2,0,0,1,.894-.224,8.454,8.454,0,0,0,4.411-2.431,36.061,36.061,0,0,1,3.772-3.442,10.088,10.088,0,0,1,12.4,1.073c1.268,1.245,2.358,2.933,4.116,3.225,1.014.167,2.1-.182,3.065.2a3.616,3.616,0,0,1,1.618,1.539,15.274,15.274,0,0,1,2.138,6.952,45.38,45.38,0,0,1-.174,7.334,1.914,1.914,0,0,1-.271,1.04,1.583,1.583,0,0,1-.554.424,4.76,4.76,0,0,1-5.491-.924c-.5-.526-.87-1.165-1.363-1.7a2.081,2.081,0,0,0-3.426-.047,5.019,5.019,0,0,0-1.148,2.03,2.736,2.736,0,0,1-.679,1.5,2.164,2.164,0,0,1-1.516.316,4.511,4.511,0,0,1-1.987-.38c-1.134-.608-1.516-2.006-1.933-3.223-.707-2.044-2.3-5.913-4.772-6.323a5.213,5.213,0,0,0-3.536,1.1A6.423,6.423,0,0,1,667.052,187.837Z" transform="translate(-456.845 29.221)" fill="#464353"/>
    <path id="Path_372" data-name="Path 372" d="M276.63,609.928c-.163,1.075-1.148,1.914-1.844,2.749-1.891,2.282-3.807,4.571-5.922,6.66a92.687,92.687,0,0,1-7.231,6.212l-3.22,2.577a4.057,4.057,0,0,1-1.37.825,2.5,2.5,0,0,1-1.763-.21c.047-.094.1-.182.151-.269L259.293,622c.759-1.268,1.257-2.423,2.122-3.614a36.012,36.012,0,0,1,4.225-5.085,36.572,36.572,0,0,1,7.047-4.682,2.024,2.024,0,0,1,2.8-.842,3.493,3.493,0,0,1,.974.747A2.787,2.787,0,0,1,276.63,609.928Z" transform="translate(-144.497 -304.834)" opacity="0.06"/>
    <path id="Path_373" data-name="Path 373" d="M260.052,559.033l-3.862,6.474a.915.915,0,0,0,.219,1.466c1.481,1.2,3.121,2.476,3.586,4.326.332,1.32,0,2.735.3,4.06.545,2.39,2.947,3.843,5.22,4.762a29.548,29.548,0,0,0,16.156,1.886,23.674,23.674,0,0,0,14.049-7.954c1.075-1.3,1.995-2.725,3.015-4.069a64.642,64.642,0,0,1,9.982-9.779c4.585-3.885,7.287-9.68,11.316-14.145a5.648,5.648,0,0,1,2.593-1.919c.589-.149,1.414.071,1.438.679.054,1.179,1,2.143,1.65,3.129,2.442,3.734,5,7.584,8.773,9.965a27.91,27.91,0,0,0,6.74,2.829c5.917,1.844,11.951,3.3,17.976,4.743a10.087,10.087,0,0,1,1.089-1.719c.625-.766,1.448-1.351,2.075-2.122a11.2,11.2,0,0,0,1.919-4.989c-3.6-2.2-7.294-4.479-10.845-6.771A25.589,25.589,0,0,1,348.406,546c-.943-1.023-1.735-2.2-2.681-3.225a27.357,27.357,0,0,0-3.117-2.765l-8.487-6.8c-2.438-1.95-4.923-4.008-7.308-6.026-1.341-1.136-2.829-2.332-4.583-2.386a7.981,7.981,0,0,0-4.175,1.53q-11.382,6.816-23.1,13.018c-1.582.835-3.171,1.664-4.68,2.624a31.548,31.548,0,0,0-7.714,6.927c-.4.5-.9,1.063-1.535.988a1.38,1.38,0,0,1-.493-.172,6.011,6.011,0,0,1-2.122-2.483,5.751,5.751,0,0,0-2.155-2.454,2.023,2.023,0,0,0-2.8.844,38.374,38.374,0,0,0-7.052,4.71,35.889,35.889,0,0,0-4.225,5.085C261.309,556.612,260.809,557.767,260.052,559.033Z" transform="translate(-144.988 -241.6)" fill="#464353"/>
    <path id="Path_374" data-name="Path 374" d="M246.61,502.52a47.512,47.512,0,0,1,6.667,3.668" transform="translate(-137.871 -224.571)" opacity="0.06"/>
    <path id="Path_375" data-name="Path 375" d="M974.052,463.64c.071,2.2.127,4.4.1,6.6a7.194,7.194,0,0,1-.623,3.4,7.4,7.4,0,0,1-1.65,1.867L968,479.028a8.654,8.654,0,0,1-4.109,2.5c-1.837.311-3.631-.582-5.4-1.179a17.713,17.713,0,0,0-5.517-.927,20.376,20.376,0,0,1-3.22-.085,13.2,13.2,0,0,1-2.249-.639L944,477.484c.1-.884.943-1.448,1.65-2.006,2.511-2.037,3.612-5.312,4.4-8.445a50.366,50.366,0,0,0,1.372-7.452,12.233,12.233,0,0,0-.087-3.734,14.846,14.846,0,0,0-1.037-2.862l-1.233-2.78c-.707-1.57-2.122-2.268-3.562-3.195,2.173.825,4.823,1.148,6.476,2.784a4.293,4.293,0,0,0,1.118.905,5.286,5.286,0,0,0,1.455.316c2.454.368,4.541,1.91,6.568,3.336q3.723,2.621,7.653,4.925a17.988,17.988,0,0,1,3.388,2.32A5.465,5.465,0,0,1,974,465.17" transform="translate(-670.846 -182.148)" fill="#464353"/>
    <path id="Path_376" data-name="Path 376" d="M160.022,448.516c-3.091.611-4.7,4.244-4.517,7.386a12.023,12.023,0,0,0,3.258,7.509c1.29,1.356,2.9,2.4,4.062,3.866,1.721,2.16,2.32,5.015,3.859,7.309a19.91,19.91,0,0,0,4.244,4.222q5.389,4.3,11.13,8.141c1.556,1.04,3.258,2.091,5.13,2.051a6.4,6.4,0,0,0,4.538-2.412,19.361,19.361,0,0,0,2.633-4.569c2.692-5.87,5.4-11.8,6.691-18.132a23.452,23.452,0,0,1,1.575-5.854,28.421,28.421,0,0,1,2.688-3.9,26.93,26.93,0,0,0,4.545-10.156,13.1,13.1,0,0,0-.158-7.238,6.582,6.582,0,0,0-5.333-4.449,6.482,6.482,0,0,0-5.123,2.289,12.673,12.673,0,0,0-2.582,5.147,24.652,24.652,0,0,0-.849,8.251c.151,2.242.608,4.505.222,6.721a18,18,0,0,1-1.629,4.461c-1.742,3.711-3.513,7.469-6.146,10.609-.858,1.023-2.039,2.058-3.353,1.818-1.815-.33-2.3-2.629-3.192-4.244-1.1-1.98-3.183-3.171-4.816-4.743-2.325-2.24-3.718-5.243-5.371-8.016s-3.791-5.51-6.837-6.573-7.106.3-7.888,3.433" transform="translate(-68.234 -170.885)" opacity="0.06"/>
    <path id="Path_377" data-name="Path 377" d="M162.415,447.184c-3.093.611-7.03,1.009-6.837,4.156a12,12,0,0,0,3.258,7.509c1.29,1.358,2.9,2.4,4.062,3.869,1.721,2.16,2.32,5.012,3.859,7.308A19.8,19.8,0,0,0,171,474.248q5.389,4.3,11.13,8.141c1.556,1.042,3.258,2.094,5.13,2.053a6.4,6.4,0,0,0,4.538-2.412,19.277,19.277,0,0,0,2.633-4.571c2.692-5.87,5.4-11.8,6.691-18.132a23.433,23.433,0,0,1,1.575-5.851,28.593,28.593,0,0,1,2.688-3.907,26.9,26.9,0,0,0,4.545-10.154,13.11,13.11,0,0,0-.158-7.24,6.582,6.582,0,0,0-5.333-4.449,6.489,6.489,0,0,0-5.123,2.289,12.652,12.652,0,0,0-2.582,5.149,24.648,24.648,0,0,0-.849,8.252c.151,2.244.608,4.508.222,6.721a17.986,17.986,0,0,1-1.629,4.463c-1.742,3.711-3.513,7.466-6.146,10.609-.858,1.023-2.039,2.056-3.352,1.818-1.815-.332-2.3-2.631-3.192-4.244-1.1-1.98-3.183-3.171-4.816-4.744-2.325-2.237-3.718-5.243-5.371-8.016s-3.791-5.507-6.837-6.573.769,5.76-.017,8.89" transform="translate(-68.295 -167.4)" opacity="0.06"/>
    <path id="Path_378" data-name="Path 378" d="M160.022,446.24c-3.091.611-4.7,4.244-4.517,7.386a12.024,12.024,0,0,0,3.258,7.511c1.29,1.356,2.9,2.4,4.062,3.866,1.721,2.16,2.32,5.015,3.859,7.308a19.87,19.87,0,0,0,4.244,4.225q5.389,4.3,11.13,8.138c1.556,1.042,3.258,2.094,5.13,2.053a6.4,6.4,0,0,0,4.538-2.412,19.36,19.36,0,0,0,2.633-4.569c2.692-5.87,5.4-11.8,6.691-18.134a23.434,23.434,0,0,1,1.575-5.852,28.589,28.589,0,0,1,2.688-3.906,26.9,26.9,0,0,0,4.545-10.154,13.109,13.109,0,0,0-.158-7.24,6.575,6.575,0,0,0-5.333-4.446,6.474,6.474,0,0,0-5.123,2.289,12.672,12.672,0,0,0-2.582,5.147,24.652,24.652,0,0,0-.849,8.251c.151,2.242.608,4.505.222,6.719a17.987,17.987,0,0,1-1.629,4.463c-1.742,3.711-3.513,7.469-6.146,10.609-.858,1.023-2.039,2.056-3.353,1.818-1.815-.332-2.3-2.629-3.192-4.244-1.1-1.983-3.183-3.173-4.816-4.743-2.325-2.24-3.718-5.243-5.371-8.016s-3.791-5.507-6.837-6.57-7.106.3-7.888,3.433" transform="translate(-68.234 -169.149)" fill="#fbbebe"/>
    <g id="Group_31" data-name="Group 31" transform="translate(71.383 232.165)" opacity="0.06">
      <path id="Path_213" data-name="Path 213" d="M96.751,384.005a29.787,29.787,0,0,1-2.459-5.1l-.08-.236a7.641,7.641,0,0,1-1.242-1.789,9.02,9.02,0,0,1-.806-3.536v-.134a5.327,5.327,0,0,0-.37,1.179,7.728,7.728,0,0,0,.62,3.956,29.865,29.865,0,0,0,2.459,5.1c1.464,2.447,3.334,4.8,3.624,7.613.436,4.2-2.732,7.9-3.515,12.052-.6,3.171.16,6.714-1.535,9.459a7.943,7.943,0,0,1-2.657,2.518,7.515,7.515,0,0,1-2.176.943,5.045,5.045,0,0,1-.453.472,5.458,5.458,0,0,0,4.512-.87,7.973,7.973,0,0,0,2.657-2.52c1.7-2.744.943-6.288,1.532-9.459.785-4.149,3.954-7.851,3.518-12.052C100.087,388.775,98.22,386.42,96.751,384.005Z" transform="translate(-88.16 -357.912)"/>
      <path id="Path_214" data-name="Path 214" d="M169.346,313.667a7.38,7.38,0,0,0-3.2-3.178,18.533,18.533,0,0,0-5.378-2.169,19.22,19.22,0,0,1,3.494,1.629,7.415,7.415,0,0,1,3.2,3.18,3.3,3.3,0,0,1-1,4.083,5.807,5.807,0,0,1-3.154.431,18.974,18.974,0,0,0-2.787.141,2.682,2.682,0,0,0-.962.255,2.393,2.393,0,0,0-.891,1.049,7.328,7.328,0,0,0-.754,2.318,5.312,5.312,0,0,1-.686,2.617c-.769.978-1.971.83-3.065,1.023a8.254,8.254,0,0,0-2.69,1.028,6.558,6.558,0,0,0-3.178,5.215,9.668,9.668,0,0,1-.13,2.266,3.738,3.738,0,0,1-.613,1.179,8.042,8.042,0,0,1,1.089,1.469,5.584,5.584,0,0,0,1.415-2.11,9.692,9.692,0,0,0,.132-2.268,6.572,6.572,0,0,1,3.178-5.215,8.164,8.164,0,0,1,2.69-1.026c1.089-.2,2.292-.047,3.065-1.026a5.3,5.3,0,0,0,.686-2.617,7.322,7.322,0,0,1,.752-2.317,2.379,2.379,0,0,1,.891-1.037,2.594,2.594,0,0,1,.962-.255,19.328,19.328,0,0,1,2.787-.144,5.784,5.784,0,0,0,3.154-.431A3.326,3.326,0,0,0,169.346,313.667Z" transform="translate(-133.548 -308.32)"/>
    </g>
    <path id="Path_379" data-name="Path 379" d="M174.52,426.55s2.784,2.4,8.072.943C182.592,427.488,179.318,428.778,174.52,426.55Z" transform="translate(-82.777 -166.511)" opacity="0.06"/>
    <path id="Path_380" data-name="Path 380" d="M697.789,231.16a1.921,1.921,0,0,1-.283,1.033,1.576,1.576,0,0,1-.554.422,4.755,4.755,0,0,1-5.488-.922c-.5-.528-.87-1.179-1.363-1.7a2.507,2.507,0,0,0-1.886-.919,2.475,2.475,0,0,0-1.54.87,5.107,5.107,0,0,0-1.148,2.03,2.738,2.738,0,0,1-.677,1.5,2.148,2.148,0,0,1-1.516.314,4.464,4.464,0,0,1-1.988-.377c-1.134-.608-1.516-2.009-1.936-3.223-.707-2.046-2.3-5.913-4.769-6.325a5.234,5.234,0,0,0-3.536,1.1,6.4,6.4,0,0,1-4.225,1.65,3.606,3.606,0,0,1-1.25-.2,3.229,3.229,0,0,1-1.759-2.652,7.857,7.857,0,0,0-.04,1.544,3.384,3.384,0,0,0,1.8,2.992,3.607,3.607,0,0,0,1.25.2,6.338,6.338,0,0,0,4.225-1.639,5.229,5.229,0,0,1,3.536-1.1c2.464.4,4.067,4.267,4.76,6.311.42,1.217.8,2.617,1.935,3.225a4.5,4.5,0,0,0,1.988.377,2.223,2.223,0,0,0,1.516-.314,2.922,2.922,0,0,0,.677-1.5,5.086,5.086,0,0,1,1.148-2.03,2.485,2.485,0,0,1,1.539-.87,2.4,2.4,0,0,1,1.886.919c.471.535.863,1.179,1.363,1.7a4.755,4.755,0,0,0,5.489.922,1.606,1.606,0,0,0,.554-.422,1.922,1.922,0,0,0,.283-1.035,56.221,56.221,0,0,0,.236-5.974C698,228.433,697.9,229.8,697.789,231.16Z" transform="translate(-456.715 -11.531)" opacity="0.06"/>
    <path id="Path_381" data-name="Path 381" d="M87.281,659.969s.375-.417-.33-.582V658.7h.424a3.619,3.619,0,0,0-2.869-3.536v-.832h.111V653.25H81.889v1.082h.078v.842a3.621,3.621,0,0,0-2.829,3.536h.375v.658s-.894.422,0,1.179.754,1.3.754,1.3-.375,1.414-1.127,1.6v13.115a2.914,2.914,0,0,0,2.914,2.916h2.3a2.916,2.916,0,0,0,2.916-2.916V663.449s-1.318-.988-1.082-1.6A14.749,14.749,0,0,1,87.281,659.969Z" transform="translate(-9.864 -339.765)" fill="#464353"/>
  </g>
</svg>
