<svg xmlns="http://www.w3.org/2000/svg" width="130.265" height="187.771" viewBox="0 0 130.265 187.771">
  <g id="Group_32" data-name="Group 32" transform="translate(-115.497 -174.833)">
    <path id="Path_320" data-name="Path 320" d="M483.63,415.043s2.513-18.428,6.7-13.4,0,12.565,0,12.565l-3.351,4.188-3.351-2.513Z" transform="translate(-255.34 -183.994)" fill="#ffb8b8"/>
    <path id="Path_321" data-name="Path 321" d="M454.716,439.51s8.376-9.214,10.052-7.539,6.7,2.513,5.864,5.864-18.428,14.24-18.428,14.24Z" transform="translate(-237.181 -201.623)" fill="#6ec6ff"/>
    <path id="Path_322" data-name="Path 322" d="M454.716,439.51s8.376-9.214,10.052-7.539,6.7,2.513,5.864,5.864-18.428,14.24-18.428,14.24Z" transform="translate(-237.181 -201.623)" fill="#6ec6ff" opacity="0.1"/>
    <path id="Path_323" data-name="Path 323" d="M338.985,449.038v6.7s-.838,15.078,4.188,14.24,2.513-13.4,2.513-13.4l-.838-7.539Z" transform="translate(-174.695 -211.46)" fill="#ffb8b8"/>
    <path id="Path_324" data-name="Path 324" d="M286.246,570.557s-7.539,11.727-10.052,12.565S260.279,591.5,258.6,599.037l-11.727,15.078,5.864,7.539s26.8-28.48,34.344-30.993,15.078-15.078,15.078-15.078Z" transform="translate(-121.252 -279.975)" fill="#ffb8b8"/>
    <path id="Path_325" data-name="Path 325" d="M452.607,522.369s15.915,2.513,13.4,12.565-26.8,30.993-26.8,30.993l-.838,5.026-9.214,1.675-4.188-4.188.838-2.513s10.052-9.214,10.889-12.565,10.052-16.753,14.24-17.591l-5.864-3.35Z" transform="translate(-220.517 -252.569)" fill="#ffb8b8"/>
    <path id="Path_326" data-name="Path 326" d="M238.072,673.077s3.351-5.026-1.675-4.188-8.376,1.675-8.376,5.026,4.188,26.8,9.214,25.13.838-9.214.838-9.214,2.513-6.7,4.188-7.539,1.675-5.026,0-5.026S237.234,674.752,238.072,673.077Z" transform="translate(-112.523 -336.526)" fill="#2f2e41"/>
    <path id="Path_327" data-name="Path 327" d="M420.964,630.617s0-4.188-3.351,0-5.026,7.539-1.675,10.052,15.078,8.377,15.078,8.377,12.565,2.513,10.889-3.351c0,0-8.376-4.188-8.376-7.539s0-9.214-2.513-7.539S420.964,633.131,420.964,630.617Z" transform="translate(-215.395 -313.97)" fill="#2f2e41"/>
    <path id="Path_328" data-name="Path 328" d="M357.644,476.275s-11.727,1.675-10.889,18.428c0,0-15.078,15.078-10.889,20.1s13.4,14.24,16.753,11.727,13.4-21.779,13.4-21.779,23.454,8.376,27.642,4.188,8.376-14.24,8.376-14.24L381.1,483.814Z" transform="translate(-169.173 -226.322)" fill="#2f2e41"/>
    <ellipse id="Ellipse_58" data-name="Ellipse 58" cx="10.052" cy="10.052" rx="10.052" ry="10.052" transform="translate(213.267 176.355)" fill="#ffb8b8"/>
    <path id="Path_329" data-name="Path 329" d="M442.762,333.8s-5.863,9.214-7.539,10.052,11.727,9.214,11.727,9.214,0-10.89,4.188-13.4Z" transform="translate(-227.804 -145.762)" fill="#ffb8b8"/>
    <path id="Path_330" data-name="Path 330" d="M411.634,354.91s-13.4-4.188-15.915,2.513-8.376,19.266-7.539,27.642,2.513,6.7,0,9.214-4.188.838-3.351,4.188,1.675,3.351.838,5.026,10.052,7.539,19.266,8.377l9.214.838s0-15.078,1.675-18.428,5.026-10.052,5.026-12.565v-6.649a25.43,25.43,0,0,0-3.351-12.617h0S412.472,354.91,411.634,354.91Z" transform="translate(-198.501 -156.351)" fill="#6ec6ff"/>
    <path id="Path_331" data-name="Path 331" d="M370.245,365.232s-30.993,2.513-34.344,10.889-5.026,25.129-1.675,25.129,7.539,1.675,8.376,0,4.188-18.428,5.026-18.428S373.6,380.31,373.6,380.31,384.485,366.907,370.245,365.232Z" transform="translate(-169.044 -163.377)" fill="#6ec6ff"/>
    <path id="Path_332" data-name="Path 332" d="M456.666,312.054s2.667-4.636,6-.609,8.758-3.373,7.926-4.952-3.773.071-8.813-1.576-14.746-5-16.372,5.944,2.246,9.8,2.246,9.8,1.775-9.7,3.379-6.914l1.6,2.786,1.391.342Z" transform="translate(-232.709 -128.281)" fill="#2f2e41"/>
  </g>
</svg>
