<svg xmlns="http://www.w3.org/2000/svg" xmlns:xlink="http://www.w3.org/1999/xlink" width="306.723" height="118.776" viewBox="0 0 306.723 118.776">
  <defs>
    <linearGradient id="linear-gradient" x1="0.5" y1="1" x2="0.5" gradientUnits="objectBoundingBox">
      <stop offset="0" stop-color="gray" stop-opacity="0.251"/>
      <stop offset="0.54" stop-color="gray" stop-opacity="0.122"/>
      <stop offset="1" stop-color="gray" stop-opacity="0.102"/>
    </linearGradient>
  </defs>
  <g id="Group_32" data-name="Group 32" transform="translate(-68.123 -210.477)">
    <ellipse id="Ellipse_25" data-name="Ellipse 25" cx="115.988" cy="11.011" rx="115.988" ry="11.011" transform="translate(87.779 303.048)" fill="#9ce1f9"/>
    <path id="Path_99" data-name="Path 99" d="M376.393,500.452a18.2,18.2,0,0,1-3.379,1.673l-.318.134a1.026,1.026,0,0,0,.382-.661c0-2.676-20.375,2.673-24.323,2.673a17.128,17.128,0,0,1-5.439-1.115,45.091,45.091,0,0,0-8.818-2.188h0a30.969,30.969,0,0,0-4.053-2.116v-.02c.081-.159.156-.32.22-.482a.268.268,0,0,1,.031-.081l.1-.256c.031-.084.061-.167.086-.251,1.2-3.526.5-7.477-.764-11.009-.627-1.742-1.394-3.588-.962-5.386a5.061,5.061,0,0,1,.346-.967h0a4.41,4.41,0,0,1,.206-.4c.033-.064.073-.131.112-.2.1-.17.2-.34.312-.507.072-.109.145-.22.22-.329.2-.3.413-.6.611-.9l.025-.036c.067-.1.131-.2.192-.307s.1-.162.148-.242l.07-.123a.383.383,0,0,0,.033-.047c.031-.059.067-.123.1-.184l.036-.072a5.146,5.146,0,0,0,.217-.471c.028-.075.059-.148.081-.22s.02-.07.031-.1c.028-.089.056-.176.081-.279l.017-.064.017-.067c.014-.056.031-.111.042-.167a.17.17,0,0,1,0,.022,10.625,10.625,0,0,0-.095-4.363,30.649,30.649,0,0,0-1.082-4.067,8.828,8.828,0,0,1-.783-4.315,6.356,6.356,0,0,1,.413-1.274h0c.12-.279.245-.558.36-.853.067-.167.128-.337.187-.507l.05-.153c.028-.084.047-.167.07-.251l.017-.078v-.039h0a8.952,8.952,0,0,0,.134-2.673,12.259,12.259,0,0,0-1.8-5.969,7.69,7.69,0,0,0-2.612-2.45,5.806,5.806,0,0,0-1.09-.471c.031-.056.067-.109.1-.162a2.077,2.077,0,0,0,.22-.557,3.14,3.14,0,0,0-.106-1.38,23.65,23.65,0,0,0-1.9-5.762,7.937,7.937,0,0,0-4.4-3.984,26.215,26.215,0,0,1-2.941-.778c-.393-.178-.758-.418-1.14-.625a7.527,7.527,0,0,0-3.345-.917c-.229-.014-.452,0-.677,0h-.142a4.879,4.879,0,0,0-.557.053c-.232.031-.466.056-.683.1a.967.967,0,0,0-.889.73v.031a.229.229,0,0,1-.02.1c-.123-.02-.248-.039-.374-.053a12.391,12.391,0,0,0-1.372-.075,11.97,11.97,0,0,0-11.839,10.426,6.353,6.353,0,0,1-.775.061,12.819,12.819,0,0,1-3.127-.387l-1.79-.513h0s.017-.045.056-.134l.326-.248-.242.047c.4-.923,1.528-3.515,2.152-4.759.764-1.528,6.239-3.437,6.239-3.437,7.527-.382,13.381-5.854,13.381-5.854s15.645,2.545,25.318,1.773,12.988,2.294,12.988,2.294,6.37,17.448,16.941,12.712c7.953-3.56-6.236-13.724-13.743-18.535.432.242.859.493,1.277.761s.9.58,1.377.892c-.892-.6-1.742-1.157-2.523-1.656a25.646,25.646,0,0,0-8.536-3.5l-27.632-5.835H317.3a84.948,84.948,0,0,0-21.231,5.127c-8.193,3.136-17.721,7.482-18.63,8.363a44.134,44.134,0,0,1-6.113,4.711c-2.7.388-6.272,2.885-8.684,4.8l-.4.315c-.045-.212-.059-.34-.059-.34s-3.393,2.055-3.44,3.2-6.925,6.69-6.925,6.69-3.869,6.124-5.971,6.42-5.16,6.925-5.16,6.925l-3.624,7.117s-1.91,1.951-1.673,3.153-1.48,2.626-1.48,2.626-2.771,2.386-2.724,3.2-1.433,1.673-1.433,1.673a43.915,43.915,0,0,0-2.673,5.637.761.761,0,0,0,0,.46l-.036.017s-1.731,3.9-1.673,5.444a6.073,6.073,0,0,1-.939,2.947l-.128.047h.1c-.078.131-.131.209-.134.215h0A25.65,25.65,0,0,0,205.3,495c-11.271,2.478-10.518,9.077-10.518,9.077s.446,8.118,3.694,10.9,5.3,2.913,7.131,5.018,11.4,3.066,11.4,3.066,18.912.953,29.1,0,14.8-.956,14.8-.956,11.193-1.394,16.222-.51a72.257,72.257,0,0,0,12.163.638,2.9,2.9,0,0,0,.279-.764h.1a2.853,2.853,0,0,0,.279-.736,50.741,50.741,0,0,1,7.357-1.048,30.865,30.865,0,0,0,9.8-2.292s3.922.033,9.81,4.106,23.436,1.751,23.436,1.751l9.682-.764s6.364-1.02,8.405,1.656,7,3.694,8.659,0,9.425-10.825,9.425-10.825,7.134-4.078,10.315-14.644S377.79,499.183,376.393,500.452Zm-55.606-42.122c.538-.574.978-1.238,1.519-1.812.73-.772,1.639-1.36,2.361-2.138a4.459,4.459,0,0,0,.892-1.394l.017.031.151.4c.02.064.034.125.05.19s.033.148.047.223.017.084.022.125c.017.114.028.231.034.348v.56a1.777,1.777,0,0,1-.034.343,1.35,1.35,0,0,1-.031.209c-.011.07-.02.12-.031.178s-.019.112-.033.167v.017c-.028.123-.056.245-.086.368h0a8.471,8.471,0,0,1-.31.965c-.209.557-.454,1.115-.669,1.673h0c-.059.151-.114.3-.167.454-.022.067-.045.131-.07.2s-.047.153-.073.229v.033a7.624,7.624,0,0,0-.2.836.5.5,0,0,0,0,.064c0,.02,0,.042,0,.061l-.025.19v.137a1.8,1.8,0,0,1-.02.323v.162a2.6,2.6,0,0,0,.02.39.417.417,0,0,0,.019.153c.02.05,0,.123.02.184a.107.107,0,0,1,0,.028.884.884,0,0,0,.031.17c.011.056.031.164.047.248l.025.106a.626.626,0,0,0,.039.17c.017.056.02.078.031.117s0,.059.022.086l.042.151a.477.477,0,0,0,.036.123l.084.279c.028.081.053.162.078.242a8.491,8.491,0,0,1,.722,3.858h0a3.017,3.017,0,0,1-.059.309,7.375,7.375,0,0,1-1.712,2.763,47.7,47.7,0,0,0-2.894,3.839,10.952,10.952,0,0,0-.981,1.659h0c-.067.148-.128.3-.184.449l-.07.187a10.1,10.1,0,0,0,.036,4.7l1.065,6.4c.034.2.067.4.1.6l.033.22.025.173c.039.279.073.574.095.861v.086a2.431,2.431,0,0,0,.017.348v.558a2.1,2.1,0,0,1-.031.432v.033c-.017.148-.039.3-.067.44h0a4.1,4.1,0,0,1-.134.516,8.551,8.551,0,0,1-1.135,2.127h0l-.7-.251s-5.854-7.527-8.277-10.953-1.656-5.093-1.656-5.093c.382-5.985-4.2-10.571-6.5-11.708a6.663,6.663,0,0,1-2.286-2.331,3.387,3.387,0,0,1,.63.039l-.165-.4a.473.473,0,0,1,.165.02l-2.66-6.473a7.646,7.646,0,0,1,2.013-.571c.212-.033.427-.064.638-.089a11.888,11.888,0,0,0,5.355,2.158c.12.017.24.022.36.036-.031.042-.059.086-.084.128l-.034.067a.551.551,0,0,0-.036.084.561.561,0,0,0-.028.1v.061a.579.579,0,0,0,0,.17,4.448,4.448,0,0,1,3.128,1.115,1.971,1.971,0,0,0,.53.524,1.335,1.335,0,0,0,.574.086h1.235a21.883,21.883,0,0,0,4.31-.348A9.255,9.255,0,0,0,320.787,458.329Zm-23.433-.638a2.756,2.756,0,0,1,.58-.371C297.872,457.356,297.669,457.485,297.354,457.691Zm8.1,42.256c-5.684-3.432-9.169-2.038-9.169-2.038h-.636c-2.788,0-24.582-1.137-24.582-1.137h-.379a2.148,2.148,0,0,1,.379,0,6.5,6.5,0,0,0-.641-1.99,1.8,1.8,0,0,0-.128-.176,23.543,23.543,0,0,0,.675-5.787c-.145-2.721,0-5.2,0-5.2,5.924,2.038,14.1-2.066,14.217-2.13,6.412-1.8,8.921-.385,8.921-.385.51,2.291,6.242,11.97,6.242,11.97s5.221,3.947,7.248,7.006a8.731,8.731,0,0,0,1,1.221c-.318-.109-.622-.217-.909-.326A14.331,14.331,0,0,1,305.455,499.947Z" transform="translate(-81.536 -208.593)" fill="url(#linear-gradient)"/>
    <path id="Path_100" data-name="Path 100" d="M536.037,449.618c-10.4,4.658-16.662-12.5-16.662-12.5s-3.253-3.008-12.776-2.255-24.928-1.756-24.928-1.756-5.762,5.391-13.152,5.759c0,0-5.386,1.879-6.133,3.384-.61,1.221-1.72,3.772-2.116,4.678a1.777,1.777,0,0,1-.081.2c-.039.086-.056.134-.056.134l-.309.145h0l-6.205,2.98-8.516,2.384-5.389.624-9.144-6.336s1.057-.987,2.609-2.23c2.372-1.882,5.888-4.341,8.541-4.72a43.494,43.494,0,0,0,6.013-4.633c.895-.878,10.267-5.152,18.324-8.238a83.633,83.633,0,0,1,20.883-5.043l27.177,5.74a25.3,25.3,0,0,1,8.4,3.437C529.9,436.115,543.871,446.111,536.037,449.618Z" transform="translate(-251.6 -210.843)" fill="#ffc1c7"/>
    <g id="Group_18" data-name="Group 18" transform="translate(179.099 211.377)" opacity="0.1">
      <path id="Path_101" data-name="Path 101" d="M432.156,447.894s1.057-.99,2.609-2.23c2.372-1.882,5.888-4.341,8.542-4.72a43.481,43.481,0,0,0,6.013-4.633c.895-.881,10.267-5.152,18.324-8.238a83.507,83.507,0,0,1,20.883-5.021L515.7,428.79a25.263,25.263,0,0,1,8.4,3.44q.65.415,1.355.878c-.878-.591-1.715-1.14-2.481-1.631a25.284,25.284,0,0,0-8.4-3.437L487.4,422.3a83.6,83.6,0,0,0-20.883,5.043c-8.059,3.086-17.432,7.36-18.324,8.238a43.675,43.675,0,0,1-6.013,4.633c-2.654.379-6.172,2.838-8.542,4.719-1.553,1.235-2.609,2.23-2.609,2.23l9.144,6.336h.036Z" transform="translate(-431.03 -422.3)"/>
      <path id="Path_102" data-name="Path 102" d="M750.775,476.6a5.554,5.554,0,0,0-1.115-.705c.251.663,3.423,8.882,8.834,12.037C753.56,484.222,750.775,476.6,750.775,476.6Z" transform="translate(-660.836 -460.951)"/>
    </g>
    <path id="Path_103" data-name="Path 103" d="M649.185,552.067a4.38,4.38,0,0,1-.126.426c-.022.073-.053.145-.078.215a5.318,5.318,0,0,1-.24.51c-.036.075-.078.151-.114.223a.346.346,0,0,1-.031.047c-.039.073-.078.139-.12.206-.279.474-.6.926-.912,1.394-.1.151-.206.3-.3.46a.825.825,0,0,1-.058.092c-.053.086-.109.178-.159.279s-.089.151-.128.226-.045.078-.064.117l-.12.232a4.952,4.952,0,0,0-.332.906c-.429,1.77.329,3.585.945,5.3,1.243,3.474,1.929,7.36.753,10.828-.028.081-.056.164-.086.248s-.084.22-.128.329c-.067.167-.142.332-.226.5-.636,1.238-1.726,2.35-3.067,2.23-1.843-.161-2.737-2.419-4.416-3.189-1.458-.669-3.3-.123-4.675-.948a5.27,5.27,0,0,1,.465-1.079c.248-.457.558-.895.836-1.33a8.508,8.508,0,0,0,1.115-2.094,4.526,4.526,0,0,0,.131-.508.166.166,0,0,0,0-.039c.014-.086.031-.167.042-.254s.022-.164.031-.254a.2.2,0,0,0,0-.044,1.514,1.514,0,0,1,.02-.3,13.838,13.838,0,0,0-.279-2.8q-.522-3.144-1.048-6.289a9.877,9.877,0,0,1-.034-4.619c.036-.106.075-.212.114-.315s.086-.209.134-.309a10.945,10.945,0,0,1,.965-1.631q1.327-1.951,2.846-3.777a7.173,7.173,0,0,0,1.673-2.715,2.41,2.41,0,0,0,.061-.307,6.415,6.415,0,0,0-.457-3.016q-.064-.175-.117-.351c-.117-.346-.234-.694-.335-1.048-.033-.114-.064-.231-.095-.348a7.089,7.089,0,0,1-.142-.711,5.063,5.063,0,0,1-.061-.714V537.5a.883.883,0,0,1,.022-.254,2.616,2.616,0,0,0,.039-.279c.014-.1.022-.134.036-.2s.042-.2.07-.3a1.756,1.756,0,0,1,.064-.237c.014-.064.034-.128.05-.19l.072-.223.115-.323c.036-.106.078-.215.12-.321.209-.558.449-1.115.658-1.65a9.56,9.56,0,0,0,.3-.945h0a.929.929,0,0,1,.044-.184,1.807,1.807,0,0,0,.042-.187,2.05,2.05,0,0,0,.045-.234c.02-.1.039-.212.05-.318s.022-.215.031-.323,0-.215,0-.32a3.669,3.669,0,0,0-.159-1.115,2.67,2.67,0,0,0-.162-.429h0q-.073-.143-.159-.279c-.357-.58-.912-1.023-1.235-1.628a2.529,2.529,0,0,1-.279-1.2,2.316,2.316,0,0,1,.022-.34,2.155,2.155,0,0,1,.078-.34.9.9,0,0,1,.045-.131l.059-.134a1.485,1.485,0,0,1,.092-.162c.028-.036.053-.075.081-.109a1.239,1.239,0,0,1,1.419-.368l.159.053a5.885,5.885,0,0,1,1.07.466,7.573,7.573,0,0,1,2.57,2.409,12.068,12.068,0,0,1,1.773,5.871,8.95,8.95,0,0,1-.131,2.632.841.841,0,0,1-.025.114c-.022.084-.042.167-.07.248a15.407,15.407,0,0,1-.585,1.489h0a6.332,6.332,0,0,0-.407,1.254,8.717,8.717,0,0,0,.772,4.243,30.3,30.3,0,0,1,1.043,4.006A9.6,9.6,0,0,1,649.185,552.067Z" transform="translate(-399.401 -284.776)" fill="#965d7b"/>
    <g id="Group_19" data-name="Group 19" transform="translate(236.096 240.367)" opacity="0.1">
      <path id="Path_104" data-name="Path 104" d="M679.37,567.827a15.129,15.129,0,0,0,.588-1.494c.036-.12.07-.24.1-.362A10.858,10.858,0,0,0,679.37,567.827Z" transform="translate(-667.138 -554.908)"/>
      <path id="Path_105" data-name="Path 105" d="M657.423,530.335a4.336,4.336,0,0,1,.251,3.409c.022-.061.047-.12.07-.181a5.064,5.064,0,0,0,.056-4.354c-.36-.58-.917-1.026-1.238-1.628a2.558,2.558,0,0,1-.279-1.291,2.338,2.338,0,0,0-.084,2.42C656.506,529.312,657.063,529.755,657.423,530.335Z" transform="translate(-650.214 -526.29)"/>
      <path id="Path_106" data-name="Path 106" d="M675.906,626.511c-.014.061-.025.122-.036.187.613-1.3,1.695-2.406,2.23-3.755a5.4,5.4,0,0,0,.265-.873C677.648,623.606,676.291,624.852,675.906,626.511Z" transform="translate(-664.613 -595.369)"/>
      <path id="Path_107" data-name="Path 107" d="M648.252,694.383c-.574,1.416-1.77,2.857-3.3,2.724-1.843-.159-2.735-2.417-4.416-3.189-1.427-.655-3.222-.148-4.586-.9a5.42,5.42,0,0,0-.466,1.079c1.374.837,3.217.279,4.675.945,1.673.772,2.573,3.033,4.416,3.192,1.525.131,2.721-1.31,3.295-2.727a10.513,10.513,0,0,0,.393-1.171Z" transform="translate(-635.49 -646.541)"/>
      <path id="Path_108" data-name="Path 108" d="M640.563,635.836a10.375,10.375,0,0,1,.165,3.691,5.415,5.415,0,0,0,.242-.619,9.022,9.022,0,0,0-.03-4.2q-.522-3.145-1.048-6.292a11.163,11.163,0,0,1-.162-4.117,5.515,5.515,0,0,0-.248.627,9.906,9.906,0,0,0,.034,4.617Q640.042,632.694,640.563,635.836Z" transform="translate(-638.177 -596.978)"/>
      <path id="Path_109" data-name="Path 109" d="M658.179,570.373c.538-2.158-1.115-4.274-1.146-6.5a5.768,5.768,0,0,1,.22-1.528,7.23,7.23,0,0,0-.594,2.657c.019,2.118,1.528,4.139,1.2,6.2A3.977,3.977,0,0,0,658.179,570.373Z" transform="translate(-650.758 -552.297)"/>
    </g>
    <path id="Path_110" data-name="Path 110" d="M528.332,691.578c-3.131,10.4-10.147,14.4-10.147,14.4s-7.641,7.017-9.272,10.657-6.512,2.632-8.514,0-8.268-1.625-8.268-1.625l-9.523.75s-17.256,2.289-23.049-1.72S449.914,710,449.914,710a30.5,30.5,0,0,1-9.643,2.255,49.471,49.471,0,0,0-7.248,1.026c-1.33.279-2.492.558-3.326.755s-1.33.346-1.33.346L415.612,713.1l-12.048-1.218L397.051,711l-1.709-3.719L393.7,703.71l-.558-1.221.781-12.77h20.545s21.426,1.115,24.178,1.115h.625s3.426-1.371,9.018,2a14.212,14.212,0,0,0,2.23,1.009c8.887,3.32,33.857,7.636,33.857,7.636l16.169-1s9.091-3.312,14.217-5.494a18.313,18.313,0,0,0,3.32-1.645C519.437,692.08,531.463,681.18,528.332,691.578Z" transform="translate(-224.604 -401.922)" fill="#ffc1c7"/>
    <path id="Path_111" data-name="Path 111" d="M400.989,708.954l.99,3.524-3.384,1.834-3.242-.357-1.645-3.574-.558-1.221.78-12.771h20.532C410.177,696.775,400.989,708.954,400.989,708.954Z" transform="translate(-224.611 -408.604)" opacity="0.1"/>
    <path id="Path_112" data-name="Path 112" d="M336.676,686.026l.99,3.524-3.382,1.834-8.55-.939-4.605-3.711C313.6,674.521,304.5,674.468,304.5,674.468a6.367,6.367,0,0,0,1.082-3.15c-.047-1.5,1.656-5.355,1.656-5.355l.162-.078c.574-.279,2.523-1.243,2.646-1.285,0,0,38.657,6.247,39.41,6.484a.884.884,0,0,1,.449.415,6.327,6.327,0,0,1,.633,1.951C346.455,673.075,336.676,686.026,336.676,686.026Z" transform="translate(-160.674 -385.677)" fill="#565988"/>
    <path id="Path_113" data-name="Path 113" d="M491.08,523.387a20.264,20.264,0,0,0-3.4.215c-1.87.3-3.663,1.015-2.868,2.668,1.5,3.13-8.017,8.642-8.017,8.642l-13.281,8.519L455.25,530.9l4.262-10.147,11.9-6.013,6.518-3.128a15.714,15.714,0,0,0,4.851.886,3.837,3.837,0,0,0,2.665-.886C487.445,509.61,491.08,523.387,491.08,523.387Z" transform="translate(-269.4 -275.195)" fill="#ffc1c7"/>
    <path id="Path_114" data-name="Path 114" d="M562.071,523.387a20.263,20.263,0,0,0-3.4.215,11.822,11.822,0,0,1-4.906-11.1,3.836,3.836,0,0,0,2.665-.886C558.436,509.61,562.071,523.387,562.071,523.387Z" transform="translate(-340.39 -275.195)" opacity="0.1"/>
    <path id="Path_115" data-name="Path 115" d="M579.88,490.115a11.776,11.776,0,0,1-11.775,11.778,11.649,11.649,0,0,1-1.629-.114,11.775,11.775,0,0,1,1.632-23.439,12.776,12.776,0,0,1,1.349.075A11.781,11.781,0,0,1,579.88,490.115Z" transform="translate(-342.293 -251.34)" fill="#ffc1c7"/>
    <path id="Path_116" data-name="Path 116" d="M663.262,712.581c0,1.494-7.942,4.53-14.792,6.872a42.654,42.654,0,0,1-14.917,2.166,4.373,4.373,0,0,0-1.218.109c-1.879.5-26.3-5.263-26.3-5.263s-4.987-2.314-7.05-5.255c8.887,3.32,33.857,7.635,33.857,7.635l16.169-1s9.091-3.312,14.217-5.495A.441.441,0,0,1,663.262,712.581Z" transform="translate(-373.062 -419.293)" opacity="0.1"/>
    <path id="Path_117" data-name="Path 117" d="M518.2,568.84s1.754,4.608,4.009,5.734,6.763,5.637,6.39,11.524c0,0-.753,1.631,1.628,5.018s8.143,10.772,8.143,10.772,11.772,4.134,15.53,6.64h.014a44,44,0,0,1,8.667,2.161,17.226,17.226,0,0,0,5.35,1.1c3.883,0,23.927-5.26,23.927-2.632,0,1.5-7.942,4.533-14.794,6.874a42.694,42.694,0,0,1-14.914,2.158,4.47,4.47,0,0,0-1.218.109c-1.879.5-26.308-5.263-26.308-5.263s-5.149-2.378-7.153-5.4-7.137-6.877-7.137-6.877-5.637-9.52-6.133-11.775c0,0-2.88-1.628-10.4.875s-1.636-5.639-1.636-5.639l8.394-9.757Z" transform="translate(-301.658 -316.612)" fill="#ffc1c7"/>
    <path id="Path_118" data-name="Path 118" d="M452.045,527.5l-2.618-6.367a41.675,41.675,0,0,0-6.777,5.363c-3.133,3.131-5.263,5.018-6.766,5.386s-6.638,2.983-8.767-2.392-1.254-9.007.75-10.76,15.567-10,15.567-10l-1.781-.137s-12.4,4.341-16.283,2.358c0,0-6.891,1.151-8.394-1.355s-2.922-2.9-2.922-2.9l-9.1,12.3,3.259,27.183H416.6l9.018-3.507,12.026-1s4.51-4.26,5.138-6.264S448.173,526.878,452.045,527.5Z" transform="translate(-233.122 -271.794)" opacity="0.1"/>
    <path id="Path_119" data-name="Path 119" d="M452.045,526.16l-2.618-6.367a41.665,41.665,0,0,0-6.777,5.363c-3.133,3.133-5.263,5.018-6.766,5.386s-6.638,2.983-8.767-2.392-1.254-9.007.75-10.76,15.567-9.629,15.567-9.629l-1.781-.51s-12.4,4.338-16.283,2.356c0,0-6.891,1.151-8.394-1.355s-2.922-2.9-2.922-2.9l-9.1,12.3,3.259,27.183H416.6l9.018-3.507,12.026-1s4.51-4.257,5.138-6.261S448.173,525.528,452.045,526.16Z" transform="translate(-233.122 -270.821)" fill="#565988"/>
    <path id="Path_120" data-name="Path 120" d="M356.958,671.548c-.145.691-.262,1.135-.262,1.135s-.516-.189-6.855,1.034a37.651,37.651,0,0,1-12.637,0,72.859,72.859,0,0,1-10.9-2.116c-5.447-1.55-12.589-3.384-11.987-5.3.039-.111.078-.237.126-.359.574-.279,2.523-1.243,2.645-1.285,0,0,38.657,6.247,39.41,6.484A.884.884,0,0,1,356.958,671.548Z" transform="translate(-167.729 -385.72)" opacity="0.1"/>
    <path id="Path_121" data-name="Path 121" d="M385.042,519.731l2.174,4.915s-3.345-1.776-7.622,5.506-4.839,8.316-4.839,8.316-3.005,2.052-2.252,4.667c0,0-8.9,3.067-14.775,1.04a23.1,23.1,0,0,0-1.174,6.649,38.36,38.36,0,0,1,.022,4.3s1.673-1.268-4.672-.045a58.374,58.374,0,0,1-12.637.867A92.837,92.837,0,0,1,329,553.663c-5.45-1.55-13.905-1.151-13.295-3.066a43.767,43.767,0,0,1,2.632-5.542s1.455-.836,1.394-1.645,2.679-3.147,2.679-3.147,1.689-1.408,1.455-2.584,1.645-3.1,1.645-3.1l3.571-7s3.005-6.532,5.074-6.813,5.871-6.295,5.871-6.295,6.763-5.447,6.81-6.576,3.381-3.147,3.381-3.147.538,4.611,5.018,4.8,10.4,0,10.4,0l11.622-2.732s-5.09,4.6-6.267,4.931-4.711,2.866-6.512,3.345-5.461,2.938-5.319,6.451a10.729,10.729,0,0,0,1.363,5.3s3.663,6.969,7.326,6.133c0,0,4.092.22,5.732-2.208S385.042,519.731,385.042,519.731Z" transform="translate(-168.736 -270.388)" opacity="0.1"/>
    <path id="Path_122" data-name="Path 122" d="M460.487,505.457l-.318.242-.365.279h0l-6.205,2.98-8.516,2.383-5.389.624-9.144-6.336s1.057-.987,2.609-2.23a5.261,5.261,0,0,0,4.937,4.4c4.474.192,10.4,0,10.4,0l11.759-2.311Z" transform="translate(-251.585 -269.414)" opacity="0.1"/>
    <path id="Path_123" data-name="Path 123" d="M384.035,518.352l2.174,5.3s-3.722-2.149-8,5.132-4.837,8.313-4.837,8.313-2.632,2.428-1.879,5.043c0,0-8.129,4.118-14,2.1,0,0-.139,2.445,0,5.121a25.091,25.091,0,0,1-.8,6.247s-.518-.187-6.86,1.034a37.712,37.712,0,0,1-12.634,0,72.61,72.61,0,0,1-10.9-2.113c-5.447-1.55-12.589-3.384-11.987-5.3a42.888,42.888,0,0,1,2.632-5.545s1.455-.836,1.411-1.645,2.676-3.147,2.676-3.147,1.692-1.394,1.455-2.582,1.645-3.1,1.645-3.1l3.571-7s3.005-6.532,5.074-6.813,5.871-6.295,5.871-6.295,6.774-5.464,6.819-6.593,3.384-3.147,3.384-3.147.535,4.611,5.018,4.8,10.4,0,10.4,0L376.26,505.8s-5.464,4.226-6.638,4.555-4.714,2.866-6.515,3.345-5.464,2.96-5.325,6.484a10.637,10.637,0,0,0,1.363,5.3s3.663,6.953,7.329,6.108c0,0,4.09.217,5.729-2.208S384.035,518.352,384.035,518.352Z" transform="translate(-167.729 -269.386)" fill="#e8f4ff"/>
    <path id="Path_124" data-name="Path 124" d="M433.75,618.28s4.6,8.55,6.716,9.478,1.692-.658,1.692-.658S434.408,620.153,433.75,618.28Z" transform="translate(-253.893 -352.269)" opacity="0.1"/>
    <path id="Path_125" data-name="Path 125" d="M401.9,641.54s4.51,7.187,7.845,7.187Z" transform="translate(-230.922 -369.045)" opacity="0.1"/>
    <path id="Path_126" data-name="Path 126" d="M366.34,609.69s5.263,16.629,14.939,17.945C381.279,627.635,368.643,618.335,366.34,609.69Z" transform="translate(-205.275 -346.074)" opacity="0.1"/>
    <path id="Path_127" data-name="Path 127" d="M369.71,661.25s8.692,6.9,14,5.874C383.71,667.124,374.644,665.574,369.71,661.25Z" transform="translate(-207.706 -383.26)" opacity="0.1"/>
    <path id="Path_128" data-name="Path 128" d="M346.57,703.75s8.689,6.905,14,5.871C360.57,709.621,351.5,708.071,346.57,703.75Z" transform="translate(-191.016 -413.913)" opacity="0.1"/>
    <path id="Path_129" data-name="Path 129" d="M354.72,717.81s8.689,6.905,14,5.874C368.717,723.684,359.651,722.134,354.72,717.81Z" transform="translate(-196.894 -424.053)" opacity="0.1"/>
    <path id="Path_130" data-name="Path 130" d="M359.43,695s8.689,6.9,14,5.854C373.427,700.854,364.361,699.313,359.43,695Z" transform="translate(-200.292 -407.602)" opacity="0.1"/>
    <path id="Path_131" data-name="Path 131" d="M455.967,493.49l-5.447,7,.75,1.408Z" transform="translate(-256.805 -246.974)" opacity="0.1"/>
    <path id="Path_132" data-name="Path 132" d="M605.353,490.346a11.776,11.776,0,0,1-11.775,11.778,11.626,11.626,0,0,1-1.629-.115,2.85,2.85,0,0,0,.433-.658c.348-.973-1.115-1.988-.655-2.919a1.533,1.533,0,0,1,1.425-.636,2.268,2.268,0,0,0,1.558-.379c.46-.443.4-1.174.513-1.8a4.539,4.539,0,0,1,1.581-2.4,20.991,20.991,0,0,0,2.169-1.951,7.27,7.27,0,0,0,1.533-4.126,4.541,4.541,0,0,0-.507-2.788,6.814,6.814,0,0,0-2.389-1.876,6.551,6.551,0,0,1-2.08-1.815,3.062,3.062,0,0,1-.6-2A11.781,11.781,0,0,1,605.353,490.346Z" transform="translate(-367.765 -251.571)" opacity="0.1"/>
    <path id="Path_133" data-name="Path 133" d="M612.838,488.419a2.067,2.067,0,0,1-.22.558c-.028.05-.061.1-.092.156l-.17.259a2.514,2.514,0,0,0-.516,1.157,3.7,3.7,0,0,0,.432,1.477l.031.086h0a1.987,1.987,0,0,1,.064.212,2.431,2.431,0,0,1-.109,1.455h0a4.366,4.366,0,0,1-.878,1.394c-.711.767-1.606,1.346-2.322,2.1-.535.557-.967,1.218-1.5,1.781a8.991,8.991,0,0,1-4.8,2.45,21.838,21.838,0,0,1-4.24.343h-1.212a1.333,1.333,0,0,1-.558-.086,1.951,1.951,0,0,1-.521-.516,4.419,4.419,0,0,0-3.066-1.09.78.78,0,0,1,.184-.594,3.425,3.425,0,0,0,.457-.7c.352-.976-1.115-1.988-.652-2.924a.8.8,0,0,1,.173-.234.957.957,0,0,1,.153-.126,2.178,2.178,0,0,1,1.1-.279,5.313,5.313,0,0,0,.63-.025,1.489,1.489,0,0,0,.9-.351h0c.46-.438.4-1.171.513-1.8a4.51,4.51,0,0,1,1.581-2.4,20.667,20.667,0,0,0,2.169-1.951,7.27,7.27,0,0,0,1.533-4.123,4.536,4.536,0,0,0-.507-2.788,5.718,5.718,0,0,0-2.06-1.673l-.329-.2a7.724,7.724,0,0,1-1.648-1.274,5.094,5.094,0,0,1-.415-.585,3.141,3.141,0,0,1-.608-1.951.708.708,0,0,1,.022-.128c.164-.716.873-.725,1.544-.814.181-.022.36-.042.541-.053a6.965,6.965,0,0,1,.8,0,7.432,7.432,0,0,1,3.273.9c.373.2.73.44,1.115.616a26.625,26.625,0,0,0,2.894.764,7.791,7.791,0,0,1,4.326,3.92,23.308,23.308,0,0,1,1.868,5.667A3.111,3.111,0,0,1,612.838,488.419Z" transform="translate(-368.794 -249.067)" fill="#965d7b"/>
    <path id="Path_134" data-name="Path 134" d="M434.418,749.5a2.763,2.763,0,0,1-.279.725s-1.243.044-3.067.031a58.2,58.2,0,0,1-8.921-.655,29.075,29.075,0,0,0-5.177-.279L404.927,748.1l-6.512-.881-3.345-7.293c1.935.106,3.6.031,3.6.031,3.7-3.507,7.142-2.944,9.021-1.422a18.742,18.742,0,0,0,5.637,2.735c.167,0,5.706.117,9.269.19a16.709,16.709,0,0,1,7.878,2.107C434.636,745.89,434.7,748.321,434.418,749.5Z" transform="translate(-225.996 -438.142)" opacity="0.1"/>
    <path id="Path_135" data-name="Path 135" d="M232.185,690.143l-2.735,1a25.2,25.2,0,0,0-18.664-2.771c-11.087,2.442-10.334,8.957-10.334,8.957s.438,7.984,3.624,10.724,5.2,2.866,7.014,4.934S222.3,716,222.3,716s18.6.939,28.624,0,14.546-.94,14.546-.94,11.006-1.377,15.954-.5a70.37,70.37,0,0,0,11.965.627s2.068-3.423-3.649-6.66a16.665,16.665,0,0,0-7.878-2.108c-3.56-.075-9.1-.189-9.269-.189a18.712,18.712,0,0,1-5.637-2.735c-1.879-1.522-5.322-2.088-9.018,1.419,0,0-8.2.377-9.333-1.689s-6.953-8.55-6.953-8.55Z" transform="translate(-85.624 -402.354)" fill="#ffc1c7"/>
    <path id="Path_136" data-name="Path 136" d="M319.96,709.152s-.061,1.135,2.475.948c2.347-.176-6.953-8.55-6.953-8.55L306,697.02l-2.735,1.006S312.444,696.939,319.96,709.152Z" transform="translate(-159.787 -409.059)" opacity="0.1"/>
    <path id="Path_137" data-name="Path 137" d="M321.3,707.8s-.061,1.135,2.475.948c2.347-.173-6.952-8.55-6.952-8.55l-9.478-4.53-2.737,1.006S313.787,695.589,321.3,707.8Z" transform="translate(-160.754 -408.085)" fill="#565988"/>
    <path id="Path_138" data-name="Path 138" d="M267.88,710.062s2.693-1.377,6.64.346a31.758,31.758,0,0,0,4.343,1.508,27.909,27.909,0,0,1,6.785,2.835c2.749,1.6,6.479,3.515,8.553,3.515" transform="translate(-134.263 -418.089)" fill="none" stroke="#000" stroke-miterlimit="10" stroke-width="1" opacity="0.1"/>
    <path id="Path_139" data-name="Path 139" d="M598.029,501.847a1.279,1.279,0,0,1-.558-.087,1.876,1.876,0,0,1-.521-.516,4.426,4.426,0,0,0-3.066-1.087c-.089-.485.471-.836.639-1.294.354-.976-1.115-1.988-.652-2.922a1.544,1.544,0,0,1,1.427-.633,2.243,2.243,0,0,0,1.555-.382c.46-.44.4-1.174.516-1.8a4.5,4.5,0,0,1,1.578-2.4,20.669,20.669,0,0,0,2.172-1.951,7.3,7.3,0,0,0,1.533-4.123,4.574,4.574,0,0,0-.51-2.8,6.874,6.874,0,0,0-2.389-1.876,6.55,6.55,0,0,1-2.08-1.815,2.961,2.961,0,0,1-.585-2.077c.156-.683.876-.725,1.547-.814.2-.028.393-.045.594-.056a7.766,7.766,0,0,0-1.346.056c-.672.089-1.394.1-1.547.814a2.915,2.915,0,0,0,.588,2.077,6.548,6.548,0,0,0,2.08,1.815,7.222,7.222,0,0,1,2.372,1.862,4.5,4.5,0,0,1,.51,2.8,7.181,7.181,0,0,1-1.533,4.123,19.744,19.744,0,0,1-2.169,1.951,4.525,4.525,0,0,0-1.581,2.4c-.12.625-.056,1.358-.513,1.8a2.265,2.265,0,0,1-1.558.382,1.545,1.545,0,0,0-1.427.633c-.451.934,1.006,1.951.655,2.921-.17.463-.728.809-.641,1.294a4.347,4.347,0,0,1,3.066,1.087,1.8,1.8,0,0,0,.521.516,1.261,1.261,0,0,0,.558.086h1.218Z" transform="translate(-368.76 -249.084)" opacity="0.1"/>
    <path id="Path_140" data-name="Path 140" d="M662.087,529.853h0c.112-.357.237-.755.359-1.179a22.813,22.813,0,0,0,.817-3.432,5.867,5.867,0,0,0-1.07-.466c.031-.053.064-.106.092-.156l-.251.1v.312c-.02.53-.059,1.65-.084,2.634v.045c-.02.778-.031,1.466,0,1.712h0Z" transform="translate(-418.465 -284.719)" fill="#565988"/>
    <ellipse id="Ellipse_26" data-name="Ellipse 26" cx="12.132" cy="1.667" rx="12.132" ry="1.667" transform="translate(311.79 303.717)" fill="#ab79f9" opacity="0.1"/>
    <path id="Path_141" data-name="Path 141" d="M939.648,737.889a3.457,3.457,0,0,0,1.135-1.712,1.524,1.524,0,0,0-.795-1.745c-.728-.279-1.505.229-2.094.736a2.8,2.8,0,0,1-2.038.984,3.1,3.1,0,0,0,.951-2.9,1.2,1.2,0,0,0-.279-.591c-.4-.432-1.138-.245-1.62.095-1.539,1.081-1.968,3.172-1.977,5.054a9.436,9.436,0,0,1-.028-2.082,2.142,2.142,0,0,0-.783-1.843,2.364,2.364,0,0,0-1.193-.279,2.438,2.438,0,0,0-1.935.558,1.922,1.922,0,0,0,.078,2.375,7.492,7.492,0,0,0,2,1.6,4.462,4.462,0,0,1,1.43,1.366,1.474,1.474,0,0,1,.106.243h4.338A12,12,0,0,0,939.648,737.889Z" transform="translate(-610.806 -434.582)" fill="#6ec6ff"/>
    <ellipse id="Ellipse_27" data-name="Ellipse 27" cx="12.132" cy="1.667" rx="12.132" ry="1.667" transform="translate(350.581 310.873)" fill="#ab79f9" opacity="0.1"/>
    <path id="Path_142" data-name="Path 142" d="M1078.82,763.557a3.457,3.457,0,0,0,1.135-1.711,1.525,1.525,0,0,0-.795-1.745,2.221,2.221,0,0,0-2.093.736,2.8,2.8,0,0,1-2.038.984,3.1,3.1,0,0,0,.959-2.9,1.2,1.2,0,0,0-.279-.588c-.4-.432-1.137-.248-1.62.095-1.539,1.081-1.968,3.172-1.977,5.051a9.441,9.441,0,0,1-.028-2.08,2.145,2.145,0,0,0-.783-1.843,2.362,2.362,0,0,0-1.193-.279,2.449,2.449,0,0,0-1.935.558,1.922,1.922,0,0,0,.078,2.375,7.493,7.493,0,0,0,2,1.6,4.436,4.436,0,0,1,1.43,1.366,1.3,1.3,0,0,1,.106.243h4.338A12.087,12.087,0,0,0,1078.82,763.557Z" transform="translate(-711.187 -453.094)" fill="#6ec6ff"/>
    <ellipse id="Ellipse_28" data-name="Ellipse 28" cx="12.132" cy="1.667" rx="12.132" ry="1.667" transform="translate(326.314 325.918)" fill="#ab79f9" opacity="0.1"/>
    <path id="Path_143" data-name="Path 143" d="M991.774,817.529a3.456,3.456,0,0,0,1.135-1.712,1.519,1.519,0,0,0-.792-1.743,2.229,2.229,0,0,0-2.1.733,2.8,2.8,0,0,1-2.038.984,3.1,3.1,0,0,0,.959-2.9,1.2,1.2,0,0,0-.279-.591c-.4-.432-1.135-.245-1.62.095-1.539,1.082-1.968,3.173-1.976,5.054a9.468,9.468,0,0,1-.028-2.083,2.142,2.142,0,0,0-.783-1.843,2.352,2.352,0,0,0-1.191-.279,2.442,2.442,0,0,0-1.934.557,1.923,1.923,0,0,0,.075,2.375,7.5,7.5,0,0,0,2,1.6,4.432,4.432,0,0,1,1.43,1.366,1.11,1.11,0,0,1,.106.242h4.338A11.992,11.992,0,0,0,991.774,817.529Z" transform="translate(-648.407 -492.021)" fill="#6ec6ff"/>
    <ellipse id="Ellipse_29" data-name="Ellipse 29" cx="12.132" cy="1.667" rx="12.132" ry="1.667" transform="translate(80.258 300.997)" fill="#ab79f9" opacity="0.1"/>
    <path id="Path_144" data-name="Path 144" d="M109.107,728.127a3.437,3.437,0,0,0,1.135-1.712,1.525,1.525,0,0,0-.792-1.745c-.728-.279-1.505.226-2.1.736a2.8,2.8,0,0,1-2.038.984,3.1,3.1,0,0,0,.959-2.9A1.216,1.216,0,0,0,106,722.9c-.4-.432-1.137-.248-1.622.094-1.539,1.082-1.968,3.172-1.977,5.052a9.779,9.779,0,0,1-.028-2.08,2.158,2.158,0,0,0-.781-1.843,2.364,2.364,0,0,0-1.193-.279,2.444,2.444,0,0,0-1.935.557,1.922,1.922,0,0,0,.075,2.375,7.464,7.464,0,0,0,2,1.6,4.435,4.435,0,0,1,1.43,1.366,1.494,1.494,0,0,1,.106.243h4.346A12.1,12.1,0,0,0,109.107,728.127Z" transform="translate(-11.799 -427.54)" fill="#6ec6ff"/>
    <ellipse id="Ellipse_30" data-name="Ellipse 30" cx="12.132" cy="1.667" rx="12.132" ry="1.667" transform="translate(68.123 324.639)" fill="#ab79f9" opacity="0.1"/>
    <path id="Path_145" data-name="Path 145" d="M65.63,812.937a3.456,3.456,0,0,0,1.135-1.712,1.522,1.522,0,0,0-.792-1.745,2.225,2.225,0,0,0-2.1.736,2.8,2.8,0,0,1-2.038.984,3.1,3.1,0,0,0,.973-2.905,1.2,1.2,0,0,0-.279-.588c-.4-.432-1.135-.248-1.62.095-1.539,1.081-1.968,3.173-1.976,5.054a9.451,9.451,0,0,1-.028-2.082,2.142,2.142,0,0,0-.783-1.843,2.325,2.325,0,0,0-1.19-.279A2.421,2.421,0,0,0,55,809.21a1.922,1.922,0,0,0,.075,2.375,7.5,7.5,0,0,0,2,1.6,4.407,4.407,0,0,1,1.43,1.366,1.113,1.113,0,0,1,.106.243h4.335A12.1,12.1,0,0,0,65.63,812.937Z" transform="translate(19.545 -488.708)" fill="#6ec6ff"/>
  </g>
</svg>
