<svg id="Layer_1" data-name="Layer 1" xmlns="http://www.w3.org/2000/svg" viewBox="0 0 73 179"><g id="Layer_2" data-name="Layer 2"><g id="Layer_1-2" data-name="Layer 1-2"><path d="M44,26c.58,1.65-4.53,3.76-10.31,3.76S22.3,27.47,23.23,26s4.63-.37,10.41-.37S43.15,23.77,44,26Z" style="fill:#acceec"/><path d="M33.64,29.92c-5,0-9.75-1.68-10.56-3.12a.86.86,0,0,1,0-.9c.61-1,2.4-.87,5.37-.67,1.49.1,3.2.21,5.16.21A41,41,0,0,0,39,25c2.72-.37,4.52-.6,5.06,1a1.1,1.1,0,0,1-.2,1C42.91,28.39,38.69,29.92,33.64,29.92Zm-8-4.48c-1.2,0-2,.15-2.29.64a.52.52,0,0,0,0,.56c.74,1.34,5.49,3,10.26,3s9-1.46,10-2.82a.78.78,0,0,0,.16-.72c-.46-1.28-2-1.07-4.69-.72a40.39,40.39,0,0,1-5.49.46c-2,0-3.68-.11-5.18-.21C27.35,25.5,26.41,25.44,25.67,25.44Z" style="fill:#95c5e9"/><path d="M37.44,21.4c-.06,4.21-1.45,7.33,6.29,11-4.61,6.34-9.15,8.67-9.15,8.67s-9.71-4.36-13-7.25c1.73-1.26,3.55-2.21,5.15-3.35,3.16-2.23,1.3-7.16,1.91-9Z" style="fill:#f5a88d"/><path d="M38.87,7c-3.75-5.24-12.6-3.92-13.63,4.13S28.08,25.42,30.32,26c2,.56,4,.81,5.75-.34C40.53,22.67,42.25,11.76,38.87,7Z" style="fill:#f5a88d"/><path d="M27.92,1.69c-6,4.74-4.14,7.82-2.6,15.23-.63-4,4.06-10.43,3.29-8.8-2.48,5.17,1.14.32,6.42,2.52.37.16.67.09,2.15-.34s3.35,5.59,3.35,5.59c1.57-2.6,1.75-7.11,1.75-7.11C41.82,0,30.89-1.5,30.14,1.76,29.68,1.74,28.61,1.13,27.92,1.69Z" style="fill:#7c3c24"/><path d="M30.25,1.89a.19.19,0,0,1,.18.19,4.59,4.59,0,0,0,1.38,3.43.19.19,0,0,1,0,.26h0C31.21,6.37,29.3,1.85,30.25,1.89Z" style="fill:#692c1c"/><path d="M26,7.67c-.46-.07.32-3.22,2.89-4.78a.18.18,0,0,1,.19.31A6.26,6.26,0,0,0,26.2,7.51.2.2,0,0,1,26,7.67Z" style="fill:#692c1c"/><path d="M28.85,7.39a1.66,1.66,0,0,0,.47-1.7.19.19,0,0,1,.16-.22.18.18,0,0,1,.21.12,2,2,0,0,1-.64,2.12.19.19,0,1,1-.23-.3Z" style="fill:#692c1c"/><path d="M25.18,11.78c-.53-2.2-.68-2.29-.42-2.36s.33.37.78,2.27a.18.18,0,0,1-.15.21h0A.19.19,0,0,1,25.18,11.78Z" style="fill:#692c1c"/><path d="M36,2.46c-1-1-3.21-1.52-4.46-.72a.18.18,0,0,1-.26-.05h0c-.37-.58,3-1.42,5,.5a.2.2,0,0,1,0,.27A.19.19,0,0,1,36,2.46Z" style="fill:#692c1c"/><path d="M36.78,5.55a3.09,3.09,0,0,0-3.93-.3.18.18,0,0,1-.25,0h0c-.29-.42,2.63-1.8,4.46.1a.19.19,0,0,1,0,.26.18.18,0,0,1-.24,0Z" style="fill:#692c1c"/><path d="M32.75,2.77c1.56-.4,1.43.67,1,.42a1.37,1.37,0,0,0-1.61.39C31.92,4,31.33,3.15,32.75,2.77Z" style="fill:#692c1c"/><path d="M35,10a2.05,2.05,0,0,0-.88-2.26.18.18,0,0,1,.18-.32,2.41,2.41,0,0,1,1,2.7.2.2,0,0,1-.24.13A.21.21,0,0,1,35,10Z" style="fill:#692c1c"/><path d="M29.7,9.69c0-1.29,2-2.93,2.16-2.28a.18.18,0,0,1-.14.22,2.87,2.87,0,0,0-1.65,2.06.19.19,0,0,1-.37.05Z" style="fill:#692c1c"/><path d="M37.59,9.75a2.79,2.79,0,0,0,.49-3,.19.19,0,0,1,.35-.13A3.2,3.2,0,0,1,37.89,10a.19.19,0,0,1-.26,0h0A.2.2,0,0,1,37.59,9.75Z" style="fill:#692c1c"/><path d="M40.53,11.82c-.37-.14,0-.09.5-2.23a.19.19,0,0,1,.23-.14.19.19,0,0,1,.14.23C41.3,10,40.85,11.94,40.53,11.82Z" style="fill:#692c1c"/><path d="M41.09,7.17a4.92,4.92,0,0,0-2.23-3.28.19.19,0,0,1-.08-.25h0c.48-1,3.42,3.53,2.53,3.68a.19.19,0,0,1-.22-.15Z" style="fill:#692c1c"/><path d="M24.33,14.72c1.52-.44,1.62,2.75,1.62,4.33C26,22.17,21.93,15.43,24.33,14.72Z" style="fill:#f5a88d"/><path d="M24.65,16.28a.12.12,0,0,1,.15-.06.11.11,0,0,1,.07.13c-.27.88,0,1.39.37,1.59a.12.12,0,0,1,.05.16C25.08,18.46,24.27,17.54,24.65,16.28Z" style="fill:#ef7a5d"/><path d="M41.34,14.67c-1.52-.45-1.62,2.74-1.62,4.32C39.71,22.13,43.74,15.38,41.34,14.67Z" style="fill:#f5a88d"/><path d="M41,16.24a.11.11,0,0,0-.15-.06.11.11,0,0,0-.07.12c.27.88,0,1.4-.37,1.59a.13.13,0,0,0,0,.16C40.6,18.42,41.4,17.49,41,16.24Z" style="fill:#ef7a5d"/><path d="M29.31,16.07c-.5,0-.89-1.9.32-1.9C30.28,14.17,30.13,16.07,29.31,16.07Z" style="fill:#392924"/><path d="M36.73,16.15c.5,0,.89-1.89-.32-1.89C35.76,14.25,35.91,16.15,36.73,16.15Z" style="fill:#392924"/><path d="M28.64,24.8a.14.14,0,0,1,.2,0h0c1.3,1.7,5.94,2.28,8.15-.15a.15.15,0,0,1,.2,0,.17.17,0,0,1,0,.17C33.94,28.45,27.83,25.44,28.64,24.8Z" style="fill:#ef7a5d"/><path d="M31,12.26c-1.64-.65-4.86.7-3.94,1.05.3.11,1.25-.27,1.6-.31.7-.08,2,.23,2.41-.15a.37.37,0,0,0,0-.53Z" style="fill:#7c3c24"/><path d="M34.66,12.81c.42.39,1.71.13,2.4.23.35.05,1.29.47,1.59.37.93-.31-2.23-1.8-3.9-1.18a.37.37,0,0,0-.15.5h0Z" style="fill:#7c3c24"/><path d="M32.18,19.16c0-.21.31-.23.54-.28.82-.18.86.22.48-3.24-.08-.67-.19-1,0-1.05s.16.25.25,1c.42,3.76.42,3.3-1.11,3.67a.16.16,0,0,1-.2-.1h0Z" style="fill:#ef7a5d"/><path d="M30.78,22.1c-.23-.35.45-.26,4.5-.68C36.31,21.32,32.73,25,30.78,22.1Z" style="fill:#fff5ed"/><path d="M46.71,171.79a4,4,0,0,0,4.9.21l-.28-9.68-6.25.18Z" style="fill:#f5a88d"/><path d="M52.44,177.91c-.65.47-.56.34-14.7,1-2.84.14-3-1.32-1.49-2.23,2.23-1.39,10.3-5.85,10.81-5.55a5.38,5.38,0,0,0,2.23.82,12.31,12.31,0,0,1,2.46,0C52.72,173.68,54.05,176.74,52.44,177.91Z" style="fill:#f2e8de"/><path d="M37.39,179.12c-1.23,0-2-.34-2.23-.94s.21-1.17,1-1.65c1.16-.72,10.28-6,11-5.55a5.43,5.43,0,0,0,2.15.79c.43,0,.91,0,1.33-.05.9-.06,1.19-.06,1.29.13,1,1.78,2.36,5,.63,6.21-.55.4-.55.4-7.36.71l-7.43.34Zm9.55-7.82c-.74,0-8,3.94-10.6,5.54-.61.37-.93.87-.81,1.23s1,.72,2.2.67l7.45-.34c6.62-.3,6.69-.31,7.15-.64,1.49-1.08.21-4-.71-5.69a6.16,6.16,0,0,0-1,0c-.43,0-.92.06-1.37,0A5.4,5.4,0,0,1,47,171.3Z" style="fill:#fffffc"/><path d="M53.09,175.28c.53,2.49-.87,2.86-1.76,3-.37.05-14.69,1.14-15.55.37a1,1,0,0,1-.45-.83Z" style="fill:#f2e8de"/><path d="M53.11,175.28a4,4,0,0,1,.18,1.29,1.87,1.87,0,0,1-.49,1.27,2.4,2.4,0,0,1-1.24.62c-.46.09-.87.11-1.3.16-1.72.18-3.43.29-5.16.41s-3.44.15-5.16.14c-.87,0-1.73,0-2.61-.1a8,8,0,0,1-1.29-.2l-.17-.06a.54.54,0,0,1-.16-.1,1.75,1.75,0,0,1-.23-.24.86.86,0,0,1-.17-.64h0a.79.79,0,0,0,.21.58,2.28,2.28,0,0,0,.22.22l.14.07.15.05a7.81,7.81,0,0,0,1.28.12c.86,0,1.72,0,2.58,0,1.72,0,3.44-.12,5.15-.22s3.44-.2,5.15-.32c.43,0,.87-.06,1.29-.13a2.12,2.12,0,0,0,1.14-.51,1.7,1.7,0,0,0,.51-1.14,4.49,4.49,0,0,0-.1-1.27Z" style="fill:#fffffc"/><path d="M43.77,172.86a4.55,4.55,0,0,0,1.9,1.46Z" style="fill:#f2e8de"/><path d="M45.6,174.49a4.62,4.62,0,0,1-2-1.52l.3-.22a4.4,4.4,0,0,0,1.82,1.4Z" style="fill:#fffffc"/><path d="M42.39,173.71c0,.57,1.11,1.28,1.64,1.52Z" style="fill:#f2e8de"/><path d="M44,175.39s-1.81-.84-1.76-1.7l.37,0c0,.39.88,1,1.54,1.34Z" style="fill:#fffffc"/><path d="M40.9,174.55a3,3,0,0,0,1.81,1.4Z" style="fill:#f2e8de"/><path d="M42.63,176.13a3.22,3.22,0,0,1-1.91-1.51l.35-.14a2.81,2.81,0,0,0,1.68,1.29l0,.18Z" style="fill:#fffffc"/><path d="M36.86,176.75c.28,1.28,2.14,1.08,3.45,1.09Z" style="fill:#f2e8de"/><path d="M39.32,178c-1.16,0-2.4-.12-2.64-1.24l.37-.07c.22,1,1.58.95,2.79.93h.48V178h-1Z" style="fill:#fffffc"/><path d="M23.61,175.2a4.73,4.73,0,0,1,.18,1.29,2,2,0,0,1-.49,1.27,2.4,2.4,0,0,1-1.24.62c-.46.09-.87.11-1.31.17-1.71.17-3.43.28-5.15.4s-3.44.16-5.17.14c-.86,0-1.72,0-2.6-.1a8.17,8.17,0,0,1-1.3-.2l-.16-.06a.59.59,0,0,1-.17-.1,1.26,1.26,0,0,1-.22-.24.82.82,0,0,1-.18-.64h0a.8.8,0,0,0,.21.58l.23.23.14.07.15,0a7.82,7.82,0,0,0,1.28.13c.86,0,1.71,0,2.58,0,1.71,0,3.43-.12,5.15-.22s3.44-.2,5.15-.33c.43,0,.86-.05,1.28-.12a2.12,2.12,0,0,0,1.15-.51,1.75,1.75,0,0,0,.5-1.14,4.58,4.58,0,0,0-.09-1.28Z" style="fill:#fff"/><polygon points="17.12 171.66 22.07 172.13 22.95 162.94 16.9 163.11 17.12 171.66" style="fill:#f5a88d"/><path d="M22.94,177.83c-.66.48-.56.35-14.71,1-2.83.13-2.95-1.33-1.49-2.23,2.23-1.39,10.3-5.85,10.81-5.55,1.45.85,2.19,1,4.46.67C22.38,171.69,24.89,176.41,22.94,177.83Z" style="fill:#f2e8de"/><path d="M7.89,179c-1.23,0-2-.33-2.23-.93s.2-1.18,1-1.66c1.15-.71,10.27-6,11-5.55,1.36.8,2.05,1,4.34.65.47-.07,1.25,1.83,1.28,1.91.41,1,1.21,3.49-.22,4.52-.55.41-.55.41-7.35.71L8.25,179Zm9.55-7.82c-.75,0-8,3.95-10.6,5.55-.61.37-.93.86-.81,1.23s1,.74,2.19.66l7.45-.34c6.63-.3,6.69-.3,7.16-.64l.11.15-.11-.15a2,2,0,0,0,.65-1.82A8,8,0,0,0,22,171.93c-2.23.3-3,.17-4.53-.71Z" style="fill:#fffffc"/><path d="M16.17,174.43H16.1a4.51,4.51,0,0,1-2-1.52.19.19,0,0,1,0-.26h0a.19.19,0,0,1,.26,0,4.29,4.29,0,0,0,1.83,1.4.18.18,0,0,1,.1.23h0A.18.18,0,0,1,16.17,174.43Z" style="fill:#fff"/><path d="M14.52,175.33h-.08s-1.81-.84-1.75-1.7a.17.17,0,0,1,.19-.17h0a.17.17,0,0,1,.17.19h0c0,.38.88,1,1.54,1.34a.19.19,0,0,1,.1.24h0A.19.19,0,0,1,14.52,175.33Z" style="fill:#fff"/><path d="M13.12,176.05a3.17,3.17,0,0,1-1.9-1.51.19.19,0,0,1,.1-.24.18.18,0,0,1,.24.11h0a2.91,2.91,0,0,0,1.68,1.29l0,.18Z" style="fill:#fff"/><path d="M9.81,178c-1.16,0-2.39-.12-2.63-1.23a.18.18,0,0,1,.14-.22h0a.18.18,0,0,1,.22.14c.21,1,1.58,1,2.78.94h.48a.18.18,0,0,1,.19.18.18.18,0,0,1-.19.19Z" style="fill:#fff"/><path d="M51.56,71c0,1.68,2.43,98.9,1.11,99-1,.09-7.33.57-7.54-.39C37.56,135.09,34,101.32,34,101.32c-4.2,26.65.49,26.26-10.29,67.75-.22.84-7.81,1.34-7.81.08,0-7.8.43-102.49,0-95.77C20.87,73,51.56,71,51.56,71Z" style="fill:#231f20"/><path d="M48.53,170.46c-1.76,0-3.44-.16-3.57-.74-6.64-30.27-10.22-60.25-11-67q-1.5,10-2,20.07c-.6,10.15-1.17,19.73-8.08,46.34-.22.84-4.67,1.13-6.6.88-1.07-.14-1.58-.42-1.58-.85,0-9.33.37-88.58.08-95.58h-.1v-.21c0-.37,0-.53.24-.52s.16,0,.2.33l35.4-2.32h.19v.57c.16,6.58.71,29.75,1.12,51.83.82,46.9.21,47-.15,47C52.54,170.26,50.49,170.46,48.53,170.46ZM34,99.89l.15,1.41c0,.33,3.63,34.16,11.13,68.33.12.57,4.35.53,7.26.26.82-2.34-.13-54.33-1.2-98.48v-.18l-35.21,2.3c0,.55,0,1.54.06,3.32,0,2.31,0,5.73.05,10.14,0,7.5,0,18,0,31.27-.05,21.86-.14,44.47-.17,50.88,0,.11.2.27.76.4,2.1.46,6.48-.07,6.69-.53,6.91-26.57,7.48-36.13,8.08-46.26a198.41,198.41,0,0,1,2.23-21.48Z" style="fill:#3e4b61"/><path d="M34.08,97.83a.2.2,0,0,1-.19-.18A72.56,72.56,0,0,1,33.55,83c.18-2.79.29-4.46-.48-5.85a.19.19,0,0,1,.07-.26h0a.2.2,0,0,1,.27.07h0c.82,1.49.71,3.21.52,6.06a72,72,0,0,0,.34,14.6.21.21,0,0,1-.16.22h0Z" style="fill:#3e4b61"/><path d="M22.42,168.32h-.05a.2.2,0,0,1-.14-.23h0c5-19.3,6.37-35.84,7.4-47.89.68-8,1.17-13.7,2.38-17.12a.19.19,0,0,1,.24-.12h0a.18.18,0,0,1,.12.23h0c-1.2,3.36-1.69,9.09-2.36,17-1,12.08-2.44,28.64-7.41,48A.2.2,0,0,1,22.42,168.32Z" style="fill:#3e4b61"/><path d="M16.64,96.11a.2.2,0,0,1-.19-.19.21.21,0,0,1,.08-.16h0c4.36-3.2,4.37-4.27,4.43-10.17,0-.7,0-1.45,0-2.28a.2.2,0,0,1,.19-.19h0a.2.2,0,0,1,.2.2c0,.83,0,1.58,0,2.27-.06,5.94-.07,7.16-4.59,10.48A.16.16,0,0,1,16.64,96.11Z" style="fill:#3e4b61"/><path d="M51.46,96.05l-.74,0c-5-.16-5-.29-5.08-7.14,0-.9,0-1.92-.06-3.06a.2.2,0,0,1,.13-.24h0a.2.2,0,0,1,.24.13.2.2,0,0,1,0,.11C46,87,46,88,46,88.88c.05,3.35.07,5,.65,5.86s1.72.83,4.06.91l.74,0a.2.2,0,0,1,.13.24.21.21,0,0,1-.13.13Z" style="fill:#3e4b61"/><path d="M34.18,100.68h0a.26.26,0,0,1-.23-.2,2.51,2.51,0,0,0-2.07-1.81.19.19,0,0,1-.11-.25.21.21,0,0,1,.16-.13,2.89,2.89,0,0,1,2.31,1.81c1-1.86,2.46-2.23,3.45-1.95a.2.2,0,0,1,.14.23h0a.21.21,0,0,1-.24.14c-.89-.25-2.23.12-3.13,2A.28.28,0,0,1,34.18,100.68Z" style="fill:#3e4b61"/><path d="M22.32,40c.54,11.24-.86,45.6-12.33,49.23C-6.73,92.63,4.1,77.37,3.25,69.58,2.56,63.33,6.59,57.9,6.27,54c-.75-8.51,1.85-12.5,4.79-15.81,1.63-1.86,2.74-3.6,5.46-3.85C18.92,34.13,22.22,37.7,22.32,40Z" style="fill:#acceec"/><path d="M5.85,89.9c-2,0-3.44-.47-4.32-1.41-2-2.14-.94-6.26.22-10.62.77-2.93,1.57-6,1.32-8.27-.39-3.57.74-6.86,1.73-9.76.77-2.23,1.44-4.16,1.29-5.82-.78-8.76,2.09-12.83,4.83-15.94l.61-.72c1.36-1.6,2.54-3,5-3.2a4.87,4.87,0,0,1,3.39,1.46A7.09,7.09,0,0,1,22.49,40a146.72,146.72,0,0,1-1.66,27.5c-1.47,8.9-4.52,19.92-10.78,21.92A21.22,21.22,0,0,1,5.85,89.9Zm10.9-55.38h-.2c-2.28.22-3.41,1.54-4.71,3.07l-.63.72C8.52,41.37,5.7,45.37,6.47,54c.15,1.73-.52,3.71-1.3,6-1,2.87-2.1,6.11-1.72,9.6C3.71,71.93,2.9,75,2.12,78,1,82-.07,86.24,1.81,88.23c1.32,1.39,4,1.66,8.17.81C20.69,85.64,22.83,53.94,22.16,40a6.81,6.81,0,0,0-2.49-4.11A4.94,4.94,0,0,0,16.75,34.52Z" style="fill:#95c5e9"/><path d="M26.69,30.47c2.29,5.64,11.37,5.67,13.71,0,2.6.11,8.54,1.85,10.13,3,3.66,2.56,7,52.81,1.73,56.61-12.78,1-23.47.23-36.36-1.26-7.92-2.16-.62-53.85-.52-54.23C18.46,33,27.06,30.34,26.69,30.47Z" style="fill:#acceec"/><path d="M40.79,90.67A212.68,212.68,0,0,1,15.89,89C7.7,86.74,15.08,35,15.21,34.52l0-.08.08,0a89,89,0,0,1,11.14-4l.19-.06v0h.17l.09.07v.09a7,7,0,0,0,6.62,4.06h0a7,7,0,0,0,6.69-4.13l0-.12h.13c2.6.11,8.62,1.88,10.23,3,2.36,1.65,4.4,21.33,4.53,36.53,0,6.82-.24,18.53-2.8,20.38l0,0h-.06C48.27,90.54,44.49,90.67,40.79,90.67Zm-25.24-56c-.35,2.23-7.17,51.85.4,53.92,12.89,1.48,23.46,2.23,36.24,1.26,1.74-1.36,2.69-8.66,2.6-20.05C54.65,53.31,52.46,35,50.43,33.59c-1.55-1.09-7.3-2.77-9.9-3a7.37,7.37,0,0,1-7,4.24,7.28,7.28,0,0,1-6.92-4.2A102.48,102.48,0,0,0,15.55,34.69Z" style="fill:#95c5e9"/><path d="M71.27,59.76c.63,1.4,1.75,5.15,1.37,6.64-.29,1.12-2.49,7.85-7.39,10-5.16,2.23-6.8,8.78-11,5.48-2.28-2.9-3.74-9.09-3.74-9.09-2.55-5.79,2.89-2.68,7-8.35.74-1,.68-1.53-.4-2.42-10-8.28-6.61-28.45-6.61-28.45,5.87-.62,13,11.29,14.43,17C65.83,54.57,69.68,56.28,71.27,59.76Z" style="fill:#acceec"/><path d="M56.43,83a3.82,3.82,0,0,1-2.34-1l0,0c-2.29-2.89-3.72-8.92-3.79-9.16-.64-1.46-.8-2.43-.52-3.13s1.19-1.11,2.27-1.56a10.48,10.48,0,0,0,5.26-3.81c.69-1,.63-1.35-.37-2.17-10-8.24-6.72-28.42-6.69-28.61l0-.14h.14C56.62,32.73,63.69,45.13,65,50.55c.54,2.2,2,3.71,3.41,5.2a15,15,0,0,1,3,4c.59,1.3,1.79,5.18,1.38,6.76,0,.08-2.12,7.77-7.5,10.11a15.16,15.16,0,0,0-4.7,3.67C59.23,81.66,58,83,56.43,83Zm-2.09-1.24c2.46,1.91,3.95.38,6-1.75a15.52,15.52,0,0,1,4.83-3.76c5.21-2.26,7.27-9.78,7.29-9.85.37-1.39-.7-5.06-1.36-6.52A15,15,0,0,0,68.19,56c-1.45-1.52-3-3.08-3.51-5.38-1.44-6-8.51-17.28-14.09-16.89-.27,1.81-2.79,20.39,6.57,28.13,1.15.95,1.24,1.55.43,2.68a10.8,10.8,0,0,1-5.42,3.94c-1,.41-1.8.71-2.06,1.35s-.07,1.49.53,2.87c0,.09,1.48,6.2,3.71,9Z" style="fill:#95c5e9"/><path d="M21.54,32.83c-1.61-1.73-.74-3.9,2.87-3.19a.4.4,0,0,0,.48-.31h0v-.06c0-.81-2.69-3.14-1.4-3.34,3.1-.49,8.39,8.78,10.11,8.78,2.13,0,3.19-4.59,4.46-6.14.46-.57,4.35-5.06,5.69-3.18.74,1,0,2,.37,3.17s1.28-1.15,2.3-.21c1.33,1.24,1.14,3.55,0,5C42.62,38,25.86,37.47,21.54,32.83Z" style="fill:#acceec"/><path d="M35.09,36.77C30,36.77,23.89,35.63,21.4,33a2.25,2.25,0,0,1-.62-2.6c.51-.92,1.85-1.25,3.67-.89a.27.27,0,0,0,.19,0,.24.24,0,0,0,.07-.16,4,4,0,0,0-.81-1.33c-.58-.78-1.08-1.44-.91-1.86a.59.59,0,0,1,.47-.32c1.94-.31,4.49,2.75,6.75,5.45,1.36,1.64,2.77,3.35,3.39,3.35,1.3,0,2.23-2,3-3.72a12.28,12.28,0,0,1,1.28-2.33s3.1-3.77,5-3.72a1.17,1.17,0,0,1,1,.51,2.45,2.45,0,0,1,.33,1.85,3.38,3.38,0,0,0,0,1.38c.06.18.11.2.11.2a1.34,1.34,0,0,0,.44-.27c.42-.33,1.05-.82,1.7-.22,1.44,1.34,1.18,3.79,0,5.23-1.51,1.9-5.25,3.13-10.22,3.29Zm-12-7.06a2.17,2.17,0,0,0-2,.84,2,2,0,0,0,.58,2.18c2.23,2.39,8.22,3.9,14.58,3.67,4.8-.18,8.53-1.36,10-3.17,1.06-1.31,1.31-3.52,0-4.72-.37-.37-.74-.14-1.21.24-.28.22-.53.41-.78.33a.58.58,0,0,1-.35-.45,3.55,3.55,0,0,1-.07-1.52,2.07,2.07,0,0,0-.26-1.59.85.85,0,0,0-.69-.37h0c-1.44,0-3.9,2.63-4.66,3.57A12,12,0,0,0,37,31c-.86,1.86-1.86,4-3.36,4-.75,0-1.9-1.31-3.69-3.46-2.06-2.52-4.66-5.65-6.38-5.36a.21.21,0,0,0-.18.09c-.1.24.48,1,.86,1.51a3.55,3.55,0,0,1,.88,1.56.58.58,0,0,1-.21.44.59.59,0,0,1-.49.13,6.75,6.75,0,0,0-1.26-.14Z" style="fill:#95c5e9"/><path d="M3.63,90.25c1.85.19,4.2,0,5.14-.6-.16,6.64-.24,3.14.37,5.52.34,1.34,2.51,6.09,1.59,7.08C10,103,9.2,100.8,8.58,99.5c-.85-1.8-3.3,1.69-.45,5.62.28.38,1.83,2.19.63,3.21a12.56,12.56,0,0,1-3.19-4c.85,2.6.49,4.42-.11,4.29-1.09-.24-2.47-9.51-.87-14C4.78,94.11,4.7,94.1,3.63,90.25Z" style="fill:#f5a789"/><polygon points="51.65 79 47.18 80.6 45.18 75.82 49.87 73.72 51.65 79" style="fill:#f5a789"/><path d="M3,89.23a11.91,11.91,0,0,0,7,0c.29,1.76.09,2.63-1.05,3.69C8.41,93.44,2.09,95.14,3,89.23Z" style="fill:#95c5e9"/><path d="M48.54,80.44c.37.37,2.5.22,4.42-.58-.83-1.18-1.92-4.93-2.63-7.66-.44.19-2.85,2.12-3.48,2.61C46.48,75.14,47.38,79.26,48.54,80.44Z" style="fill:#95c5e9"/><path d="M42.89,89a22.53,22.53,0,0,1-5.64-.86l-2.57-.58A57.08,57.08,0,0,0,18.25,87c-.85.07-1.12-.37-1.72-1.39-.24-.4-.54-.91-1-1.54a1.33,1.33,0,0,1,.16-1.68c3.15-3.2,4.91-9.9,5.38-11.87a1.09,1.09,0,0,1,1.2-.83c7.43,1,14.09,1.68,20.61.25a1,1,0,0,1,.84.16,1.09,1.09,0,0,1,.46.72,29.82,29.82,0,0,0,5.24,13c.56.77.11,1.62-.41,2.6-.21.39-.42.8-.61,1.25a1.31,1.31,0,0,1-1,.81A28.71,28.71,0,0,1,42.89,89ZM25.42,86.31a45.59,45.59,0,0,1,9.33.87c1,.21,1.83.41,2.58.59a20.59,20.59,0,0,0,10,.42,1,1,0,0,0,.74-.58,12.72,12.72,0,0,1,.62-1.29c.48-.91.86-1.63.44-2.22a30.24,30.24,0,0,1-5.3-13.2.71.71,0,0,0-.3-.48.67.67,0,0,0-.55-.1c-6.58,1.45-13.29.74-20.74-.24a.7.7,0,0,0-.79.54c-.61,2.57-2.35,8.87-5.48,12a1,1,0,0,0-.11,1.21c.43.64.74,1.15,1,1.56.61,1,.77,1.26,1.37,1.21,2.16-.18,4.62-.35,7.22-.35Z" style="fill:#95c5e9"/><path d="M34.05,35.65c-2.89,0-4.92-2-6.73-3.79a16.7,16.7,0,0,0-2-1.82.2.2,0,0,1,0-.26.18.18,0,0,1,.26-.05h0a18.31,18.31,0,0,1,2.07,1.86c1.75,1.73,3.72,3.68,6.47,3.68h.19c2.75-.08,5.85-2.1,9.47-6.16a.19.19,0,0,1,.26,0h0a.19.19,0,0,1,0,.26c-3.69,4.14-6.88,6.2-9.73,6.29Z" style="fill:#95c5e9"/><path d="M62.18,65.14a.18.18,0,0,1-.15-.08c-1.24-1.83-2.35-2.47-3.47-2a.29.29,0,0,1-.37-.09c-.32-.47,1.22-3,2.47-4.27a.18.18,0,0,1,.25,0h0a.19.19,0,0,1,0,.26h0a11.42,11.42,0,0,0-2.4,3.71c1.69-.6,3,.95,3.82,2.18a.18.18,0,0,1,0,.26h0A.17.17,0,0,1,62.18,65.14Z" style="fill:#95c5e9"/><path d="M47.22,53.84c-6.61,19.79-26.93,5.65-28.27,0-.94-4,3.74-7.59,11.55-7.59S48.53,50,47.22,53.84Z" style="fill:#95c5e9"/><path d="M35.41,64.2h-.6c-7.31-.33-15.15-6.65-16-10.3a4.57,4.57,0,0,1,.95-4c1.86-2.36,5.89-3.77,10.78-3.77,6.66,0,14.33,2.54,16.41,5.44a2.52,2.52,0,0,1,.47,2.36C44.58,62.32,39.44,64.2,35.41,64.2ZM30.5,46.44c-4.77,0-8.69,1.36-10.49,3.63a4.29,4.29,0,0,0-.89,3.74c.74,3.18,8.32,9.71,15.7,10,4,.18,9.35-1.42,12.24-10.06a2.25,2.25,0,0,0-.42-2.06C44.65,49,37,46.44,30.5,46.44Z" style="fill:#95c5e9"/><path d="M31.87,36.53c-1.58,0-.91-2-.19-2A1,1,0,0,1,31.87,36.53Z" style="fill:#f0bfaa"/><path d="M31.87,36.7a1.17,1.17,0,0,1-.87-.31,1,1,0,0,1-.26-.71c0-.6.42-1.31.94-1.31a1.21,1.21,0,0,1,.92.37,1.16,1.16,0,0,1,.29.78A1.13,1.13,0,0,1,31.87,36.7Zm-.19-2c-.28,0-.61.52-.61,1a.73.73,0,0,0,.17.47.89.89,0,0,0,.63.21c.41,0,.67-.45.67-.86a.83.83,0,0,0-.18-.55A.89.89,0,0,0,31.68,34.71Z" style="fill:#f0bfaa"/><path d="M36.4,36.22c1.58,0,.91-2,.19-2A1,1,0,0,0,36.4,36.22Z" style="fill:#f0bfaa"/><path d="M36.4,36.38a1.13,1.13,0,0,1-1-1.2,1.16,1.16,0,0,1,.29-.78,1.27,1.27,0,0,1,.92-.35c.53,0,.95.72.95,1.31a1,1,0,0,1-.27.71A1.16,1.16,0,0,1,36.4,36.38Zm.19-2a.84.84,0,0,0-.67.25.75.75,0,0,0-.19.54c0,.41.25.86.67.86a.89.89,0,0,0,.63-.19.68.68,0,0,0,.16-.49C37.19,34.91,36.87,34.39,36.59,34.39Z" style="fill:#f0bfaa"/><path d="M32.07,37.76c-1,2.17-.77,15.45-1.57,8.49-.45-3.93-.26-4.81-.13-5.46,1.22-5.95.19-6.42,1.93-5.56C32.75,35.47,32.67,36.47,32.07,37.76Z" style="fill:#fffffc"/><path d="M36.2,37.5c1,2.19.77,15.45,1.56,8.51.45-3.93.25-4.81.12-5.47C36.67,34.6,37.7,34.12,36,35,35.53,35.21,35.6,36.22,36.2,37.5Z" style="fill:#fffffc"/></g></g></svg>
