<svg xmlns="http://www.w3.org/2000/svg" viewBox="0 0 195.11 481.7"><g id="Layer_2" data-name="Layer 2"><g id="Layer_1-2" data-name="Layer 1"><path d="M117.19,69.48C118.76,73.91,105,79.6,89.45,79.6s-30.51-6.13-28-10.14c2.25-3.65,12.44-1,28-1S115.06,63.49,117.19,69.48Z" style="fill:#abceed"/><path d="M89.45,80.06c-13.35,0-26.24-4.52-28.41-8.41a2.29,2.29,0,0,1,0-2.43c1.63-2.64,6.46-2.32,14.46-1.79,4,.26,8.61.56,13.88.56A108.61,108.61,0,0,0,104,66.79c7.31-1,12.14-1.62,13.61,2.54a3,3,0,0,1-.53,2.77C114.39,75.93,103.05,80.06,89.45,80.06ZM68,68c-3.21,0-5.34.4-6.15,1.72a1.38,1.38,0,0,0,0,1.5c2,3.6,14.77,8,27.61,8s24.31-3.92,26.89-7.58a2.09,2.09,0,0,0,.42-1.94c-1.23-3.46-5.52-2.89-12.63-1.94a108.18,108.18,0,0,1-14.77,1.22c-5.3,0-9.89-.31-13.94-.57C72.52,68.15,70,68,68,68Z" style="fill:#95c6ea"/><path d="M99.67,57.13c-.14,11.33-3.89,19.73,16.94,29.54C104.21,103.73,92,110,92,110S65.87,98.27,56.89,90.49c4.67-3.4,9.55-5.94,13.86-9,8.51-6,3.49-19.27,5.15-24.18Z" style="fill:#fda98b"/><path d="M103.52,18.45C93.43,4.34,69.62,7.91,66.85,29.56,64.1,51,74.5,67.94,80.53,69.59,86,71.09,91.4,71.75,96,68.66,108,60.53,112.62,31.18,103.52,18.45Z" style="fill:#fda98b"/><path d="M74.06,4.07c-16,12.76-11.13,21.05-7,41C65.38,34.28,78,17,75.93,21.38c-6.68,13.91,3.06.87,17.27,6.79,1,.42,1.79.23,5.79-.93S108,42.29,108,42.29c4.23-7,4.73-19.13,4.73-19.13C111.46-.51,82.06-4.5,80.05,4.28,78.81,4.23,75.93,2.58,74.06,4.07Z" style="fill:#7b3b23"/><path d="M80.34,4.62a.5.5,0,0,1,.47.52,12.46,12.46,0,0,0,3.72,9.22.5.5,0,0,1,0,.71C82.92,16.67,77.78,4.51,80.34,4.62Z" style="fill:#682c1c"/><path d="M68.86,20.17c-1.22-.19.88-8.65,7.78-12.87a.5.5,0,0,1,.52.85,16.8,16.8,0,0,0-7.73,11.6A.5.5,0,0,1,68.86,20.17Z" style="fill:#682c1c"/><path d="M76.56,19.43a4.5,4.5,0,0,0,1.28-4.58.5.5,0,0,1,1-.27,5.42,5.42,0,0,1-1.74,5.71A.5.5,0,0,1,76.56,19.43Z" style="fill:#682c1c"/><path d="M66.7,31.23c-1.43-5.92-1.85-6.15-1.14-6.35s.88,1,2.11,6.12A.5.5,0,0,1,66.7,31.23Z" style="fill:#682c1c"/><path d="M95.71,6.15C93,3.51,87.06,2.06,83.7,4.22A.5.5,0,0,1,83,4.07C82,2.51,91.14.26,96.41,5.44A.5.5,0,0,1,95.71,6.15Z" style="fill:#682c1c"/><path d="M97.92,14.48c-3.39-3.53-8.19-2.42-10.59-.82a.49.49,0,0,1-.69-.13c-.76-1.13,7.09-4.86,12,.26A.5.5,0,0,1,97.92,14.48Z" style="fill:#682c1c"/><path d="M87.06,7c4.2-1.1,3.86,1.79,2.76,1.12s-3.63-.24-4.35,1.06C84.84,10.33,83.23,8,87.06,7Z" style="fill:#682c1c"/><path d="M93.16,26.51a5.49,5.49,0,0,0-2.35-6.08.5.5,0,0,1,.47-.88,6.47,6.47,0,0,1,2.84,7.26A.5.5,0,0,1,93.16,26.51Z" style="fill:#682c1c"/><path d="M78.86,25.61c0-3.47,5.44-7.87,5.81-6.14a.52.52,0,0,1-.39.6c-1.64.34-4.43,3.55-4.43,5.54A.5.5,0,1,1,78.86,25.61Z" style="fill:#682c1c"/><path d="M100.1,25.77a7.61,7.61,0,0,0,1.31-8,.5.5,0,0,1,.94-.34,8.61,8.61,0,0,1-1.45,8.9A.5.5,0,0,1,100.1,25.77Z" style="fill:#682c1c"/><path d="M108,31.34c-1-.38,0-.25,1.34-6a.5.5,0,0,1,1,.24C110.08,26.53,108.86,31.67,108,31.34Z" style="fill:#682c1c"/><path d="M109.51,18.82c-.51-3.1-3-7.35-6-8.83a.5.5,0,0,1-.23-.67c1.29-2.69,9.22,9.52,6.82,9.91A.5.5,0,0,1,109.51,18.82Z" style="fill:#682c1c"/><path d="M64.4,39.15c4.1-1.2,4.36,7.39,4.37,11.65C68.79,59.2,57.94,41.05,64.4,39.15Z" style="fill:#fda98b"/><path d="M65.27,43.35a.31.31,0,0,1,.59.18c-.72,2.36,0,3.75,1,4.28a.31.31,0,0,1,.12.42C66.41,49.22,64.24,46.73,65.27,43.35Z" style="fill:#ee795c"/><path d="M110.19,39c-4.1-1.2-4.36,7.39-4.37,11.65C105.8,59.09,116.65,40.93,110.19,39Z" style="fill:#fda98b"/><path d="M109.32,43.23a.31.31,0,0,0-.59.18c.72,2.37,0,3.75-1,4.28a.31.31,0,0,0-.12.42C108.18,49.11,110.35,46.61,109.32,43.23Z" style="fill:#ee795c"/><path d="M77.8,42.78c-1.34,0-2.39-5.11.87-5.11C80.41,37.67,80,42.78,77.8,42.78Z" style="fill:#382823"/><path d="M97.76,43c1.35,0,2.4-5.1-.86-5.1C95.16,37.88,95.57,43,97.76,43Z" style="fill:#382823"/><path d="M76,66.27a.38.38,0,0,1,.54.07c3.52,4.57,16,6.12,21.93-.4a.39.39,0,0,1,.57.52C90.26,76.09,73.82,68,76,66.27Z" style="fill:#ee795c"/><path d="M82.22,32.52c-4.42-1.75-13.08,1.89-10.61,2.82.81.3,3.37-.72,4.31-.82,1.88-.21,5.31.61,6.49-.41A1,1,0,0,0,82.22,32.52Z" style="fill:#7b3b23"/><path d="M92.2,34c1.14,1.06,4.6.36,6.47.63.93.14,3.46,1.25,4.28,1,2.5-.85-6-4.84-10.5-3.19A1,1,0,0,0,92.2,34Z" style="fill:#7b3b23"/><path d="M85.54,51.1c-.13-.57.83-.62,1.43-.75,2.22-.5,2.32.59,1.29-8.72-.2-1.82-.51-2.79.14-2.84s.45.68.68,2.75c1.12,10.11,1.14,8.87-3,9.87A.42.42,0,0,1,85.54,51.1Z" style="fill:#ee795c"/><path d="M81.77,59c-.63-.93,1.21-.7,12.09-1.83C96.65,56.9,87,66.79,81.77,59Z" style="fill:#fff5ed"/><path d="M124.64,461.82c3.76,2.9,7.87,3.63,13.17.58l-.75-26.06-16.81.48Z" style="fill:#fda98b"/><path d="M140.05,478.3c-1.75,1.27-1.5.92-39.57,2.73-7.62.36-8-3.57-4-6,6-3.74,27.71-15.75,29.09-14.94,1.15.68,3.93,2.18,6,2.21,2.85.06,6.39-.5,6.63,0C140.8,466.93,144.38,475.14,140.05,478.3Z" style="fill:#f2e8de"/><path d="M99.56,481.55c-3.31,0-5.47-.9-6-2.52-.46-1.46.54-3.16,2.61-4.45,3.1-1.93,27.64-16.1,29.61-14.94,1.08.63,3.8,2.11,5.79,2.14,1.17,0,2.45-.06,3.58-.13,2.42-.16,3.2-.18,3.48.33,2.63,4.79,6.34,13.33,1.68,16.72-1.48,1.08-1.48,1.08-19.79,1.91-5.1.23-11.64.52-20,.92C100.18,481.55,99.86,481.55,99.56,481.55Zm25.69-21.05c-2,0-21.59,10.62-28.52,14.93-1.64,1-2.5,2.32-2.19,3.3.4,1.29,2.61,1.95,5.92,1.8,8.4-.4,14.94-.69,20.05-.92,17.83-.8,18-.82,19.24-1.72,4-2.91.56-10.79-1.9-15.31a16.37,16.37,0,0,0-2.6.07c-1.16.07-2.46.15-3.67.13-2.15,0-4.86-1.44-6.28-2.28Z" style="fill:#fffffb"/><path d="M141.8,471.23c1.42,6.69-2.35,7.69-4.74,8-1,.15-39.54,3.07-41.85,1a2.75,2.75,0,0,1-1.2-2.22Z" style="fill:#f2e8de"/><path d="M141.85,471.22a11.27,11.27,0,0,1,.49,3.48,5.14,5.14,0,0,1-1.32,3.42,6.45,6.45,0,0,1-3.33,1.65c-1.24.24-2.34.31-3.51.45-4.62.48-9.24.78-13.87,1.1s-9.26.41-13.91.37c-2.32,0-4.65-.08-7-.26a21.26,21.26,0,0,1-3.49-.55l-.44-.15a2.07,2.07,0,0,1-.45-.27,5.48,5.48,0,0,1-.6-.66,2.28,2.28,0,0,1-.48-1.71h.1a2.09,2.09,0,0,0,.56,1.55,5,5,0,0,0,.61.6,2.53,2.53,0,0,0,.36.2l.41.11a20.88,20.88,0,0,0,3.44.34c2.32.1,4.63.06,6.94,0,4.63-.11,9.26-.33,13.88-.6s9.24-.54,13.86-.87c1.15-.11,2.32-.14,3.45-.33a5.79,5.79,0,0,0,3.08-1.38,4.7,4.7,0,0,0,1.36-3.07,12,12,0,0,0-.26-3.43Z" style="fill:#fffffb"/><path d="M116.72,464.72a12,12,0,0,0,5.11,3.91Z" style="fill:#f2e8de"/><path d="M121.65,469.1a12.48,12.48,0,0,1-5.33-4.08l.8-.6a11.48,11.48,0,0,0,4.9,3.75Z" style="fill:#fffffb"/><path d="M113,467c-.1,1.54,3,3.44,4.43,4.08Z" style="fill:#f2e8de"/><path d="M117.19,471.52s-4.87-2.25-4.72-4.57l1,.06c-.06,1.05,2.37,2.8,4.14,3.6Z" style="fill:#fffffb"/><path d="M109,469.26c.85,2.11,3.19,3.07,4.86,3.77Z" style="fill:#f2e8de"/><path d="M113.64,473.5c-1.82-.77-4.2-1.78-5.12-4.05l.93-.38c.76,1.89,2.92,2.8,4.51,3.47l-.12.49Z" style="fill:#fffffb"/><path d="M98.12,475.19c.75,3.44,5.76,2.9,9.28,2.91Z" style="fill:#f2e8de"/><path d="M104.74,478.62c-3.12,0-6.45-.33-7.1-3.32l1-.21c.58,2.63,4.25,2.57,7.5,2.52.44,0,.9,0,1.29,0v1c-.41,0-.84,0-1.28,0Z" style="fill:#fffffb"/><path d="M62.46,471a11.32,11.32,0,0,1,.48,3.49,5.15,5.15,0,0,1-1.32,3.42,6.45,6.45,0,0,1-3.33,1.65c-1.24.24-2.34.3-3.51.45-4.61.48-9.24.77-13.86,1.1s-9.27.41-13.92.37c-2.32,0-4.64-.08-7-.26a22.33,22.33,0,0,1-3.5-.55l-.44-.15a2.47,2.47,0,0,1-.44-.27,5.48,5.48,0,0,1-.61-.66,2.33,2.33,0,0,1-.48-1.71h.1a2.15,2.15,0,0,0,.56,1.56,5,5,0,0,0,.61.6,2.58,2.58,0,0,0,.37.19l.41.12a20.67,20.67,0,0,0,3.44.34c2.31.09,4.62.06,6.94,0,4.62-.1,9.25-.33,13.87-.59s9.25-.54,13.86-.88c1.15-.1,2.32-.13,3.45-.32a5.87,5.87,0,0,0,3.09-1.39,4.69,4.69,0,0,0,1.35-3.06,12.46,12.46,0,0,0-.25-3.44Z" style="fill:#fff"/><polygon points="45.01 461.48 58.32 462.75 60.69 438.02 44.41 438.48 45.01 461.48" style="fill:#fda98b"/><path d="M60.65,478.09c-1.75,1.28-1.5.93-39.57,2.74-7.62.36-7.95-3.57-4-6,6-3.73,27.71-15.75,29.09-14.94,3.9,2.3,5.87,2.67,12,1.82C59.15,461.55,65.9,474.27,60.65,478.09Z" style="fill:#f2e8de"/><path d="M20.16,481.35c-3.31,0-5.46-.9-6-2.52-.45-1.46.55-3.16,2.62-4.45,3.09-1.93,27.64-16.1,29.6-14.95,3.66,2.15,5.52,2.61,11.67,1.76,1.28-.19,3.36,4.92,3.45,5.14,1.1,2.73,3.25,9.38-.59,12.17-1.48,1.08-1.48,1.08-19.78,1.9l-20,.93Zm25.69-21.06c-2,0-21.58,10.63-28.52,14.94-1.63,1-2.49,2.31-2.18,3.3.4,1.28,2.61,2,5.91,1.8l20.05-.93c17.83-.8,18-.81,19.25-1.71l.29.4-.29-.4c1.29-.94,1.88-2.59,1.75-4.9-.25-4.6-3.21-10-4-10.59-6,.82-8.16.47-12.2-1.9Z" style="fill:#fffffb"/><path d="M42.44,468.93a.41.41,0,0,1-.19,0,12.33,12.33,0,0,1-5.33-4.08.5.5,0,0,1,.1-.7.51.51,0,0,1,.7.1,11.5,11.5,0,0,0,4.9,3.76.49.49,0,0,1,.28.64A.5.5,0,0,1,42.44,468.93Z" style="fill:#fff"/><path d="M38,471.36a.45.45,0,0,1-.2,0s-4.87-2.25-4.73-4.58a.49.49,0,0,1,.53-.46.5.5,0,0,1,.47.53c-.07,1.05,2.36,2.8,4.13,3.59a.5.5,0,0,1,.26.66A.51.51,0,0,1,38,471.36Z" style="fill:#fff"/><path d="M34.25,473.29c-1.82-.77-4.21-1.78-5.13-4.05a.5.5,0,0,1,.93-.37c.76,1.88,2.93,2.8,4.51,3.47l-.12.49Z" style="fill:#fff"/><path d="M25.34,478.42c-3.12,0-6.45-.34-7.1-3.32a.5.5,0,0,1,.38-.6.52.52,0,0,1,.6.39c.57,2.63,4.24,2.57,7.49,2.52.44,0,.9,0,1.29,0a.5.5,0,0,1,.5.5.5.5,0,0,1-.5.5c-.41,0-.84,0-1.27,0Z" style="fill:#fff"/><path d="M137.68,190.72c.11,4.52,6.55,266.12,3,266.46-2.57.25-19.74,1.54-20.31-1.05C100,363.08,90.46,272.18,90.46,272.18c-11.3,71.74,1.32,70.67-27.71,182.34-.58,2.26-21,3.59-21,.21.09-21,1.14-275.81,0-257.72C55.1,196.1,137.68,190.72,137.68,190.72Z" style="fill:#231f20"/><path d="M129.52,458.25c-4.74,0-9.25-.43-9.6-2C102.05,374.81,92.43,294.12,90.38,276A534.83,534.83,0,0,0,85,330c-1.62,27.31-3.15,53.1-21.76,124.7-.59,2.26-12.55,3.05-17.76,2.38-2.87-.38-4.26-1.13-4.25-2.3.1-25.1,1-238.37.23-257.2l-.27,0,0-.57c.07-1,.07-1.43.63-1.39.28,0,.44,0,.54.87,15.17-1,94.44-6.19,95.26-6.24l.52,0,0,1.54c.43,17.7,1.91,80.07,3,139.48,2.21,126.22.58,126.38-.4,126.47C140.33,457.72,134.79,458.25,129.52,458.25Zm-39-189.91.4,3.79c.1.91,9.76,91.93,29.94,183.89.33,1.53,11.72,1.43,19.55.69,2.19-6.29-.37-146.21-3.25-265v-.5c-6.92.45-80.18,5.23-94.73,6.21.08,1.48.1,4.14.15,8.92.06,6.23.11,15.41.13,27.29,0,20.19,0,48.5-.06,84.16-.13,58.81-.38,119.66-.45,136.9,0,.31.54.75,2.06,1.08,5.64,1.24,17.42-.18,18-1.42,18.59-71.5,20.12-97.24,21.74-124.5a531.18,531.18,0,0,1,6-57.78Z" style="fill:#3d4a61"/><path d="M90.63,262.79a.51.51,0,0,1-.51-.46,196,196,0,0,1-.9-39.47c.48-7.5.77-12-1.29-15.75a.51.51,0,0,1,.2-.7.52.52,0,0,1,.71.2c2.21,4,1.92,8.63,1.42,16.31a195.52,195.52,0,0,0,.89,39.29.51.51,0,0,1-.45.58Z" style="fill:#3d4a61"/><path d="M59.26,452.49a.32.32,0,0,1-.13,0,.51.51,0,0,1-.37-.63C72.1,399.94,75.9,355.44,78.67,323c1.82-21.4,3.14-36.87,6.4-46.06a.51.51,0,0,1,.67-.31.51.51,0,0,1,.31.66c-3.21,9.06-4.53,24.47-6.35,45.8-2.77,32.53-6.57,77.07-19.93,129.06A.53.53,0,0,1,59.26,452.49Z" style="fill:#3d4a61"/><path d="M43.72,258.17a.51.51,0,0,1-.42-.21.52.52,0,0,1,.11-.73c11.74-8.62,11.77-11.49,11.93-27.38,0-1.86,0-3.88.08-6.11a.52.52,0,0,1,.52-.52.53.53,0,0,1,.52.53c0,2.23-.06,4.26-.08,6.11-.16,16-.19,19.28-12.35,28.21A.5.5,0,0,1,43.72,258.17Z" style="fill:#3d4a61"/><path d="M137.42,258l-2-.06c-13.42-.45-13.42-.8-13.68-19.23,0-2.42-.07-5.15-.14-8.24a.52.52,0,1,1,1,0c.07,3.1.11,5.84.14,8.25.13,9,.19,13.56,1.75,15.76s4.64,2.24,10.92,2.45l1.95.06a.52.52,0,0,1,0,1Z" style="fill:#3d4a61"/><path d="M90.9,270.47h-.06a.72.72,0,0,1-.64-.55,6.79,6.79,0,0,0-5.55-4.87.52.52,0,0,1,.12-1A7.79,7.79,0,0,1,91,268.9c2.66-5,6.61-6,9.28-5.23a.52.52,0,0,1,.36.64.53.53,0,0,1-.64.37c-2.4-.67-6,.34-8.41,5.38A.72.72,0,0,1,90.9,270.47Z" style="fill:#3d4a61"/><path d="M59,107.17c1.46,30.26-2.33,122.72-33.18,132.49-45,9.15-15.85-31.92-18.15-52.87-1.85-16.83,9-31.45,8.12-41.92-2-22.89,5-33.63,12.9-42.54,4.4-5,7.39-9.68,14.69-10.36C49.84,91.37,58.73,101,59,107.17Z" style="fill:#abceed"/><path d="M14.67,241.46c-5.41,0-9.25-1.26-11.63-3.78-5.45-5.77-2.51-16.86.59-28.6,2.09-7.89,4.24-16,3.56-22.24-1.06-9.61,2-18.46,4.67-26.26,2.06-6,3.85-11.22,3.45-15.67-2.1-23.58,5.62-34.52,13-42.91.58-.65,1.12-1.3,1.66-1.93,3.65-4.29,6.81-8,13.36-8.6,2.69-.25,5.93,1.14,9.13,3.91,4,3.51,6.87,8.24,7,11.77.84,17.42-.2,48-4.48,74-3.94,23.95-12.17,53.61-29,59A58,58,0,0,1,14.67,241.46ZM44,92.44a4.58,4.58,0,0,0-.53,0c-6.14.57-9.18,4.13-12.69,8.25-.54.64-1.09,1.28-1.67,1.94-7.26,8.24-14.84,19-12.77,42.16.41,4.67-1.41,10-3.51,16.08-2.65,7.71-5.65,16.44-4.61,25.83.7,6.39-1.48,14.63-3.59,22.6-2.9,11-5.9,22.3-.84,27.66,3.55,3.75,10.74,4.47,22,2.18,28.83-9.13,34.59-94.45,32.78-132-.15-3.22-2.91-7.77-6.7-11.06C49.09,93.76,46.27,92.44,44,92.44Z" style="fill:#95c6ea"/><path d="M70.75,81.52c6.16,15.2,30.59,15.26,36.89,0,7,.3,23,5,27.28,8,9.85,6.88,18.76,142.13,4.64,152.34-34.4,2.6-63.15.62-97.84-3.39-21.32-5.82-1.67-144.92-1.4-145.92C48.62,88.2,71.75,81.19,70.75,81.52Z" style="fill:#abceed"/><path d="M108.7,243.54c-22,0-43-1.8-67-4.58-22.06-6-2.2-145.18-1.84-146.54l.06-.21.2-.1c5.57-2.92,25.31-9.83,30-10.89l.51-.17,0,.06s0-.07,0-.07l0,.07a.89.89,0,0,1,.44,0l.25.18,0,.23c3.36,8,11.39,10.91,17.82,10.93h.07c6.5,0,14.63-2.91,18-11.11l.14-.32h.34c7,.3,23.21,5.06,27.55,8.09,6.34,4.44,11.84,57.41,12.17,98.31.14,18.35-.64,49.87-7.53,54.85l-.11.08h-.14C128.84,243.17,118.66,243.54,108.7,243.54ZM40.77,92.88c-.93,6-19.29,139.54,1.09,145.1,34.67,4,63.13,6,97.51,3.39,4.7-3.66,7.25-23.29,7-53.94C146,143,140.1,93.75,134.63,89.93,130.47,87,115,82.47,108,82c-3.08,7.07-10.28,11.41-18.88,11.4s-15.6-4.35-18.63-11.31C67.34,83.08,48.37,89,40.77,92.88Z" style="fill:#95c6ea"/><path d="M190.71,160.36c1.72,3.76,4.72,13.86,3.69,17.87-.77,3-6.68,21.11-19.89,26.86-13.87,6-18.29,23.62-29.72,14.73-6.15-7.79-10.08-24.47-10.08-24.47-6.84-15.56,7.79-7.2,18.77-22.45,2-2.8,1.84-4.13-1.07-6.53-26.92-22.26-17.79-76.56-17.79-76.56,15.79-1.67,35.06,30.38,38.83,45.79C176.08,146.39,186.43,151,190.71,160.36Z" style="fill:#abceed"/><path d="M150.79,222.78a10.34,10.34,0,0,1-6.31-2.57l-.08-.08c-6.15-7.79-10-24-10.18-24.66-1.73-3.92-2.17-6.55-1.4-8.42.88-2.13,3.19-3,6.11-4.19,4-1.57,9.44-3.72,14.14-10.26,1.87-2.6,1.7-3.63-1-5.84-26.84-22.19-18.07-76.48-18-77l.07-.37.37,0c16.78-1.77,35.82,31.6,39.37,46.17,1.45,5.93,5.38,10,9.18,14,3,3.17,6.15,6.45,8.06,10.63,1.6,3.51,4.81,13.95,3.72,18.2-.06.21-5.71,20.9-20.18,27.2-5.28,2.3-9.2,6.33-12.65,9.88C158.31,219.28,154.91,222.78,150.79,222.78Zm-5.64-3.32c6.62,5.12,10.63,1,16.19-4.72,3.52-3.63,7.51-7.73,13-10.11,14-6.1,19.56-26.32,19.61-26.52,1-3.74-1.87-13.62-3.66-17.54s-4.91-7.25-7.87-10.36c-3.9-4.08-7.92-8.3-9.43-14.49-3.89-16-22.89-46.5-37.91-45.44-.73,4.88-7.53,54.86,17.68,75.71,3.08,2.54,3.34,4.16,1.15,7.2-4.87,6.77-10.48,9-14.58,10.6-2.81,1.11-4.84,1.9-5.55,3.64-.65,1.58-.2,4,1.42,7.72C135.24,195.4,139.16,211.83,145.15,219.46Z" style="fill:#95c6ea"/><path d="M56.9,87.89c-4.33-4.65-2-10.49,7.72-8.58a1.09,1.09,0,0,0,1.31-1c0-2.18-7.24-8.46-3.78-9C70.49,68,84.73,92.94,89.36,92.94c5.71,0,8.57-12.34,12-16.52,1.24-1.53,11.71-13.62,15.3-8.55,2,2.75,0,5.27,1,8.51s3.44-3.09,6.18-.55c3.6,3.34,3.08,9.56,0,13.39C113.62,101.85,68.51,100.36,56.9,87.89Z" style="fill:#abceed"/><path d="M93.35,98.49c-13.68,0-30.13-3.08-36.82-10.26-2.16-2.32-2.8-5-1.69-7,1.38-2.48,5-3.36,9.88-2.4a.63.63,0,0,0,.51-.13.55.55,0,0,0,.2-.42c0-.69-1.15-2.23-2.18-3.59-1.56-2.08-2.91-3.88-2.44-5.05a1.49,1.49,0,0,1,1.26-.85c5.21-.81,12.07,7.43,18.15,14.71,3.67,4.4,7.47,9,9.14,9,3.48,0,6-5.34,8.15-10a32.87,32.87,0,0,1,3.43-6.28c.08-.1,8.35-10.14,13.45-10A3.21,3.21,0,0,1,117,67.58c1.22,1.71,1,3.36.87,5a9,9,0,0,0,.15,3.7c.15.49.29.54.29.54.2,0,.82-.43,1.19-.72,1.12-.88,2.81-2.22,4.56-.59,3.89,3.6,3.17,10.18.05,14.06C120,94.7,109.94,98,96.55,98.44,95.51,98.47,94.44,98.49,93.35,98.49Zm-32.21-19c-2.66,0-4.61.79-5.42,2.26s-.31,3.86,1.54,5.85c6,6.45,22.14,10.51,39.25,9.89,12.91-.48,22.95-3.67,26.86-8.54,2.84-3.52,3.53-9.47,0-12.7-1-1-2-.37-3.26.64-.76.6-1.42,1.11-2.11.9a1.61,1.61,0,0,1-.94-1.21,9.78,9.78,0,0,1-.19-4.09c.16-1.55.3-2.88-.69-4.28a2.25,2.25,0,0,0-1.87-1h-.1c-3.86,0-10.5,7.09-12.54,9.6a32.25,32.25,0,0,0-3.3,6.07c-2.32,5-5,10.63-9.06,10.63-2,0-5.09-3.54-9.91-9.31C73.84,77.41,66.85,69,62.23,69.77c-.19,0-.43.1-.49.24-.26.65,1.29,2.7,2.31,4.06,1.28,1.71,2.39,3.18,2.38,4.21a1.58,1.58,0,0,1-.57,1.19,1.64,1.64,0,0,1-1.33.33A17.72,17.72,0,0,0,61.14,79.44Z" style="fill:#95c6ea"/><path d="M8.69,242.41c5,.51,11.31-.1,13.84-1.63-.42,17.89-.64,8.46,1,14.86.92,3.62,6.75,16.4,4.28,19.05-1.87,2-4.12-3.91-5.78-7.4-2.31-4.83-8.89,4.56-1.22,15.14.76,1,4.93,5.89,1.69,8.63a34,34,0,0,1-8.57-10.79c2.28,7,1.31,11.89-.32,11.54-2.91-.64-6.63-25.6-2.32-37.6C11.8,252.79,11.57,252.77,8.69,242.41Z" style="fill:#ffa988"/><polygon points="137.91 212.14 125.9 216.43 120.52 203.56 133.12 197.93 137.91 212.14" style="fill:#ffa988"/><path d="M7.06,239.66c6.06,2,14.15,1.75,18.78,0,.77,4.73.23,7.08-2.83,9.94C21.56,251,4.55,255.56,7.06,239.66Z" style="fill:#95c6ea"/><path d="M129.55,216c1,1,6.74.6,11.91-1.55-2.25-3.18-5.18-13.28-7.09-20.61-1.19.51-7.67,5.69-9.36,7C124,201.74,126.43,212.83,129.55,216Z" style="fill:#95c6ea"/><path d="M114.35,239c-5.62,0-9.72-1-15.17-2.29-2-.48-4.32-1-6.92-1.58-15.64-3.28-31.85-2.47-44.22-1.4-2.28.2-3-1-4.62-3.73-.65-1.09-1.46-2.46-2.61-4.14a3.6,3.6,0,0,1,.41-4.54c8.48-8.59,13.23-26.62,14.49-31.94a2.91,2.91,0,0,1,3.23-2.22c20,2.65,37.91,4.52,55.45.66a2.94,2.94,0,0,1,2.27.44,2.82,2.82,0,0,1,1.23,1.94A80.27,80.27,0,0,0,132,225.28c1.5,2.07.29,4.36-1.11,7-.56,1.06-1.13,2.16-1.62,3.36a3.6,3.6,0,0,1-2.77,2.18A74.46,74.46,0,0,1,114.35,239Zm-47-7.21a122.93,122.93,0,0,1,25.1,2.36c2.61.55,4.91,1.1,6.94,1.59,8.55,2.05,13.7,3.28,26.9,1.12a2.58,2.58,0,0,0,2-1.57,37.12,37.12,0,0,1,1.67-3.45c1.29-2.46,2.32-4.4,1.18-6a81.3,81.3,0,0,1-14.27-35.52,1.86,1.86,0,0,0-.8-1.27,1.92,1.92,0,0,0-1.49-.29c-17.7,3.9-35.74,2-55.81-.64a1.92,1.92,0,0,0-2.12,1.46c-1.63,6.9-6.32,23.88-14.75,32.42a2.6,2.6,0,0,0-.29,3.27c1.16,1.71,2,3.08,2.64,4.19,1.64,2.74,2.08,3.38,3.68,3.25C53.74,232.23,60.36,231.78,67.37,231.78Z" style="fill:#95c6ea"/><path d="M90.57,95.47c-7.78,0-13.26-5.41-18.11-10.19A49,49,0,0,0,67,80.37a.51.51,0,0,1-.11-.7.5.5,0,0,1,.7-.12,51.37,51.37,0,0,1,5.56,5c4.71,4.65,10,9.91,17.42,9.91h.5c7.4-.24,15.74-5.66,25.48-16.59a.5.5,0,0,1,.71,0,.5.5,0,0,1,0,.7c-9.94,11.15-18.51,16.68-26.2,16.93Z" style="fill:#95c6ea"/><path d="M166.27,174.84a.47.47,0,0,1-.41-.22c-3.35-4.92-6.32-6.64-9.33-5.4a.77.77,0,0,1-1-.22c-.86-1.28,3.28-8,6.63-11.49a.49.49,0,0,1,.7,0,.48.48,0,0,1,0,.7c-3.39,3.5-6.14,8.52-6.46,10,4.54-1.61,8,2.56,10.27,5.87a.5.5,0,0,1-.13.7A.57.57,0,0,1,166.27,174.84Z" style="fill:#95c6ea"/><path d="M126,144.43c-17.79,53.25-72.48,15.19-76.07,0C47.39,133.54,60,124,81,124S129.52,134,126,144.43Z" style="fill:#95c6ea"/><path d="M94.22,172.31c-.55,0-1.09,0-1.61,0-19.68-.89-40.77-17.91-43.09-27.73a12.38,12.38,0,0,1,2.56-10.82c5-6.35,15.85-10.14,29-10.14,17.92,0,38.56,6.84,44.18,14.63a6.83,6.83,0,0,1,1.25,6.37C118.89,167.24,105.07,172.31,94.22,172.31ZM81,124.5c-12.83,0-23.38,3.66-28.23,9.78a11.49,11.49,0,0,0-2.39,10.05c2,8.58,22.4,26.13,42.24,27,10.74.48,25.18-3.82,32.95-27.07a5.94,5.94,0,0,0-1.14-5.54C119.09,131.29,98.39,124.5,81,124.5Z" style="fill:#95c6ea"/><path d="M84.7,97.83c-4.25,0-2.46-5.35-.51-5.35C88.23,92.48,87.39,97.83,84.7,97.83Z" style="fill:#efbea9"/><path d="M84.7,98.29a3.16,3.16,0,0,1-2.35-.83,2.7,2.7,0,0,1-.71-1.91c0-1.6,1.14-3.53,2.55-3.53a3.25,3.25,0,0,1,2.46,1,3,3,0,0,1,.78,2.09C87.43,96.61,86.38,98.29,84.7,98.29Zm-.51-5.35c-.76,0-1.64,1.39-1.64,2.61A1.79,1.79,0,0,0,83,96.82a2.32,2.32,0,0,0,1.69.55c1.12,0,1.81-1.2,1.81-2.31A2.15,2.15,0,0,0,86,93.59,2.37,2.37,0,0,0,84.19,92.94Z" style="fill:#efbea9"/><path d="M96.89,97c4.24,0,2.45-5.34.5-5.34C93.35,91.63,94.19,97,96.89,97Z" style="fill:#efbea9"/><path d="M96.89,97.43c-1.69,0-2.74-1.67-2.74-3.23a3.05,3.05,0,0,1,.78-2.09,3.29,3.29,0,0,1,2.46-.94c1.42,0,2.55,1.93,2.55,3.53a2.63,2.63,0,0,1-.71,1.9A3.15,3.15,0,0,1,96.89,97.43Zm.5-5.35a2.32,2.32,0,0,0-1.79.66,2.11,2.11,0,0,0-.53,1.46c0,1.12.69,2.32,1.82,2.32A2.28,2.28,0,0,0,98.58,96,1.8,1.8,0,0,0,99,94.7C99,93.48,98.16,92.08,97.39,92.08Z" style="fill:#efbea9"/><path d="M85.23,101.14C82.51,107,83.16,142.72,81,124c-1.2-10.57-.68-12.94-.33-14.71,3.26-16,.51-17.27,5.18-14.94C87.05,95,86.84,97.67,85.23,101.14Z" style="fill:#fffffb"/><path d="M96.35,100.45c2.72,5.9,2.07,41.57,4.2,22.9,1.2-10.57.68-12.95.33-14.71-3.26-16-.51-17.28-5.18-15C94.53,94.28,94.74,97,96.35,100.45Z" style="fill:#fffffb"/></g></g></svg>
