<svg xmlns="http://www.w3.org/2000/svg" viewBox="0 0 50.42 70.85"><g id="Layer_2" data-name="Layer 2"><g id="Layer_1-2" data-name="Layer 1"><path d="M41.17,18.45C31.08,4.34,7.28,7.91,4.51,29.56,1.76,51,12.15,67.94,18.19,69.59c5.47,1.5,10.87,2.16,15.44-.93C45.64,60.53,50.27,31.18,41.17,18.45Z" style="fill:#fda98b"/><path d="M11.71,4.07c-16,12.76-11.13,21.05-7,41C3,34.28,15.69,17,13.58,21.38c-6.67,13.91,3.07.87,17.27,6.79,1,.42,1.8.23,5.79-.93s9,15.05,9,15.05c4.23-7,4.73-19.13,4.73-19.13C49.11-.51,19.72-4.5,17.7,4.28,16.46,4.23,13.58,2.58,11.71,4.07Z" style="fill:#7b3b23"/><path d="M18,4.62a.49.49,0,0,1,.47.52,12.44,12.44,0,0,0,3.73,9.22.5.5,0,0,1,0,.71C20.57,16.67,15.43,4.51,18,4.62Z" style="fill:#682c1c"/><path d="M6.51,20.17C5.29,20,7.39,11.52,14.29,7.3a.5.5,0,0,1,.52.85,16.8,16.8,0,0,0-7.73,11.6A.5.5,0,0,1,6.51,20.17Z" style="fill:#682c1c"/><path d="M14.21,19.43a4.48,4.48,0,0,0,1.28-4.58.5.5,0,0,1,1-.27,5.42,5.42,0,0,1-1.75,5.71A.5.5,0,0,1,14.21,19.43Z" style="fill:#682c1c"/><path d="M4.35,31.23c-1.43-5.92-1.84-6.15-1.14-6.35s.88,1,2.11,6.12A.5.5,0,0,1,4.35,31.23Z" style="fill:#682c1c"/><path d="M33.37,6.15c-2.69-2.64-8.65-4.09-12-1.93a.5.5,0,0,1-.69-.15c-1-1.56,8.12-3.81,13.4,1.37A.5.5,0,0,1,33.37,6.15Z" style="fill:#682c1c"/><path d="M35.57,14.48C32.18,11,27.38,12.06,25,13.66a.49.49,0,0,1-.69-.13c-.75-1.13,7.09-4.86,12,.26A.5.5,0,0,1,35.57,14.48Z" style="fill:#682c1c"/><path d="M24.72,7c4.2-1.1,3.85,1.79,2.76,1.12s-3.64-.24-4.36,1.06C22.49,10.33,20.88,8,24.72,7Z" style="fill:#682c1c"/><path d="M30.82,26.51a5.48,5.48,0,0,0-2.36-6.08.5.5,0,0,1,.47-.88,6.44,6.44,0,0,1,2.84,7.26A.5.5,0,0,1,30.82,26.51Z" style="fill:#682c1c"/><path d="M16.51,25.61c0-3.47,5.44-7.87,5.81-6.14a.51.51,0,0,1-.38.6c-1.65.34-4.43,3.55-4.43,5.54A.5.5,0,0,1,16.51,25.61Z" style="fill:#682c1c"/><path d="M37.76,25.77a7.63,7.63,0,0,0,1.31-8,.5.5,0,0,1,.94-.34,8.61,8.61,0,0,1-1.46,8.9A.5.5,0,0,1,37.76,25.77Z" style="fill:#682c1c"/><path d="M45.64,31.34c-1-.38,0-.25,1.34-6a.5.5,0,0,1,1,.24C47.73,26.53,46.52,31.67,45.64,31.34Z" style="fill:#682c1c"/><path d="M47.16,18.82c-.51-3.1-2.95-7.35-6-8.83a.5.5,0,0,1-.23-.67c1.3-2.69,9.22,9.52,6.83,9.91A.51.51,0,0,1,47.16,18.82Z" style="fill:#682c1c"/><path d="M2.05,39.15C6.15,38,6.41,46.54,6.42,50.8,6.44,59.2-4.41,41.05,2.05,39.15Z" style="fill:#fda98b"/><path d="M2.93,43.35a.31.31,0,0,1,.59.18c-.72,2.36,0,3.75,1,4.28a.31.31,0,0,1,.13.42C4.06,49.22,1.89,46.73,2.93,43.35Z" style="fill:#ee795c"/><path d="M47.85,39c-4.11-1.2-4.37,7.39-4.38,11.65C43.45,59.09,54.31,40.93,47.85,39Z" style="fill:#fda98b"/><path d="M47,43.23a.31.31,0,0,0-.59.18c.72,2.37,0,3.75-1,4.28a.31.31,0,0,0-.12.42C45.84,49.11,48,46.61,47,43.23Z" style="fill:#ee795c"/><path d="M15.46,42.78c-1.35,0-2.4-5.11.86-5.11C18.06,37.67,17.66,42.78,15.46,42.78Z" style="fill:#382823"/><path d="M35.42,43c1.34,0,2.39-5.1-.87-5.1C32.81,37.88,33.22,43,35.42,43Z" style="fill:#382823"/><path d="M19.87,32.52c-4.41-1.75-13.07,1.89-10.6,2.82.8.3,3.37-.72,4.3-.82,1.88-.21,5.32.61,6.49-.41A1,1,0,0,0,19.87,32.52Z" style="fill:#7b3b23"/><path d="M29.86,34c1.13,1.06,4.59.36,6.46.63.94.14,3.46,1.25,4.28,1,2.5-.85-6-4.84-10.5-3.19A1,1,0,0,0,29.86,34Z" style="fill:#7b3b23"/><path d="M23.2,51.1c-.14-.57.82-.62,1.43-.75,2.22-.5,2.31.59,1.28-8.72-.2-1.82-.5-2.79.14-2.84s.45.68.68,2.75c1.12,10.11,1.14,8.87-3,9.87A.41.41,0,0,1,23.2,51.1Z" style="fill:#ee795c"/><path d="M19.42,59c-.62-.93,1.22-.7,12.09-1.83C34.3,56.9,24.65,66.79,19.42,59Z" style="fill:#fff5ed"/></g></g></svg>
