<svg xmlns="http://www.w3.org/2000/svg" viewBox="0 0 309.42 1351.85">
    <g id="Layer_2" data-name="Layer 2">
        <g id="Capa_1" data-name="Capa 1">
            <path d="M136,6.82S118.42,3.45,106.1,27.89,48,199.74,65.42,211.56s133.7,32,180.05,0c0,0,21-10.07,10.5-61.21S235.12-31.1,136,6.82Z" fill="#1d1d1b" />
            <path d="M237.54,245.45c-12.79-2.85-22.74-7.09-25.35-9.17-15.63-12.5-17.09-46.68-18.58-80.76-.37-8.49-51.86-45.43-51.86-45.43S138.54,211.56,118,228.56c0,0-18.77,4.84-38.07,11.57v48.94l157.6,24Z" fill="#f08356" />
            <path d="M132.62,193.52c14.17,13.73,43.22,36.69,68.07,23.5-5-16-6.05-38.07-7-60.23L139.2,148A414.84,414.84,0,0,1,132.62,193.52Z" fill="#e16d45" />
            <path d="M220.91,101.72S226.78,47,198.64,28.49c-7.91-5.22-19.77-8.36-32.38-8.72v.17c-12.61.35-24.47,3.5-32.39,8.7-28.14,18.54-22.26,73.23-22.26,73.23C95.55,87.56,91,110.16,96.13,125.49s15.27,12.12,15.27,12.12c8,36.2,33.48,57.55,50.09,60.28,1.74.29,4.77.51,4.77.51q2.15-.24,4.77-.66c16.6-2.74,39.68-23.09,48.41-60.73,0,0,9.94,2.09,15-13.2S237,87.41,220.91,101.72Z" fill="#f3946c" />
            <path d="M170.78,104.13a87.2,87.2,0,0,1,5.33,15.73,34.37,34.37,0,0,1,.86,6.28,28.78,28.78,0,0,1-.13,3.1,12.64,12.64,0,0,1-.86,3,6.67,6.67,0,0,1-1.71,2.38,5.12,5.12,0,0,1-2,1.31,20.4,20.4,0,0,1-1.95.63,2.39,2.39,0,0,1-1.55-4.51l1-.42a2.91,2.91,0,0,1,.73-.18c.3,0,.46-.19.73-.34s.5-.52.81-.89a9.2,9.2,0,0,0,.71-1.71c.09-.76.3-1.52.34-2.4a31.41,31.41,0,0,0-.2-5.67,85.46,85.46,0,0,0-3.58-15.69.79.79,0,0,1,.5-1A.81.81,0,0,1,170.78,104.13Z" fill="#ce6945" />
            <path d="M130.89,87.36s.18-.29.54-.76.67-1.16,1.74-1.8a11.31,11.31,0,0,1,3.47-1.9,6.3,6.3,0,0,1,2.11-.53,17.45,17.45,0,0,1,2.47-.2l1.92.25a9,9,0,0,1,2.11.61,7.85,7.85,0,0,1,1.93.92l1.46,1a9,9,0,0,1,1.81,1.94c.37.52.56.82.56.82a.94.94,0,0,1-.33,1.29.87.87,0,0,1-.81.07l-.2-.07s-.31-.11-.81-.35a14.5,14.5,0,0,0-2-.86l-1.3-.47a12.76,12.76,0,0,0-1.37-.27,5.61,5.61,0,0,0-1.54-.26l-1.93-.14-1.41.13a5.28,5.28,0,0,0-1.55.22c-.48.14-1,.16-1.45.27s-.83.28-1.21.41a9.89,9.89,0,0,0-2.08.91c-.53.25-.85.37-.85.37a1.12,1.12,0,0,1-1.32-1.65Z" fill="#142d49" />
            <path d="M187.16,88s.18-.29.54-.75.68-1.18,1.74-1.81a11,11,0,0,1,3.47-1.91A6.89,6.89,0,0,1,195,83a16.09,16.09,0,0,1,2.46-.19l1.93.25a9.54,9.54,0,0,1,2.1.62,7.84,7.84,0,0,1,1.93.9c.52.39,1,.74,1.47,1.06a13.2,13.2,0,0,1,2.35,2.76.94.94,0,0,1-.33,1.3,1.06,1.06,0,0,1-.8.08l-.2-.07-.81-.35a11.27,11.27,0,0,0-1.95-.87c-.41-.16-.84-.3-1.3-.48s-.93-.12-1.37-.27a5.89,5.89,0,0,0-1.55-.25L197,87.32l-1.42.14a5.62,5.62,0,0,0-1.54.22,13.48,13.48,0,0,0-2.66.68,10.19,10.19,0,0,0-2.08.91c-.54.25-.86.38-.86.38a1.15,1.15,0,0,1-1.43-.69A1.11,1.11,0,0,1,187.16,88Z" fill="#142d49" />
            <path d="M146.17,104.52a5.07,5.07,0,1,1-5.07-5A5.09,5.09,0,0,1,146.17,104.52Z" fill="#0f0e13" />
            <path d="M134.12,99.46s3.82-7.72,13.62-3.76" fill="none" stroke="#0f0e13" stroke-linecap="round" stroke-miterlimit="10" stroke-width="1.63" />
            <path d="M190,104.52a5.07,5.07,0,1,0,5.08-5A5.08,5.08,0,0,0,190,104.52Z" fill="#0f0e13" />
            <path d="M202.09,99.46s-3.82-7.72-13.61-3.76" fill="none" stroke="#0f0e13" stroke-linecap="round" stroke-miterlimit="10" stroke-width="1.63" />
            <path d="M151.83,143.34a21.43,21.43,0,0,0,4,3.73,19.56,19.56,0,0,0,4.79,2.63,16.18,16.18,0,0,0,6,1.1,18.46,18.46,0,0,0,11-3.34,21,21,0,0,0,3-2.63l1-1.15,0,0a.62.62,0,0,1,1,.68s-.26.54-.8,1.44a16.63,16.63,0,0,1-2.79,3.39,17.14,17.14,0,0,1-5.34,3.36,21.43,21.43,0,0,1-7.11,1.35,19.22,19.22,0,0,1-7.15-1.47,18.29,18.29,0,0,1-5.27-3.44,17.07,17.07,0,0,1-3.73-4.79v0a.8.8,0,0,1,1.36-.81Z" fill="#ce6945" />
            <path d="M224.17,71.28c5.05-6.32-6.75-40.45-19-48.45s-66.42-19.62-88.48,7.58c0,0-11.93,37.4-8.43,41.29a4.83,4.83,0,0,0,.4.38c-1.12,10-1.27,22.29,2.91,29.79,0,0,5.2-15,8.17-27.65a40.13,40.13,0,0,1,4.53,0c4.64.43,16.62-31.16,16.62-31.16s-5.67,28.32-1.87,31.22,44.23,5,58.14-2.58c0,0,1.29-17.27-2.09-26.12a51.86,51.86,0,0,1,8.83,25.27c.47,7,3.93,8.9,8,8.25,3,12.87,6.48,27.62,7.63,30l4.19-9.62s1.56-15.07.17-27.85Z" fill="#1d1d1b" />
            <path d="M178.2,900.61c-2.72,164.59-4.38,413.36-5.95,436.15L202,1309.89s25.81-241.42,45.51-403.14Z" fill="#f3946c" />
            <path d="M172.62,1326.08s3.08,5.84,15.49-13.29c0,0,4.63-11.25,14.25-5.3,0,0,15.16,22.57,29.51,32.37a10.93,10.93,0,0,1-1,11.06s-15.75,4.29-57.73-5.56C173.16,1345.36,169.28,1331.9,172.62,1326.08Z" fill="#171c2d" />
            <path d="M230.89,1350.92a11.3,11.3,0,0,0,2-6.68c-14.28,6.06-60.85-4.11-60.9-4.13.54,3,1.17,5.25,1.17,5.25C215.14,1355.21,230.89,1350.92,230.89,1350.92Z" fill="#171c2d" />
            <path d="M207.68,1314.83c-4.14-1.71-10.32-3.27-14.15.52-6.18,6.12-12.32,14.88-14.91,15.49,0,0,13.2,3.72,15.74,3.65,0,0,13.9-8,21.47-9.65C212.7,1321.27,209.9,1317.76,207.68,1314.83Z" fill="#f3946c" />
            <path d="M139.45,900.61c2.72,164.59,10.33,413.36,11.91,436.15l-29.74-26.87S89.86,1068.47,70.16,906.75Z" fill="#f3946c" />
            <path d="M151,1326.08s-3.08,5.84-15.48-13.29c0,0-4.63-11.25-14.25-5.3,0,0-15.16,22.57-29.52,32.37a10.94,10.94,0,0,0,1,11.06s15.74,4.29,57.73-5.56C150.45,1345.36,154.32,1331.9,151,1326.08Z" fill="#171c2d" />
            <path d="M92.72,1350.92a11.32,11.32,0,0,1-2-6.68c14.29,6.06,60.86-4.11,60.9-4.13-.53,3-1.16,5.25-1.16,5.25C108.46,1355.21,92.72,1350.92,92.72,1350.92Z" fill="#171c2d" />
            <path d="M115.92,1314.83c4.15-1.71,10.33-3.27,14.16.52,6.19,6.12,12.31,14.88,14.91,15.49,0,0-13.2,3.72-15.75,3.65,0,0-13.88-8-21.47-9.65C110.9,1321.27,113.7,1317.76,115.92,1314.83Z" fill="#f3946c" />
            <path d="M171.26,1274.65h38.6c19-96.89,56.32-478.78,64.3-660.66L40.31,651.54c-6.74,32.44,64.56,618.28,67.46,623.11h44.57l-3-445,8-1.16Z" fill="#e6007e" />
            <path d="M39.85,266.29c0-14.89,4-16.27,38.25-26.64h0c6.43-1.56,11-2.43,11.58-2.54h.06s7.41,6.45,17.3,14.76l.44.37h0c17.94,15.08,43.69,36,48.64,36.4s33.9-19.07,53.37-32.64h0c10.41-7.27,20.28-13,20.28-13,20,5.68,25,8,48.67,21.9,0,0-.69,17.39,4.37,49.23S245.44,433,247.49,459.8c0,0,26.67,136.53,33.16,215.63,0,0-172,17-249.1-1.64,0,0,26.55-181.07,32.12-223.92C63.67,449.87,39.85,295.5,39.85,266.29Z" fill="#1d71b8" />
            <path d="M11.36,384.65S4.14,511.53,4,523.42c-.12,11.53-.18,57,221.36-49.73l-2-16.06L45.79,485.18l8-100.53Z" fill="#f3946c" />
            <path d="M297.52,391.36s7.22,126.88,7.34,138.77c.13,11.53,4.67,54.62-220.35-58.56l2-16.06,176.58,36.38-8-100.53Z" fill="#f3946c" />
            <path d="M86.51,455.51s-26.31-.57-33.92,7.37L46.4,477.5l-.61,7.68,32.32-5S85.83,471.3,88.63,466Z" fill="#f3946c" />
            <path d="M253.62,421.25c-3.56-32.24-7.23-64.35-8.37-70.45,0,0,5.39-90.29,10.39-98.63,0,0,41.17,14.13,43.06,32.27,0,0,4.05,72.51,7.06,136.81L309,511.81c2.8,31.12-10,36.89-10,36.89C261.37,572.27,86.8,474.31,86.8,474.31c.8-16.84,7.6-21,7.6-21l165.32,36.84Z" fill="#1d71b8" />
            <path d="M56.07,415.63c3.57-32.37,7.27-64.71,8.4-70.83,0,0-3.73-89.66-8.74-98,0,0-42.81,13.52-44.71,31.66,0,0-4.06,72.78-7.07,137.18,0,0-8.89,119.55,0,123.86s27.72,11,41.84,8.77,173.64-68.37,173.64-68.37,1.5-17.8-6-22.54L45.79,485.18h0S55.79,418.15,56.07,415.63Z" fill="#1d71b8" />
            <path d="M223.36,457.63a14.29,14.29,0,0,1,12,3.13c5.7,4.8,21.31,22.26,21.31,22.26s3.22,7.14,3.36,8.24l-29.87-6.16s-5.81-6.5-6.82-12.85Z" fill="#f3946c" />
        </g>
    </g>
</svg>