<svg xmlns="http://www.w3.org/2000/svg" viewBox="0 0 173 448.62"><g id="Layer_2" data-name="Layer 2"><g id="Layer_1-2" data-name="Layer 1"><path d="M85.06,63.5a20.72,20.72,0,0,1-2.58-.43c-1.2-.13-2.4.2-3.6.1-4.06-.36-21.36-10-1.13-25.64C103,18.09,95.79,63.4,85.06,63.5Z" style="fill:#2c3945"/><path d="M50.63,56.36C56,62.29,65.79,60.23,62.9,46.11,60.79,35.81,41.74,46.5,50.63,56.36Z" style="fill:#2c3945"/><path d="M74.28,70.37c-10.94,0-21.92-3.2-.09-3.2C95.73,67.17,85.31,70.37,74.28,70.37Z" style="fill:#ffe6d9"/><path d="M107.62,94.4c-13.46-9.71-26-9.5-20.87-34.7L63.59,58.26c-1,18.7.28,20-7.54,26.94C54.32,86.72,43.34,93,43.34,93,60.77,108.54,92.6,107.25,107.62,94.4Z" style="fill:#fd9c8d"/><path d="M57.68,23c-9.73,35.91,18,61,33.05,33.25C117.83,6.17,65.61-6.26,57.68,23Z" style="fill:#fd9c8d"/><path d="M83.75,12.46c.82,5.92-4,6.65-8.12,6.85-13.19.61-19.3,17.81-19.5,23.59-10-23.25,10.31-47.83,23.41-42C83.47,2.59,83.25,8.87,83.75,12.46Z" style="fill:#2c3945"/><path d="M98,40.42c-3.34-1.58-4.63,5.89-5.17,9.62C91.72,57.38,103.21,42.9,98,40.42Z" style="fill:#fd9c8d"/><path d="M54.66,33.54c3.64-.53,2.79,7,2.27,10.74C55.9,51.63,48.93,34.38,54.66,33.54Z" style="fill:#fd9c8d"/><path d="M65.39,38.92c-1.21-.18-1.48-5,1.45-4.6C68.4,34.56,67.37,39.22,65.39,38.92Z" style="fill:#382823"/><path d="M86.09,42c1.21.18,2.83-4.4-.1-4.84C84.42,37,84.12,41.74,86.09,42Z" style="fill:#382823"/><path d="M69.19,28.81c1.88.58,1.41,2.47,0,2.17-2.08-.41-2.39-1.38-6.61-.26C57.88,31.94,63.3,27,69.19,28.81Z" style="fill:#353b4a"/><path d="M85.11,31.4c-2-.22-2.23,1.69-.77,2,1.84.42,2.72-.33,6.19,2.39C94.35,38.79,91.22,32.07,85.11,31.4Z" style="fill:#353b4a"/><path d="M72,46.65a.72.72,0,0,0,.18,1.11c3.91,2.36,3.91.29,2.66.19-4.14-.33.23-1.54,1.35-8.51.11-.74-.71-.87-.89-.28A15.81,15.81,0,0,1,72,46.65Z" style="fill:#ee795c"/><path d="M79.68,55.2a.25.25,0,0,1,.23.42c-9.54,9.69-13.49-2.6-12-1.81A17.71,17.71,0,0,0,79.68,55.2Z" style="fill:#fff"/><path d="M54.89,37.33a.26.26,0,1,1,.47.23c-.9,2-.46,3.27.29,3.86a.3.3,0,0,1,.06.39C55.12,42.6,53.59,40.15,54.89,37.33Z" style="fill:#ee795c"/><path d="M95.56,47.82c.88-.79,1-2.22.94-3.5a.27.27,0,1,1,.53,0C97.06,49.12,94.75,48.54,95.56,47.82Z" style="fill:#ee795c"/><path d="M64.35,62.62c7.05,8,17.9,5.15,20.9.62,1.18-1.77.1,4.3-8.9,4.94C66.4,68.89,62.32,60.3,64.35,62.62Z" style="fill:#ee795c"/><path d="M75.6,227.78c1.92,37.43.75,71.83,5.78,95.88,11.25,53.79,7.46,98.56,7.46,98.56,4.7,4.53,13.61,3.6,13.52-.82-.83-40.17,13-53.42,5.38-91.91-10.15-51.11,10-107.17,8.8-115.09C112.81,189.21,73.1,179.23,75.6,227.78Z" style="fill:#fd9c8d"/><path d="M72.44,338.91c5.09,29.54-.7,48.09-1.54,85.28-.13,5.52-8.73,6.82-13.5,1.19,0,0-.92-45.67-9.42-91.63C38.15,280.58,33.8,224.08,34.1,229.49,32.37,198.88,48.82,192,60.51,194.37,93,201,64.48,292.81,72.44,338.91Z" style="fill:#fd9c8d"/><path d="M1.78,210.49c0,5.68.39,4.88,5.2,7.68,3.26,1.9,7.83,3.57,13.78.35,1-.55,24.32,1.69,27.58-40.36.95-12.21-1.42-17.67-2.32-29.89-.78-10.49,10.39-54.54-5-59.17-16.56-5-26.23,43.35-27.16,52.94C12.19,159,1.94,186.57,1.78,210.49Z" style="fill:#abceed"/><path d="M14.14,220.85a14.67,14.67,0,0,1-7.42-2.24c-.73-.43-1.36-.77-1.91-1.07-3.22-1.75-3.58-2.11-3.54-7,.1-14.47,3.87-30.26,7.2-44.2,2.16-9,4.2-17.59,4.85-24.3.84-8.73,8-43.94,20-52a8.88,8.88,0,0,1,7.79-1.36c11.76,3.53,8.76,27.91,6.57,45.71-.74,6-1.38,11.19-1.18,13.91.33,4.42.84,7.9,1.33,11.25a74.73,74.73,0,0,1,1,18.72c-2,25.2-11.36,39.27-27.2,40.7-.29,0-.61.06-.69.08A14.19,14.19,0,0,1,14.14,220.85ZM2.28,210.5c0,4.5.09,4.56,3,6.15.55.3,1.19.65,1.93,1.08a12.54,12.54,0,0,0,13.29.34,3,3,0,0,1,1-.18c19.31-1.74,25-22.59,26.28-39.77a73.57,73.57,0,0,0-1-18.49c-.5-3.37-1-6.86-1.34-11.32-.21-2.82.44-8.05,1.18-14.11,2-16.46,5.09-41.33-5.85-44.62a7.91,7.91,0,0,0-6.93,1.23c-11.74,7.88-18.75,42.64-19.58,51.28-.65,6.78-2.7,15.36-4.87,24.44-3.32,13.88-7.08,29.62-7.18,44Z" style="fill:#95c6ea"/><path d="M103.12,170.59c16.46,31,15.47,43.3,23.26,101.87a4,4,0,0,1-3.17,4.5c-35.68,6.72-58.66,8.21-91.42,1.39a4,4,0,0,1-3.14-4.2c3.72-61.42,0-63.65,17.43-102C62.1,175.78,86.8,173.69,103.12,170.59Z" style="fill:#231f20"/><path d="M15.33,253.33c1.51-.85,2.52,2.24.29,2.55a2.13,2.13,0,0,1-1.93-.92c-.74,1.52,2,2.82,1.47,4.37-1.07,2.93-15-3.5-11-11.88.85-1.8,2-.26,3.17.48C15,252.88,21.18,248.79,15.33,253.33Z" style="fill:#ee795c"/><path d="M1.22,243.67c-1.1,1.31-1.13,1.72-1,3.49.54,6.12-1.67,6.12,1.57,9.65,5.74,6.24,10.37,8.42,10.11,5.57-.29-3.16-11.57-6.78-6-15.55,3.95-6.23,8.32.51,6.79,4.08-.41,1-2.25,3.12-.83,6.07,7.31-4.5,4.95-12.28,5.62-16.93.26-1.78,2.53-8.46-2.64-9.57C11.74,229.81,11.33,231.58,1.22,243.67Z" style="fill:#fd9c8d"/><path d="M103.12,170.59c-19.26,6.07-41.12,6.78-57,1.55l1.79-11.41,52.86-1.44Z" style="fill:#95c6ea"/><path d="M122,241.77c-2.46.22-.25-5.6.15-12,.7-11.25-5.28-13.39-5.44-8.59-.05,1.68,1.35,4.83-1.53,6.73-.53.34-2,.69-1.75-.86.46-3.48-2-2.43,1.34-13.45,1.41-4.71.66-11.47,5.5-11.48,5.15,0,5,8.36,5.31,10.53C129,233.31,122.9,241.68,122,241.77Z" style="fill:#ff9c8a"/><path d="M89.61,108.64c6.57,19,56.49,36.93,47.31,45.72A68.52,68.52,0,0,0,119.8,180.9c-2.2,6.23.5,4.16,3.26,10.15,3,6.52,4.58,8.09,11.6,7.66s15.4,6.9,20.28,1.7c9.11-9.72,15.75-22.95,16-36.45.17-8.9,3.86-20.14-.79-28.71-2.64-4.87-7.75-7.65-11.35-11.82-11.78-13.62-29.51-17.37-44.32-30.34C101.17,81.43,85.23,96,89.61,108.64Z" style="fill:#abceed"/><path d="M150.44,202.78a24.14,24.14,0,0,1-7.37-1.74c-2.82-1-5.72-2-8.38-1.82-7.21.43-9-1.21-12.09-8a14.2,14.2,0,0,0-2.7-4c-1.47-1.62-2-2.44-.57-6.5A69,69,0,0,1,136.57,154a2.69,2.69,0,0,0,1-2.28c-.37-4-9.28-9.84-18.71-16-12.35-8.09-26.35-17.25-29.68-26.88-2.19-6.33.57-13.84,6.56-17.88s13.2-3.41,19.12,1.78c6.65,5.82,13.92,9.79,20.95,13.63,8.69,4.74,16.9,9.22,23.42,16.76a43.44,43.44,0,0,0,4.61,4.39c2.53,2.19,5.15,4.46,6.81,7.52,3.39,6.24,2.47,13.68,1.58,20.87a78.77,78.77,0,0,0-.73,8.09c-.24,12.7-6.13,26.1-16.14,36.79A6.34,6.34,0,0,1,150.44,202.78Zm-15.18-4.59c2.66,0,5.44,1,8.14,1.89,4.33,1.5,8.42,2.91,11.17,0,9.84-10.5,15.63-23.66,15.86-36.11,0-2.58.39-5.31.74-8.19.87-7,1.77-14.31-1.46-20.27-1.57-2.89-4-5-6.59-7.23a46.42,46.42,0,0,1-4.71-4.5c-6.39-7.4-14.52-11.83-23.13-16.53-7.08-3.87-14.41-7.86-21.14-13.76-5.55-4.86-12.24-5.5-17.89-1.7s-8.21,10.81-6.16,16.7c3.22,9.31,17.06,18.37,29.28,26.38,10.06,6.58,18.75,12.27,19.16,16.77a3.69,3.69,0,0,1-1.26,3.1,68.06,68.06,0,0,0-17,26.35c-1.29,3.65-.87,4.11.37,5.48a15.3,15.3,0,0,1,2.87,4.29c2.93,6.34,4.3,7.77,11.11,7.37C134.84,198.19,135.05,198.19,135.26,198.19Z" style="fill:#95c6ea"/><path d="M117.22,203l8,5.87,9.45-10.11c-4.88-.76-8.65-3.35-11.6-7.66Z" style="fill:#95c6ea"/><path d="M58.79,82.6c2.22,7.75,28.7,7.21,30.37-.38,7.91,2.51,15,4.5,22.2,8.72,6.49,44-2.29,68.79-12.75,70.64-21.74,3.55-34.64,4.18-50.78.73C33.58,157.64,35.05,108.91,41,89.1A158,158,0,0,1,58.79,82.6Z" style="fill:#abceed"/><path d="M69,165.1a99,99,0,0,1-21.24-2.3c-15.18-5-12.87-55-7.22-73.85l.07-.22.2-.09a159,159,0,0,1,17.87-6.52l.49-.15.15.49c1.06,3.69,8.59,5.4,15.5,5.18,7.51-.24,13.22-2.51,13.88-5.52l.12-.55,3.13,1c6.82,2.14,13.26,4.16,19.7,7.94l.21.12,0,.24c6.44,43.61-2,69.24-13.16,71.22C87.21,164,77.91,165.1,69,165.1ZM41.4,89.46c-6.1,20.7-6.92,67.94,6.59,72.36,16.79,3.6,30.2,2.57,50.54-.74,9.16-1.62,19-24.35,12.36-69.83-6.27-3.64-12.59-5.63-19.28-7.72l-2.11-.67c-1.43,4-8.7,5.61-14.68,5.8-7,.22-14.65-1.38-16.35-5.43A163.43,163.43,0,0,0,41.4,89.46Z" style="fill:#95c6ea"/><path d="M70.91,177.89a3.15,3.15,0,0,1-2.22-.57,2.15,2.15,0,0,1-.68-1.57c-.13-2-.26-3.63-.37-5-.37-4.75-.48-6.19.3-7.1a2.13,2.13,0,0,1,1.51-.66c1.35-.09,2.51-.19,3.5-.27,3.65-.3,5-.42,5.9.34a2.18,2.18,0,0,1,.68,1.56c.13,2,.26,3.64.37,5,.37,4.76.48,6.2-.3,7.1a2.09,2.09,0,0,1-1.51.66l-.07-.91.07.91-3.5.28C73,177.79,71.79,177.89,70.91,177.89Zm5.82-13.59c-.84,0-2.17.11-3.63.23-1,.08-2.16.18-3.52.27a1.26,1.26,0,0,0-.28,0c-.26.36-.08,2.62.16,5.75.11,1.38.24,3,.37,5a.91.91,0,0,0,.06.32c.31.24,2.28.08,4.55-.11l3.52-.28c.21,0,.27,0,.27-.05.27-.36.09-2.62-.15-5.74-.11-1.38-.24-3-.37-5a.91.91,0,0,0-.06-.32A2,2,0,0,0,76.73,164.3Z" style="fill:#58b6e6"/><path d="M19.1,231.74,9.28,232,7,218.17a16.33,16.33,0,0,0,13.78.35Z" style="fill:#95c6ea"/><path d="M95.73,74.53C97.34,48,106.8,34.63,96,12.8,90.21,1.15,82.48.37,81.43,5.18,81.3,5.78,95.33,81,95.73,74.53Z" style="fill:#2c3945"/><path d="M89.16,82.22c-1,7.54-28.84,8.54-30.37.38l2.88-14.34c8.46,2.18,16,2.66,25,0Z" style="fill:#95c6ea"/><path d="M83.48,13.36l-.13,0a.49.49,0,0,1-.35-.62,9.36,9.36,0,0,0-1-7.36.51.51,0,0,1,.86-.54A10.36,10.36,0,0,1,84,13,.5.5,0,0,1,83.48,13.36Z" style="fill:#30323e"/><path d="M68.94,6.88a.58.58,0,0,1-.35-.13.52.52,0,0,1,0-.72,10.29,10.29,0,0,1,8.91-3.12c1.59.24,2.77.88,3.16,1.72a.5.5,0,0,1-.24.67.51.51,0,0,1-.68-.24c-.19-.42-1-.94-2.39-1.15a9.3,9.3,0,0,0-8,2.8A.51.51,0,0,1,68.94,6.88Z" style="fill:#30323e"/><path d="M76.07,9.48a6.55,6.55,0,0,1-1-.07.5.5,0,0,1-.42-.58.49.49,0,0,1,.57-.42,10.14,10.14,0,0,0,3.35-.26c.63-.11,1.28-.23,1.93-.29a1,1,0,0,1,1.09.52.52.52,0,0,1-.28.67.51.51,0,0,1-.6-.18h-.12c-.61.06-1.23.17-1.84.28A15.1,15.1,0,0,1,76.07,9.48Z" style="fill:#30323e"/><path d="M68.65,20a.51.51,0,0,1-.37-.86c3.27-3.49,5.42-3.59,7.5-3.68a8.66,8.66,0,0,0,3.45-.68,3.43,3.43,0,0,0,2-2.45.51.51,0,0,1,.57-.43.5.5,0,0,1,.43.57,4.37,4.37,0,0,1-2.63,3.23,9.42,9.42,0,0,1-3.83.77c-2,.09-3.81.18-6.8,3.37A.54.54,0,0,1,68.65,20Z" style="fill:#30323e"/><path d="M56.34,24.48h-.08a.51.51,0,0,1-.42-.58c.74-4.8,3.49-9,5.92-12.7a.51.51,0,0,1,.85.56c-2.37,3.62-5.06,7.72-5.77,12.3A.51.51,0,0,1,56.34,24.48Z" style="fill:#30323e"/><path d="M58.08,29.74H58a.51.51,0,0,1-.41-.59c.75-4.15,1.33-5.16,3.47-7.69a.51.51,0,0,1,.77.66c-1.91,2.26-2.5,3.09-3.24,7.21A.5.5,0,0,1,58.08,29.74Z" style="fill:#30323e"/><path d="M93.6,14.9a.51.51,0,0,1-.51-.5c-.07-3.48-3.43-6.69-5.78-7.86-1.12-.55-1.68-.5-1.83-.4a.51.51,0,0,1-.7-.11.5.5,0,0,1,.11-.71c.75-.55,2-.13,2.87.31,2.4,1.2,6.26,4.63,6.35,8.75a.52.52,0,0,1-.5.52Z" style="fill:#30323e"/><path d="M88.39,13.18a.5.5,0,0,1-.49-.39c-.17-.75-1.41-2.13-2.31-2.06a.49.49,0,0,1-.53-.49.52.52,0,0,1,.48-.53c1.44-.07,3.1,1.7,3.35,2.86a.51.51,0,0,1-.39.6Z" style="fill:#30323e"/><path d="M89.17,35a.52.52,0,0,1-.5-.39,134.36,134.36,0,0,1-2.86-14.79C85.46,17.3,85.28,16,84.63,15a.5.5,0,0,1,.16-.69.5.5,0,0,1,.7.16c.77,1.24,1,2.66,1.33,5.23a128.74,128.74,0,0,0,2.84,14.69.5.5,0,0,1-.37.61Z" style="fill:#30323e"/><path d="M96.74,42.05h-.08a.5.5,0,0,1-.42-.58l0-.22c.9-6,2-13.59-.87-19.94a.52.52,0,0,1,.25-.68.51.51,0,0,1,.67.26c3,6.63,1.87,14.32,1,20.51l0,.22A.51.51,0,0,1,96.74,42.05Z" style="fill:#30323e"/><path d="M94.93,59a.52.52,0,0,1-.51-.44,134.32,134.32,0,0,0-2.63-14.5.51.51,0,1,1,1-.23,138.24,138.24,0,0,1,2.65,14.6A.51.51,0,0,1,95,59Z" style="fill:#30323e"/><path d="M51.69,53.14a.57.57,0,0,1-.25-.06,3.06,3.06,0,0,1-1.39-3.67c.47-1.87,2-3.74,3.17-3.78a.51.51,0,1,1,0,1c-.49,0-1.83,1.42-2.22,3A2,2,0,0,0,52,52.19a.51.51,0,0,1-.26,1Z" style="fill:#30323e"/><path d="M58.37,55.53a.47.47,0,0,1-.35-.14,8.31,8.31,0,0,1-2.54-5.83.49.49,0,0,1,.49-.51.51.51,0,0,1,.52.5,7.3,7.3,0,0,0,2.23,5.11.5.5,0,0,1-.35.87Z" style="fill:#30323e"/><path d="M56.35,57.8h-.08a5.09,5.09,0,0,1-3.49-2.25.5.5,0,0,1,.14-.7.52.52,0,0,1,.71.15,4.09,4.09,0,0,0,2.79,1.8.51.51,0,0,1-.07,1Z" style="fill:#30323e"/><path d="M145.47,158.84a.49.49,0,0,1-.47-.33c-1.23-3.36-2.78-6.47-5.8-6.41l-1,0,6.18-8.78a.51.51,0,0,1,.83.58l-5.09,7.24c3.48.6,5,4.87,5.83,7a.51.51,0,0,1-.3.65A.38.38,0,0,1,145.47,158.84Z" style="fill:#95c6ea"/><path d="M158.3,142.66a.5.5,0,0,1-.5-.42,6.17,6.17,0,0,1,1.38-4.8c1.28-1.95,2.61-4,.91-9.27a.5.5,0,1,1,1-.31c1.85,5.76.26,8.19-1,10.14-.85,1.29-1.52,2.31-1.23,4.07a.52.52,0,0,1-.42.59Z" style="fill:#95c6ea"/><path d="M20.71,218.93l-.51-1a9.44,9.44,0,0,1-1.09-4.87.51.51,0,0,1,.53-.48.5.5,0,0,1,.48.53,8.47,8.47,0,0,0,.52,3.32,24.23,24.23,0,0,1,4.64-6.75.52.52,0,0,1,.72,0,.51.51,0,0,1,0,.72,23.25,23.25,0,0,0-4.88,7.49Z" style="fill:#95c6ea"/><path d="M7.1,216.72a.5.5,0,0,1-.48-.35,13,13,0,0,1-.19-7.27.51.51,0,0,1,1,.26,12,12,0,0,0,.17,6.7.51.51,0,0,1-.32.64A.44.44,0,0,1,7.1,216.72Z" style="fill:#95c6ea"/><path d="M124.33,189.23a.52.52,0,0,1-.5-.42,10,10,0,0,1,2.9-8.77.51.51,0,0,1,.7.74,9,9,0,0,0-2.6,7.86.51.51,0,0,1-.41.58Z" style="fill:#95c6ea"/><path d="M134.65,197.45a.51.51,0,0,1-.13-1,13.38,13.38,0,0,0,7.31-5.14.51.51,0,0,1,.71-.12.5.5,0,0,1,.11.71,14.41,14.41,0,0,1-7.86,5.53Z" style="fill:#95c6ea"/><path d="M25,139.72a.48.48,0,0,1-.26-.07,13.16,13.16,0,0,1-5.91-13,.51.51,0,0,1,1,.16,12.07,12.07,0,0,0,5.43,12,.51.51,0,0,1,.16.7A.49.49,0,0,1,25,139.72Z" style="fill:#95c6ea"/><path d="M35.49,175.78a.5.5,0,0,1-.39-.18.52.52,0,0,1,.06-.72l2.43-2c4.62-3.83,6.93-5.75,6.64-8.33a.51.51,0,0,1,1-.12c.35,3.13-2.11,5.17-7,9.23l-2.42,2A.49.49,0,0,1,35.49,175.78Z" style="fill:#95c6ea"/><path d="M51.82,160.37a.48.48,0,0,1-.36-.16,14.58,14.58,0,0,1-4-10.54.51.51,0,0,1,1,0,13.57,13.57,0,0,0,3.68,9.8.52.52,0,0,1,0,.72A.54.54,0,0,1,51.82,160.37Z" style="fill:#95c6ea"/><path d="M90.82,159.76a.49.49,0,0,1-.41-.21.51.51,0,0,1,.11-.71A18.48,18.48,0,0,0,98,145.39a.53.53,0,0,1,.55-.47.51.51,0,0,1,.47.55,19.6,19.6,0,0,1-7.89,14.2A.55.55,0,0,1,90.82,159.76Z" style="fill:#95c6ea"/><path d="M48.84,278.35a.51.51,0,0,1-.51-.48c-2-33.27,1.14-70.2,8.77-101.32a.51.51,0,0,1,.62-.37.52.52,0,0,1,.37.62c-7.61,31-10.79,67.84-8.74,101a.5.5,0,0,1-.48.53Z" style="fill:#004243"/><path d="M103.06,276.94a.51.51,0,0,1-.5-.54c2.53-39.67-.82-73.59-9.94-100.8a.51.51,0,1,1,1-.32c9.17,27.34,12.53,61.38,10,101.18A.51.51,0,0,1,103.06,276.94Z" style="fill:#004243"/><path d="M38.43,194.77a.52.52,0,0,1-.38-.17.51.51,0,0,1,0-.72c6.7-5.86,10.86-13.38,14.06-20a.51.51,0,1,1,.91.45c-3.24,6.67-7.47,14.3-14.3,20.28A.46.46,0,0,1,38.43,194.77Z" style="fill:#004243"/><path d="M111.43,190.48h-.13c-6.72-1.8-13.53-12-15.25-18.19a.5.5,0,1,1,1-.27c1.85,6.65,8.75,15.93,14.54,17.48a.5.5,0,0,1-.13,1Z" style="fill:#004243"/><path d="M31.76,447.36a3.18,3.18,0,0,1-.26-2.74c1-2.62,26.9-19.92,25.9-19.24,4.77,3.05,11.12,1.46,13.5-1.19,1.66,3.5,6.47,16.12,1.73,17.43C69.79,442.39,33.89,450.77,31.76,447.36Z" style="fill:#f2e8de"/><path d="M35.55,448.62c-2.24,0-3.78-.29-4.22-1a3.69,3.69,0,0,1-.31-3.19c.91-2.46,21-16,25.51-19l0,0,.62-.43,0,.06.29-.17h.36l.07.21c4.57,2.77,10.51,1.15,12.64-1.23l.51-.57.33.69c1.43,3,5.12,12.52,3.32,16.45a2.89,2.89,0,0,1-1.92,1.68C72.44,442.19,46.15,448.62,35.55,448.62Zm-3.36-1.53c1.74,2.8,34.41-4.34,40.3-6A1.92,1.92,0,0,0,73.76,440c1.41-3.09-1.31-11.1-3-14.94a12.07,12.07,0,0,1-13.33.92C54.15,428.1,32.75,442.69,32,444.79a2.69,2.69,0,0,0,.22,2.3Z" style="fill:#fffffb"/><path d="M62.63,443.47c-1.44-2.45.78-4.57,3.1-6.1,10.81-7.16,23.11-15.15,23.11-15.15,4.68,3.17,11.07,1.76,13.52-.82,1.38,3.12,6.18,16.27,1.19,17.48C100.68,439.58,64.68,447,62.63,443.47Z" style="fill:#f2e8de"/><path d="M67.27,444.86c-2.73,0-4.61-.33-5.08-1.14-1.3-2.2-.2-4.49,3.26-6.78,10.69-7.07,23-15.07,23.11-15.15l.28-.18.28.19c4.53,3.06,10.65,1.6,12.87-.75l.52-.55.31.69c1.35,3.06,4.78,12.64,2.88,16.51a3,3,0,0,1-2,1.68C103.36,439.45,78.35,444.86,67.27,444.86Zm-4.21-1.65c1.68,2.86,34.22-3.32,40.37-4.82a2,2,0,0,0,1.36-1.14c1.52-3.08-1-11-2.61-15a12.08,12.08,0,0,1-13.34.56c-1.89,1.23-13,8.49-22.83,15-3,2-4,3.71-3,5.42Z" style="fill:#fffffb"/></g></g></svg>
