<svg xmlns="http://www.w3.org/2000/svg" viewBox="0 0 50.42 70.85"><g id="Layer_2" data-name="Layer 2"><g id="Layer_1-2" data-name="Layer 1"><path d="M36.77,63.5a20.57,20.57,0,0,1-2.57-.43c-1.2-.13-2.4.2-3.6.1-4.06-.36-21.36-10-1.13-25.64C54.67,18.09,47.51,63.4,36.77,63.5Z" style="fill:#2c3945"/><path d="M2.35,56.36c5.35,5.93,15.16,3.87,12.27-10.25C12.51,35.81-6.55,46.5,2.35,56.36Z" style="fill:#2c3945"/><path d="M9.4,23c-9.74,35.91,18,61,33.05,33.25C69.55,6.17,17.32-6.26,9.4,23Z" style="fill:#fd9c8d"/><path d="M35.47,12.46c.81,5.92-4,6.65-8.13,6.85C14.16,19.92,8.05,37.12,7.85,42.9c-10-23.25,10.31-47.83,23.41-42C35.19,2.59,35,8.87,35.47,12.46Z" style="fill:#2c3945"/><path d="M49.67,40.42C46.33,38.84,45,46.31,44.5,50,43.44,57.38,54.92,42.9,49.67,40.42Z" style="fill:#fd9c8d"/><path d="M6.38,33.54c3.64-.53,2.79,7,2.27,10.74C7.62,51.63.65,34.38,6.38,33.54Z" style="fill:#fd9c8d"/><path d="M17.11,38.92c-1.21-.18-1.48-5,1.45-4.6C20.12,34.56,19.09,39.22,17.11,38.92Z" style="fill:#382823"/><path d="M37.81,42c1.21.18,2.83-4.4-.1-4.84C36.14,37,35.84,41.74,37.81,42Z" style="fill:#382823"/><path d="M20.91,28.81c1.88.58,1.41,2.47-.06,2.17-2.07-.41-2.38-1.38-6.6-.26C9.6,31.94,15,27,20.91,28.81Z" style="fill:#353b4a"/><path d="M36.83,31.4c-2-.22-2.23,1.69-.77,2,1.84.42,2.72-.33,6.19,2.39C46.07,38.79,42.94,32.07,36.83,31.4Z" style="fill:#353b4a"/><path d="M23.71,46.65a.72.72,0,0,0,.18,1.11c3.9,2.36,3.91.29,2.66.19-4.14-.33.23-1.54,1.34-8.51.12-.74-.71-.87-.88-.28A15.81,15.81,0,0,1,23.71,46.65Z" style="fill:#ee795c"/><path d="M31.4,55.2a.25.25,0,0,1,.22.42c-9.53,9.69-13.48-2.6-12-1.81A17.7,17.7,0,0,0,31.4,55.2Z" style="fill:#fff"/><path d="M6.6,37.33a.27.27,0,1,1,.48.23c-.91,2-.47,3.27.29,3.86a.28.28,0,0,1,0,.39C6.84,42.6,5.3,40.15,6.6,37.33Z" style="fill:#ee795c"/><path d="M47.28,47.82c.88-.79.94-2.22.93-3.5a.27.27,0,1,1,.53,0C48.78,49.12,46.46,48.54,47.28,47.82Z" style="fill:#ee795c"/><path d="M47.45,74.53c1.6-26.55,11.07-39.9.25-61.73C41.92,1.15,34.19.37,33.15,5.18,33,5.78,47.05,81,47.45,74.53Z" style="fill:#2c3945"/><path d="M35.2,13.36l-.13,0a.51.51,0,0,1-.36-.62,9.35,9.35,0,0,0-1-7.36.51.51,0,0,1,.86-.54A10.36,10.36,0,0,1,35.69,13,.51.51,0,0,1,35.2,13.36Z" style="fill:#30323e"/><path d="M20.37,20a.51.51,0,0,1-.37-.86c3.27-3.49,5.42-3.59,7.49-3.68A8.71,8.71,0,0,0,31,14.77,3.45,3.45,0,0,0,33,12.32a.5.5,0,0,1,.57-.43.51.51,0,0,1,.43.57,4.37,4.37,0,0,1-2.63,3.23,9.42,9.42,0,0,1-3.83.77c-2,.09-3.81.18-6.8,3.37A.54.54,0,0,1,20.37,20Z" style="fill:#30323e"/><path d="M8.06,24.48H8a.51.51,0,0,1-.42-.58c.74-4.8,3.49-9,5.92-12.7a.51.51,0,0,1,.85.56C12,15.37,9.27,19.47,8.56,24.05A.51.51,0,0,1,8.06,24.48Z" style="fill:#30323e"/><path d="M9.8,29.74H9.71a.5.5,0,0,1-.41-.59c.75-4.15,1.33-5.16,3.47-7.69a.51.51,0,0,1,.77.66c-1.91,2.26-2.5,3.09-3.24,7.21A.5.5,0,0,1,9.8,29.74Z" style="fill:#30323e"/><path d="M45.32,14.9a.51.51,0,0,1-.51-.5c-.08-3.48-3.43-6.69-5.78-7.86C37.91,6,37.35,6,37.2,6.14A.51.51,0,0,1,36.5,6a.5.5,0,0,1,.11-.71c.75-.55,2-.13,2.87.31,2.4,1.2,6.25,4.63,6.34,8.75a.5.5,0,0,1-.49.52Z" style="fill:#30323e"/><path d="M40.11,13.18a.52.52,0,0,1-.5-.39c-.16-.75-1.4-2.13-2.3-2.06a.49.49,0,0,1-.53-.49.51.51,0,0,1,.48-.53c1.44-.07,3.09,1.7,3.34,2.86a.5.5,0,0,1-.38.6Z" style="fill:#30323e"/><path d="M40.88,35a.52.52,0,0,1-.49-.39,134.36,134.36,0,0,1-2.86-14.79C37.18,17.3,37,16,36.35,15a.49.49,0,0,1,.16-.69.5.5,0,0,1,.7.16c.76,1.24,1,2.66,1.32,5.23a131.88,131.88,0,0,0,2.85,14.69A.51.51,0,0,1,41,35Z" style="fill:#30323e"/><path d="M48.46,42.05h-.08a.5.5,0,0,1-.42-.58l0-.22c.9-6,2-13.59-.87-19.94a.51.51,0,1,1,.92-.42c3,6.63,1.87,14.32,1,20.51l0,.22A.51.51,0,0,1,48.46,42.05Z" style="fill:#30323e"/><path d="M46.64,59a.51.51,0,0,1-.5-.44,136.81,136.81,0,0,0-2.63-14.5.51.51,0,0,1,1-.23,138.24,138.24,0,0,1,2.65,14.6.51.51,0,0,1-.44.57Z" style="fill:#30323e"/><path d="M3.41,53.14a.57.57,0,0,1-.25-.06,3.06,3.06,0,0,1-1.39-3.67c.47-1.87,2-3.74,3.17-3.78a.49.49,0,0,1,.52.49.5.5,0,0,1-.49.52c-.48,0-1.82,1.42-2.21,3a2,2,0,0,0,.9,2.53.51.51,0,0,1,.19.7A.5.5,0,0,1,3.41,53.14Z" style="fill:#30323e"/><path d="M10.09,55.53a.47.47,0,0,1-.35-.14,8.36,8.36,0,0,1-2.55-5.83.5.5,0,0,1,.5-.51.51.51,0,0,1,.52.5,7.3,7.3,0,0,0,2.23,5.11.5.5,0,0,1-.35.87Z" style="fill:#30323e"/></g></g></svg>
