<svg id="like" xmlns="http://www.w3.org/2000/svg" width="16.595" height="14.65" viewBox="0 0 16.595 14.65">
    <g id="Group_96" transform="translate(0 0)">
        <path id="Path_1181" d="M12.187,30a3.929,3.929,0,0,0-2.454.848A5.59,5.59,0,0,0,8.3,32.575a5.589,5.589,0,0,0-1.436-1.727A3.929,3.929,0,0,0,4.408,30,4.5,4.5,0,0,0,0,34.781c0,2.945,2.364,4.959,5.943,8.01.608.518,1.3,1.105,2.013,1.731a.519.519,0,0,0,.683,0c.716-.626,1.4-1.213,2.013-1.732,3.579-3.05,5.943-5.064,5.943-8.009A4.5,4.5,0,0,0,12.187,30Z" transform="translate(0 -30)" fill="#6ec6ff"/>
    </g>
</svg>
