<svg id="comment" xmlns="http://www.w3.org/2000/svg" width="19.135" height="17.605" viewBox="0 0 19.135 17.605">
    <path id="Path_1182" d="M16.5-1.332H2.631A2.634,2.634,0,0,0,0,1.3v8.49A2.634,2.634,0,0,0,2.621,12.42v3.853L8.158,12.42H16.5a2.634,2.634,0,0,0,2.631-2.631V1.3A2.634,2.634,0,0,0,16.5-1.332Zm1.51,11.121A1.511,1.511,0,0,1,16.5,11.3h-8.7L3.743,14.127V11.3H2.631a1.511,1.511,0,0,1-1.51-1.51V1.3a1.511,1.511,0,0,1,1.51-1.51H16.5a1.511,1.511,0,0,1,1.51,1.51Zm0,0" transform="translate(0 1.332)" fill="#707070"/>
    <path id="Path_1183" d="M171.293,131.172h8.892v1.121h-8.892Zm0,0" transform="translate(-166.172 -127.21)" fill="#707070"/>
    <path id="Path_1184" d="M171.293,211.172h8.892v1.121h-8.892Zm0,0" transform="translate(-166.172 -204.818)" fill="#707070"/>
    <path id="Path_1185" d="M171.293,291.172h8.892v1.121h-8.892Zm0,0" transform="translate(-166.172 -282.426)" fill="#707070"/>
</svg>
