<svg id="share" xmlns="http://www.w3.org/2000/svg" width="15.912" height="16.425" viewBox="0 0 15.912 16.425">
    <path id="Path_1179" d="M140.179,4.777,135.73.157a.513.513,0,0,0-.883.357V2.738h-.171A6.68,6.68,0,0,0,128,9.411v1.027a.506.506,0,0,0,.4.491.458.458,0,0,0,.113.014.531.531,0,0,0,.469-.292,5.614,5.614,0,0,1,5.049-3.121h.813V9.753a.513.513,0,0,0,.883.356l4.448-4.62A.513.513,0,0,0,140.179,4.777Zm0,0" transform="translate(-124.41 0)" fill="#707070"/>
    <path id="Path_1180" d="M13.927,99.027H1.993A2.024,2.024,0,0,1,0,96.974V87.393A2.024,2.024,0,0,1,1.993,85.34H3.982a.685.685,0,0,1,0,1.369H1.993a.674.674,0,0,0-.663.684v9.581a.674.674,0,0,0,.663.684H13.927a.674.674,0,0,0,.663-.684V91.5a.663.663,0,1,1,1.326,0v5.475A2.024,2.024,0,0,1,13.927,99.027Zm0,0" transform="translate(-0.004 -82.602)" fill="#707070"/>
</svg>
