<svg id="Group_95" data-name="Group 95" xmlns="http://www.w3.org/2000/svg" width="1125" height="959.419" viewBox="0 0 1125 959.419">
    <path id="Path_1179" data-name="Path 1179" d="M1125,0H0V557.033l24.148,20.649,1.972-2.222L148.076,683.653,399,898.221c90.093,77.039,207.89,77.039,297.983,0l187.86-160.638L1125,528.9Z" fill="#ffb300"/>
    <path id="Path_1180" data-name="Path 1180" d="M1125,528.9,884.847,737.583,1125,532.229Z" fill="#ffb300"/>
    <path id="Path_1181" data-name="Path 1181" d="M24.148,577.682,148.076,683.653,26.12,575.46Z" fill="#ffb300"/>
    <path id="Path_1182" data-name="Path 1182" d="M631.188,958l456.653-396.809C1068.9,301.392,853.293,96.531,590.1,96.531,314.455,96.531,91,321.234,91,598.419q0,18.012,1.254,35.712l196.39,174.225" fill="#fff" opacity="0.059" style="isolation: isolate"/>
    <path id="Path_1183" data-name="Path 1183" d="M288.644,808.356l93.743,83.164A263.875,263.875,0,0,0,557.5,958h73.686" fill="#fff" opacity="0.059" style="isolation: isolate"/>
    <path id="Path_1184" data-name="Path 1184" d="M320,832l107.426,90.006a159.6,159.6,0,0,0,93.421,37h0a252.434,252.434,0,0,0,179.929-61.478L1006.694,631.7C989.049,444.094,831.12,297.286,638.9,297.286c-204.039,0-369.446,165.406-369.446,369.446,0,55.193,12.108,107.556,46.4,165.756" fill="#fff" opacity="0.149" style="isolation: isolate"/>
    <path id="Path_1185" data-name="Path 1185" d="M666.838,459.1C515.785,455.161,391.318,579.411,395,730.47c2.4,98.453,58.529,183.572,140.172,227.191a2.88,2.88,0,0,0,1.357.339h93.593a2.848,2.848,0,0,0,1.868-.7l290.846-252.73a2.866,2.866,0,0,0,.977-2.389C912.958,568.348,802.616,462.635,666.838,459.1Z" fill="#fff" opacity="0.147" style="isolation: isolate"/>
    <path id="Path_1186" data-name="Path 1186" d="M663.989,958.106c2.127,0,4.243-.043,6.355-.106H657.635C659.746,958.063,661.862,958.106,663.989,958.106Z" fill="#fff" opacity="0.147" style="isolation: isolate"/>
    <path id="Path_1187" data-name="Path 1187" d="M663.989,542.654c-114.724,0-207.726,93-207.726,207.726,0,104.409,77.037,190.8,177.367,205.5L871.7,749.009C870.959,634.917,778.255,542.654,663.989,542.654Z" fill="#fff" opacity="0.147" style="isolation: isolate"/>
    <path id="Path_1188" data-name="Path 1188" d="M617.983,68.648A83.648,83.648,0,1,0,749.4,0H653.858A83.535,83.535,0,0,0,617.983,68.648Z" fill="#fff" opacity="0.4" style="isolation: isolate"/>
    <path id="Path_1189" data-name="Path 1189" d="M266.661,782.445a108.679,108.679,0,1,0-106.827-88.362l99.305,88.1C261.625,782.351,264.132,782.445,266.661,782.445Z" fill="#fff" opacity="0.4" style="isolation: isolate"/>
    <circle id="Ellipse_142" data-name="Ellipse 142" cx="66.918" cy="66.918" r="66.918" transform="translate(213.684 93.742)" fill="#fff" opacity="0.4" style="isolation: isolate"/>
    <path id="Path_1190" data-name="Path 1190" d="M15,575" fill="none" stroke="#000" stroke-miterlimit="10" stroke-width="1"/>
    <path id="Path_1191" data-name="Path 1191" d="M323,850" fill="none" stroke="#000" stroke-miterlimit="10" stroke-width="1"/>
    <path id="Path_1192" data-name="Path 1192" d="M322.5,850.5" fill="none" stroke="#000" stroke-miterlimit="10" stroke-width="1"/>
</svg>
